<?xml version="1.0" standalone="no"?>
<!DOCTYPE svg PUBLIC "-//W3C//DTD SVG 1.1//EN" "http://www.w3.org/Graphics/SVG/1.1/DTD/svg11.dtd" >
<svg xmlns="http://www.w3.org/2000/svg" xmlns:xlink="http://www.w3.org/1999/xlink" version="1.1">
<metadata>
Created by FontForge 20161116 at Thu Oct 16 14:34:31 2014
 By Jimmy Warting
(c) 2014 Klim Type Foundry. All Rights Reserved. wf-rip
</metadata>
<defs>
<font id="DomaineSansDisplay-MediumItalic" horiz-adv-x="599" >
  <font-face 
    font-family="Domaine Sans Display Medium"
    font-weight="500"
    font-style="italic"
    font-stretch="normal"
    units-per-em="1000"
    panose-1="2 11 6 3 8 7 2 11 2 4"
    ascent="800"
    descent="-200"
    x-height="490"
    cap-height="700"
    bbox="-202 -497.708 1420 975"
    underline-thickness="10"
    underline-position="-108"
    slope="-14"
    stemh="10"
    stemv="113"
    unicode-range="U+000D-FB02"
  />
<missing-glyph horiz-adv-x="1203" 
d="M708 232l-32 19l-17 29l6 59l24 34l74 55l19 -4l48 -58l21 -65l-38 -41zM659 63l-24 3l-4 9l5 44l-2 37l-11 3l-5 -48l-30 -40l-20 -8l-43 7l-13 19v16l42 74l34 36l16 33v7l16 11l8 -9l1 -18l18 -31l15 -3l14 -31l8 -5l20 -41l-9 -50l-15 -3zM515 405l60 -60l-3 -39
l-8 -12l-17 4l-4 -19l5 -14l-8 -11l-31 -26l-34 1l-27 -12l-46 21l-19 19l-9 29l8 37l-1 6l4 37l20 22l26 43l8 3zM574 -81l-38 -19l-38 15l-2 14l12 28l-6 8l-16 2l-29 -23l-43 21v36l-35 32l-60 105l-33 86l-22 98l5 168l9 67l31 67l51 66l98 59l49 15l5 4l106 6l72 -3
l5 -6l-1 -20l-56 -78l-10 -22l-13 -71l14 -11v-7l-7 -7l-24 -13l-59 19l-32 37l1 9l-8 4l-45 -27l-62 -20l-61 -90l-14 -136l18 -72l43 -91l36 -85l57 -56l36 -17l24 4l102 -17l97 32l45 38l24 27l63 105l68 97l-19 56l10 84l-23 69l7 20l-86 48l-76 21l-83 -16l-3 4l11 81
l14 10l28 91l48 3l99 -30l76 -43l59 -91l8 -27l8 -45l-9 -46l-20 -61l3 -51l32 -40l1 -37l-94 -133l-33 -103l-9 -7l-24 -62l7 -10l-35 -24l-9 3l-30 24l-1 30l-5 2l-19 -23v-11l20 -26l-35 -35l-16 -3l-22 21l6 16l-17 17l-24 -4l-21 -65l-35 -3l-15 23l3 30l-33 -4z" />
    <glyph glyph-name="f_b" unicode="fb" horiz-adv-x="893" 
d="M485 665c-2 45 -32 76 -80 76c-71 0 -108 -66 -127 -144l-27 -107h114l-6 -10h-110l-176 -695h-114l174 695h-73l3 10h72l14 54c32 126 115 215 230 215c61 0 104 -33 112 -70l23 60h108l-96 -380c37 71 104 131 190 131c97 0 156 -72 156 -176
c0 -170 -116 -334 -271 -334c-82 0 -132 61 -134 137l-43 -127h-105zM516 324l-31 -124c-6 -23 -9 -46 -9 -67c0 -67 36 -111 92 -111c112 0 188 180 188 332c0 68 -21 115 -82 115c-69 0 -132 -68 -158 -145z" />
    <glyph glyph-name="f_f_b" unicode="ffb" horiz-adv-x="1198" 
d="M251 490h189l14 54c13 50 34 95 62 130c-13 33 -46 58 -93 58c-90 0 -127 -69 -155 -178zM249 480l-175 -695h-115l174 695h-73l3 10h71l13 46c31 118 116 212 251 212c65 0 109 -28 125 -65c41 47 96 76 161 76c60 0 104 -33 112 -70l23 60h108l-96 -380
c36 71 104 131 189 131c98 0 157 -72 157 -176c0 -170 -117 -334 -272 -334c-81 0 -132 61 -133 137l-43 -127h-105l166 665c-2 45 -32 76 -81 76c-70 0 -107 -66 -127 -144l-27 -107h114l-5 -10h-111l-169 -674h-115l168 674h-188zM820 324l-31 -124c-5 -23 -9 -46 -9 -67
c1 -67 36 -111 92 -111c113 0 188 180 188 332c0 68 -21 115 -81 115c-69 0 -132 -68 -159 -145z" />
    <glyph glyph-name="f_f_h" unicode="ffh" horiz-adv-x="1207" 
d="M251 490h189l14 54c13 50 34 95 62 130c-13 33 -46 58 -93 58c-90 0 -127 -69 -155 -178zM249 480l-175 -695h-115l174 695h-73l3 10h71l13 46c31 118 116 212 251 212c65 0 109 -28 125 -65c41 47 96 76 161 76c60 0 104 -33 112 -70l23 60h108l-96 -380
c43 82 118 131 196 131c76 0 122 -48 122 -120c0 -16 -3 -33 -7 -51l-62 -249c-2 -10 -4 -19 -4 -27c0 -22 11 -36 33 -36c27 0 54 22 74 66l7 -4c-28 -60 -73 -89 -129 -89c-62 0 -94 36 -94 86c0 10 1 22 4 33l64 255c4 18 7 36 7 51c0 36 -17 59 -58 59
c-64 0 -140 -70 -167 -161l-77 -313h-117l166 665c-2 45 -31 76 -80 76c-70 0 -107 -66 -127 -144l-27 -107h114l-5 -10h-111l-169 -674h-115l168 674h-188z" />
    <glyph glyph-name="f_f_idieresis" unicode="ff&#xef;" horiz-adv-x="894" 
d="M251 490h189l15 65c12 47 32 89 59 123c-14 31 -46 54 -91 54c-90 0 -127 -69 -155 -178zM849 589l32 127h95l-31 -127h-96zM249 480l-175 -695h-115l174 695h-73l3 10h71l13 46c31 118 116 212 251 212c63 0 106 -26 123 -62c41 45 96 73 164 73c78 0 115 -38 116 -92
c-1 -32 -16 -56 -38 -73l-7 7c23 16 34 39 35 66c-1 44 -29 73 -81 73c-72 0 -110 -56 -135 -166l-20 -84h302l-102 -410c-3 -10 -4 -19 -4 -27c0 -22 11 -36 32 -36c28 0 54 22 75 66l7 -4c-28 -60 -73 -89 -130 -89c-61 0 -93 36 -93 86c0 10 1 22 4 33l92 371h-185
l-169 -674h-115l168 674h-188z" />
    <glyph glyph-name="f_f_j" unicode="ffj" horiz-adv-x="871" 
d="M251 490h189l12 42c15 49 37 95 67 131c-9 38 -44 69 -96 69c-90 0 -127 -69 -155 -178zM249 480l-175 -695h-115l174 695h-73l3 10h71l13 46c31 118 116 212 251 212c71 0 116 -33 129 -76c47 53 112 87 195 87c86 0 132 -44 132 -102c0 -43 -20 -75 -51 -98l-5 6
c28 23 46 50 46 92c0 49 -38 87 -101 87c-97 0 -145 -77 -177 -210l-11 -44h306l-124 -497c-29 -117 -105 -191 -217 -191c-63 0 -103 23 -123 54l-13 -50h-115l168 674h-188zM489 -180c57 0 99 41 125 145l128 515h-189l-153 -609c16 -30 46 -51 89 -51z" />
    <glyph glyph-name="f_f_k" unicode="ffk" horiz-adv-x="1168" 
d="M251 490h189l14 54c13 50 34 95 62 130c-13 33 -46 58 -93 58c-90 0 -127 -69 -155 -178zM249 480l-175 -695h-115l174 695h-73l3 10h71l13 46c31 118 116 212 251 212c65 0 109 -28 125 -65c41 47 96 76 161 76c60 0 104 -33 112 -70l23 60h108l-137 -550l384 291h17
l-250 -189l83 -214c14 -39 29 -57 53 -57s45 19 62 69l8 -3c-24 -70 -65 -106 -128 -106c-54 0 -88 30 -106 88l-60 156l-67 -51l-46 -183h-117l166 665c-2 45 -31 76 -80 76c-70 0 -107 -66 -127 -144l-27 -107h114l-5 -10h-111l-169 -674h-115l168 674h-188z" />
    <glyph glyph-name="f_h" unicode="fh" horiz-adv-x="902" 
d="M485 665c-2 45 -32 76 -80 76c-71 0 -108 -66 -127 -144l-27 -107h114l-6 -10h-110l-176 -695h-114l174 695h-73l3 10h72l14 54c32 126 115 215 230 215c61 0 104 -33 112 -70l23 60h108l-95 -380c43 82 118 131 195 131s122 -48 122 -120c0 -16 -2 -33 -6 -51l-62 -249
c-3 -10 -4 -19 -4 -27c0 -22 10 -36 32 -36c27 0 54 22 75 66l7 -4c-28 -60 -73 -89 -130 -89c-61 0 -93 36 -93 86c0 10 1 22 4 33l63 255c5 18 7 36 7 51c0 36 -16 59 -57 59c-64 0 -141 -70 -167 -161l-78 -313h-116z" />
    <glyph glyph-name="f_idieresis" unicode="f&#xef;" horiz-adv-x="589" 
d="M545 589l31 127h95l-31 -127h-95zM135 490l16 65c29 118 109 204 230 204c77 0 114 -38 115 -92c-1 -32 -15 -56 -38 -73l-6 7c22 16 33 39 34 66c-1 44 -29 73 -80 73c-73 0 -110 -56 -136 -166l-19 -84h301l-102 -410c-2 -10 -4 -19 -4 -27c0 -22 11 -36 33 -36
c27 0 54 22 74 66l7 -4c-28 -60 -73 -89 -129 -89c-61 0 -94 36 -94 86c0 10 1 22 4 33l93 371h-185l-176 -695h-114l174 695h-73l3 10h72z" />
    <glyph glyph-name="f_j" unicode="fj" horiz-adv-x="566" 
d="M426 -34c-29 -117 -105 -191 -218 -191c-63 0 -103 24 -123 55l-12 -45h-114l174 695h-73l3 10h72l12 42c39 128 128 227 270 227c86 0 132 -44 132 -102c0 -43 -20 -75 -50 -98l-6 6c29 23 47 50 47 92c0 49 -39 87 -101 87c-98 0 -145 -77 -177 -210l-11 -44h305z
M178 -207c56 0 99 42 125 146l135 541h-189l-161 -635c15 -30 46 -52 90 -52z" />
    <glyph glyph-name="f_k" unicode="fk" horiz-adv-x="863" 
d="M249 480l-176 -695h-114l174 695h-73l3 10h72l14 54c32 126 115 215 230 215c61 0 104 -33 112 -70l23 60h108l-137 -550l385 291h17l-251 -190l83 -213c15 -39 29 -57 54 -57c24 0 45 19 61 69l8 -3c-23 -70 -64 -106 -127 -106c-54 0 -88 30 -106 88l-61 156l-67 -51
l-46 -183h-116l166 665c-2 45 -32 76 -80 76c-71 0 -108 -66 -127 -144l-27 -107h114l-6 -10h-110z" />
    <glyph glyph-name="f_f" unicode="ff" horiz-adv-x="614" 
d="M251 490h189l16 65c12 47 32 88 59 122c-14 31 -46 55 -92 55c-90 0 -127 -69 -155 -178zM249 480l-175 -695h-115l174 695h-73l3 10h71l13 46c31 118 116 212 251 212c64 0 107 -27 124 -63c40 46 95 74 164 74c78 0 115 -38 115 -92c0 -32 -14 -56 -38 -73l-6 7
c23 16 34 39 34 66c0 44 -28 73 -80 73c-72 0 -109 -56 -136 -166l-19 -84h130l-5 -10h-127l-170 -674h-115l168 674h-188z" />
    <glyph glyph-name="f_f_i" unicode="ffi" horiz-adv-x="894" 
d="M251 490h189l12 42c15 49 37 95 67 131c-9 38 -44 69 -96 69c-90 0 -127 -69 -155 -178zM249 480l-175 -695h-115l174 695h-73l3 10h71l13 46c31 118 116 212 251 212c71 0 116 -33 129 -76c47 53 112 87 195 87c86 0 132 -44 132 -102c0 -43 -20 -75 -51 -98l-5 6
c28 23 46 50 46 92c0 49 -38 87 -101 87c-97 0 -145 -77 -177 -210l-11 -44h302l-102 -410c-3 -10 -4 -19 -4 -27c0 -22 11 -36 32 -36c28 0 54 22 75 66l7 -4c-28 -60 -73 -89 -130 -89c-61 0 -93 36 -93 86c0 10 1 22 4 33l92 371h-185l-169 -674h-115l168 674h-188z" />
    <glyph glyph-name="f_f_l" unicode="ffl" horiz-adv-x="898" 
d="M251 490h189l14 54c13 50 34 95 62 130c-13 33 -46 58 -93 58c-90 0 -127 -69 -155 -178zM249 480l-175 -695h-115l174 695h-73l3 10h71l13 46c31 118 116 212 251 212c65 0 109 -28 125 -65c41 47 96 76 161 76c60 0 102 -33 110 -70l23 60h108l-167 -669
c-3 -10 -4 -19 -4 -27c0 -22 10 -36 32 -36c27 0 54 22 75 66l7 -4c-28 -60 -73 -89 -130 -89c-61 0 -93 36 -93 86c0 10 1 22 4 33l138 556c-1 45 -31 76 -78 76c-70 0 -107 -66 -127 -144l-27 -107h114l-5 -10h-111l-169 -674h-115l168 674h-188z" />
    <glyph glyph-name="fi" unicode="fi" horiz-adv-x="589" 
d="M73 -215h-114l174 695h-73l3 10h72l12 42c39 128 128 227 270 227c86 0 132 -44 132 -102c0 -43 -20 -75 -50 -98l-6 6c29 23 47 50 47 92c0 49 -39 87 -101 87c-98 0 -145 -77 -177 -210l-11 -44h301l-102 -410c-2 -10 -4 -19 -4 -27c0 -22 11 -36 33 -36
c27 0 54 22 74 66l7 -4c-28 -60 -73 -89 -129 -89c-61 0 -94 36 -94 86c0 10 1 22 4 33l93 371h-185z" />
    <glyph glyph-name="fl" unicode="fl" horiz-adv-x="593" 
d="M249 480l-176 -695h-114l174 695h-73l3 10h72l14 54c32 126 115 215 230 215c61 0 102 -33 110 -70l23 60h108l-167 -669c-2 -10 -4 -19 -4 -27c0 -22 11 -36 32 -36c28 0 55 22 75 66l7 -4c-28 -60 -73 -89 -130 -89c-61 0 -93 36 -93 86c0 10 1 22 4 33l139 556
c-2 45 -32 76 -78 76c-71 0 -108 -66 -127 -144l-27 -107h114l-6 -10h-110z" />
    <glyph glyph-name=".notdef" horiz-adv-x="1203" 
d="M708 232l-32 19l-17 29l6 59l24 34l74 55l19 -4l48 -58l21 -65l-38 -41zM659 63l-24 3l-4 9l5 44l-2 37l-11 3l-5 -48l-30 -40l-20 -8l-43 7l-13 19v16l42 74l34 36l16 33v7l16 11l8 -9l1 -18l18 -31l15 -3l14 -31l8 -5l20 -41l-9 -50l-15 -3zM515 405l60 -60l-3 -39
l-8 -12l-17 4l-4 -19l5 -14l-8 -11l-31 -26l-34 1l-27 -12l-46 21l-19 19l-9 29l8 37l-1 6l4 37l20 22l26 43l8 3zM574 -81l-38 -19l-38 15l-2 14l12 28l-6 8l-16 2l-29 -23l-43 21v36l-35 32l-60 105l-33 86l-22 98l5 168l9 67l31 67l51 66l98 59l49 15l5 4l106 6l72 -3
l5 -6l-1 -20l-56 -78l-10 -22l-13 -71l14 -11v-7l-7 -7l-24 -13l-59 19l-32 37l1 9l-8 4l-45 -27l-62 -20l-61 -90l-14 -136l18 -72l43 -91l36 -85l57 -56l36 -17l24 4l102 -17l97 32l45 38l24 27l63 105l68 97l-19 56l10 84l-23 69l7 20l-86 48l-76 21l-83 -16l-3 4l11 81
l14 10l28 91l48 3l99 -30l76 -43l59 -91l8 -27l8 -45l-9 -46l-20 -61l3 -51l32 -40l1 -37l-94 -133l-33 -103l-9 -7l-24 -62l7 -10l-35 -24l-9 3l-30 24l-1 30l-5 2l-19 -23v-11l20 -26l-35 -35l-16 -3l-22 21l6 16l-17 17l-24 -4l-21 -65l-35 -3l-15 23l3 30l-33 -4z" />
    <glyph glyph-name="space" unicode=" " horiz-adv-x="232" 
 />
    <glyph glyph-name="uni00A0" unicode="&#xa0;" horiz-adv-x="500" 
 />
    <glyph glyph-name="A" unicode="A" horiz-adv-x="684" 
d="M433 236l-69 331l-233 -331h302zM482 0l-47 225h-312l-158 -225h-13l499 710h4l155 -710h-128z" />
    <glyph glyph-name="Agrave" unicode="&#xc0;" horiz-adv-x="684" 
d="M474 745l-124 179h111l17 -179h-4zM433 236l-69 331l-233 -331h302zM482 0l-47 225h-312l-158 -225h-13l499 710h4l155 -710h-128z" />
    <glyph glyph-name="Aacute" unicode="&#xc1;" horiz-adv-x="684" 
d="M543 924h115l-213 -179h-4zM433 236l-69 331l-233 -331h302zM482 0l-47 225h-312l-158 -225h-13l499 710h4l155 -710h-128z" />
    <glyph glyph-name="Acircumflex" unicode="&#xc2;" horiz-adv-x="684" 
d="M532 741l-76 130l-143 -130h-13l213 194h2l111 -194h-94zM433 236l-69 331l-233 -331h302zM482 0l-47 225h-312l-158 -225h-13l499 710h4l155 -710h-128z" />
    <glyph glyph-name="Atilde" unicode="&#xc3;" horiz-adv-x="684" 
d="M539 761c-59 0 -104 87 -157 87c-34 0 -61 -28 -83 -90h-9c26 88 76 149 139 149c62 0 105 -87 158 -87c33 0 60 29 82 90h9c-26 -88 -76 -149 -139 -149zM433 236l-69 331l-233 -331h302zM482 0l-47 225h-312l-158 -225h-13l499 710h4l155 -710h-128z" />
    <glyph glyph-name="Adieresis" unicode="&#xc4;" horiz-adv-x="684" 
d="M498 754l32 129h97l-32 -129h-97zM334 754l32 129h97l-32 -129h-97zM433 236l-69 331l-233 -331h302zM482 0l-47 225h-312l-158 -225h-13l499 710h4l155 -710h-128z" />
    <glyph glyph-name="Aring" unicode="&#xc5;" horiz-adv-x="684" 
d="M486 878c-47 0 -93 -38 -93 -91c0 -39 31 -70 71 -70c48 0 94 37 94 91c0 39 -31 70 -72 70zM433 236l-69 331l-233 -331h302zM482 0l-47 225h-312l-158 -225h-13l498 708c-39 7 -67 39 -67 79c0 59 51 101 103 101c47 0 82 -35 82 -80c0 -60 -51 -101 -104 -101h-8
l154 -707h-128z" />
    <glyph glyph-name="Amacron" unicode="&#x100;" horiz-adv-x="684" 
d="M616 786h-287l3 10h287zM433 236l-69 331l-233 -331h302zM482 0l-47 225h-312l-158 -225h-13l499 710h4l155 -710h-128z" />
    <glyph glyph-name="Abreve" unicode="&#x102;" horiz-adv-x="684" 
d="M659 928c-27 -107 -104 -182 -193 -182s-132 75 -105 182h6c-13 -74 19 -109 115 -109s145 35 170 109h7zM433 236l-69 331l-233 -331h302zM482 0l-47 225h-312l-158 -225h-13l499 710h4l155 -710h-128z" />
    <glyph glyph-name="Aogonek" unicode="&#x104;" horiz-adv-x="684" 
d="M433 236l-69 331l-233 -331h302zM527 -132c-35 -64 -85 -93 -140 -93c-49 0 -88 30 -88 72c0 60 75 103 182 156l-46 222h-312l-158 -225h-13l499 710h4l155 -710h-119c-87 -49 -127 -90 -127 -151c0 -34 19 -56 49 -56c44 0 80 29 107 79z" />
    <glyph glyph-name="B" unicode="B" horiz-adv-x="680" 
d="M313 0h-294l175 700h270c132 0 223 -46 223 -143c0 -124 -128 -190 -251 -196v-2c97 -4 198 -48 198 -145c0 -143 -153 -214 -321 -214zM316 689l-81 -324h113c119 0 220 69 220 214c0 77 -49 110 -141 110h-111zM347 354h-114l-86 -343h132c145 0 232 78 232 221
c0 88 -59 122 -164 122z" />
    <glyph glyph-name="C" unicode="C" horiz-adv-x="681" 
d="M476 710c144 0 228 -87 223 -203l-11 -2c6 110 -73 189 -187 189c-185 0 -319 -235 -319 -461c0 -159 85 -225 189 -225c105 0 204 59 255 169l11 -5c-58 -118 -166 -182 -294 -182c-157 0 -290 109 -290 293c0 227 192 427 423 427z" />
    <glyph glyph-name="Ccedilla" unicode="&#xc7;" horiz-adv-x="681" 
d="M270 -225c-54 0 -85 26 -95 59l9 5c9 -31 34 -49 67 -49c47 0 79 42 79 92c0 33 -23 47 -75 47l44 64c-137 18 -246 124 -246 290c0 227 192 427 423 427c144 0 228 -87 223 -203l-11 -2c6 110 -73 189 -187 189c-185 0 -319 -235 -319 -461c0 -159 85 -225 189 -225
c105 0 204 59 255 169l11 -5c-58 -118 -166 -182 -294 -182c-12 0 -24 1 -36 2l-37 -55c68 0 122 -21 122 -69c0 -52 -53 -93 -122 -93z" />
    <glyph glyph-name="Cacute" unicode="&#x106;" horiz-adv-x="681" 
d="M578 924h115l-213 -179h-4zM476 710c144 0 228 -87 223 -203l-11 -2c6 110 -73 189 -187 189c-185 0 -319 -235 -319 -461c0 -159 85 -225 189 -225c105 0 204 59 255 169l11 -5c-58 -118 -166 -182 -294 -182c-157 0 -290 109 -290 293c0 227 192 427 423 427z" />
    <glyph glyph-name="Ccircumflex" unicode="&#x108;" horiz-adv-x="681" 
d="M567 741l-76 130l-143 -130h-13l213 194h2l111 -194h-94zM476 710c144 0 228 -87 223 -203l-11 -2c6 110 -73 189 -187 189c-185 0 -319 -235 -319 -461c0 -159 85 -225 189 -225c105 0 204 59 255 169l11 -5c-58 -118 -166 -182 -294 -182c-157 0 -290 109 -290 293
c0 227 192 427 423 427z" />
    <glyph glyph-name="Cdotaccent" unicode="&#x10a;" horiz-adv-x="681" 
d="M439 754l32 129h122l-32 -129h-122zM476 710c144 0 228 -87 223 -203l-11 -2c6 110 -73 189 -187 189c-185 0 -319 -235 -319 -461c0 -159 85 -225 189 -225c105 0 204 59 255 169l11 -5c-58 -118 -166 -182 -294 -182c-157 0 -290 109 -290 293c0 227 192 427 423 427z
" />
    <glyph glyph-name="Ccaron" unicode="&#x10c;" horiz-adv-x="681" 
d="M497 737h-2l-111 195h93l77 -130l143 130h13zM476 710c144 0 228 -87 223 -203l-11 -2c6 110 -73 189 -187 189c-185 0 -319 -235 -319 -461c0 -159 85 -225 189 -225c105 0 204 59 255 169l11 -5c-58 -118 -166 -182 -294 -182c-157 0 -290 109 -290 293
c0 227 192 427 423 427z" />
    <glyph glyph-name="D" unicode="D" horiz-adv-x="759" 
d="M273 0h-254l175 700h224c215 0 344 -103 344 -267c0 -265 -227 -433 -489 -433zM261 11c245 0 374 225 374 462c0 137 -71 216 -231 216h-88l-169 -678h114z" />
    <glyph glyph-name="Dcaron" unicode="&#x10e;" horiz-adv-x="759" 
d="M470 737h-2l-111 195h93l77 -130l143 130h13zM273 0h-254l175 700h224c215 0 344 -103 344 -267c0 -265 -227 -433 -489 -433zM261 11c245 0 374 225 374 462c0 137 -71 216 -231 216h-88l-169 -678h114z" />
    <glyph glyph-name="E" unicode="E" horiz-adv-x="631" 
d="M19 0l175 700h503l-3 -11h-378l-80 -322h277l-3 -11h-277l-86 -345h394l-3 -11h-519z" />
    <glyph glyph-name="Egrave" unicode="&#xc8;" horiz-adv-x="631" 
d="M468 745l-124 179h111l17 -179h-4zM19 0l175 700h503l-3 -11h-378l-80 -322h277l-3 -11h-277l-86 -345h394l-3 -11h-519z" />
    <glyph glyph-name="Eacute" unicode="&#xc9;" horiz-adv-x="631" 
d="M538 924h115l-213 -179h-4zM19 0l175 700h503l-3 -11h-378l-80 -322h277l-3 -11h-277l-86 -345h394l-3 -11h-519z" />
    <glyph glyph-name="Ecircumflex" unicode="&#xca;" horiz-adv-x="631" 
d="M538 741l-76 130l-143 -130h-13l213 194h2l111 -194h-94zM19 0l175 700h503l-3 -11h-378l-80 -322h277l-3 -11h-277l-86 -345h394l-3 -11h-519z" />
    <glyph glyph-name="Edieresis" unicode="&#xcb;" horiz-adv-x="631" 
d="M492 754l32 129h97l-32 -129h-97zM328 754l32 129h97l-32 -129h-97zM19 0l175 700h503l-3 -11h-378l-80 -322h277l-3 -11h-277l-86 -345h394l-3 -11h-519z" />
    <glyph glyph-name="Emacron" unicode="&#x112;" horiz-adv-x="631" 
d="M610 786h-287l3 10h287zM19 0l175 700h503l-3 -11h-378l-80 -322h277l-3 -11h-277l-86 -345h394l-3 -11h-519z" />
    <glyph glyph-name="Ebreve" unicode="&#x114;" horiz-adv-x="631" 
d="M653 928c-27 -107 -104 -182 -193 -182s-132 75 -105 182h6c-13 -74 19 -109 115 -109s145 35 170 109h7zM19 0l175 700h503l-3 -11h-378l-80 -322h277l-3 -11h-277l-86 -345h394l-3 -11h-519z" />
    <glyph glyph-name="Edotaccent" unicode="&#x116;" horiz-adv-x="631" 
d="M398 754l32 129h122l-32 -129h-122zM19 0l175 700h503l-3 -11h-378l-80 -322h277l-3 -11h-277l-86 -345h394l-3 -11h-519z" />
    <glyph glyph-name="Eogonek" unicode="&#x118;" horiz-adv-x="631" 
d="M481 -132c-35 -64 -85 -93 -140 -93c-49 0 -88 30 -88 72c0 59 72 101 176 153h-410l175 700h503l-3 -11h-378l-80 -322h277l-3 -11h-277l-86 -345h394l-3 -11h-93c-87 -49 -127 -90 -127 -151c0 -34 19 -56 49 -56c44 0 80 29 107 79z" />
    <glyph glyph-name="Ecaron" unicode="&#x11a;" horiz-adv-x="631" 
d="M456 737h-2l-111 195h93l77 -130l143 130h13zM19 0l175 700h503l-3 -11h-378l-80 -322h277l-3 -11h-277l-86 -345h394l-3 -11h-519z" />
    <glyph glyph-name="F" unicode="F" horiz-adv-x="586" 
d="M14 0l175 700h488l-3 -11h-362l-82 -332h277l-3 -11h-277l-87 -346h-126z" />
    <glyph glyph-name="G" unicode="G" horiz-adv-x="749" 
d="M345 -10c-159 0 -292 106 -292 293c0 231 199 427 427 427c153 0 235 -88 232 -206l-11 -1c4 111 -74 191 -195 191c-192 0 -329 -250 -329 -484c0 -146 76 -210 169 -210c110 0 188 74 220 201l30 117h123l-81 -328h-4l-53 130c-54 -75 -132 -130 -236 -130z" />
    <glyph glyph-name="Gcircumflex" unicode="&#x11c;" horiz-adv-x="749" 
d="M576 741l-76 130l-143 -130h-13l213 194h2l111 -194h-94zM345 -10c-159 0 -292 106 -292 293c0 231 199 427 427 427c153 0 235 -88 232 -206l-11 -1c4 111 -74 191 -195 191c-192 0 -329 -250 -329 -484c0 -146 76 -210 169 -210c110 0 188 74 220 201l30 117h123
l-81 -328h-4l-53 130c-54 -75 -132 -130 -236 -130z" />
    <glyph glyph-name="Gbreve" unicode="&#x11e;" horiz-adv-x="749" 
d="M696 928c-27 -107 -104 -182 -193 -182s-132 75 -105 182h6c-13 -74 19 -109 115 -109s145 35 170 109h7zM345 -10c-159 0 -292 106 -292 293c0 231 199 427 427 427c153 0 235 -88 232 -206l-11 -1c4 111 -74 191 -195 191c-192 0 -329 -250 -329 -484
c0 -146 76 -210 169 -210c110 0 188 74 220 201l30 117h123l-81 -328h-4l-53 130c-54 -75 -132 -130 -236 -130z" />
    <glyph glyph-name="Gdotaccent" unicode="&#x120;" horiz-adv-x="749" 
d="M442 754l32 129h122l-32 -129h-122zM345 -10c-159 0 -292 106 -292 293c0 231 199 427 427 427c153 0 235 -88 232 -206l-11 -1c4 111 -74 191 -195 191c-192 0 -329 -250 -329 -484c0 -146 76 -210 169 -210c110 0 188 74 220 201l30 117h123l-81 -328h-4l-53 130
c-54 -75 -132 -130 -236 -130z" />
    <glyph glyph-name="uni0122" unicode="&#x122;" horiz-adv-x="749" 
d="M345 -10c-159 0 -292 106 -292 293c0 231 199 427 427 427c153 0 235 -88 232 -206l-11 -1c4 111 -74 191 -195 191c-192 0 -329 -250 -329 -484c0 -146 76 -210 169 -210c110 0 188 74 220 201l30 117h123l-81 -328h-4l-53 130c-54 -75 -132 -130 -236 -130zM240 -166
l28 114h126l-29 -115c-16 -62 -68 -115 -166 -103l3 10c92 -11 138 34 153 94h-115z" />
    <glyph glyph-name="H" unicode="H" horiz-adv-x="805" 
d="M19 0l175 700h125l-83 -333h393l84 333h126l-175 -700h-126l88 356h-393l-89 -356h-125z" />
    <glyph glyph-name="Hcircumflex" unicode="&#x124;" horiz-adv-x="805" 
d="M609 741l-76 130l-143 -130h-13l213 194h2l111 -194h-94zM19 0l175 700h125l-83 -333h393l84 333h126l-175 -700h-126l88 356h-393l-89 -356h-125z" />
    <glyph glyph-name="I" unicode="I" horiz-adv-x="285" 
d="M319 700l-175 -700h-125l175 700h125z" />
    <glyph glyph-name="Igrave" unicode="&#xcc;" horiz-adv-x="285" 
d="M280 745l-124 179h111l17 -179h-4zM319 700l-175 -700h-125l175 700h125z" />
    <glyph glyph-name="Iacute" unicode="&#xcd;" horiz-adv-x="285" 
d="M349 924h115l-213 -179h-4zM319 700l-175 -700h-125l175 700h125z" />
    <glyph glyph-name="Icircumflex" unicode="&#xce;" horiz-adv-x="285" 
d="M350 741l-76 130l-143 -130h-13l213 194h2l111 -194h-94zM319 700l-175 -700h-125l175 700h125z" />
    <glyph glyph-name="Idieresis" unicode="&#xcf;" horiz-adv-x="285" 
d="M304 754l32 129h97l-32 -129h-97zM140 754l32 129h97l-32 -129h-97zM319 700l-175 -700h-125l175 700h125z" />
    <glyph glyph-name="Itilde" unicode="&#x128;" horiz-adv-x="285" 
d="M345 761c-59 0 -104 87 -157 87c-34 0 -61 -28 -83 -90h-9c26 88 76 149 139 149c62 0 105 -87 158 -87c33 0 60 29 82 90h9c-26 -88 -76 -149 -139 -149zM319 700l-175 -700h-125l175 700h125z" />
    <glyph glyph-name="Imacron" unicode="&#x12a;" horiz-adv-x="285" 
d="M421 786h-287l3 10h287zM319 700l-175 -700h-125l175 700h125z" />
    <glyph glyph-name="Ibreve" unicode="&#x12c;" horiz-adv-x="285" 
d="M464 928c-27 -107 -104 -182 -193 -182s-132 75 -105 182h6c-13 -74 19 -109 115 -109s145 35 170 109h7zM319 700l-175 -700h-125l175 700h125z" />
    <glyph glyph-name="Iogonek" unicode="&#x12e;" horiz-adv-x="285" 
d="M139 -132c-35 -64 -85 -93 -140 -93c-49 0 -88 30 -88 72c0 59 72 101 176 153h-68l175 700h125l-175 -700h-41c-87 -49 -127 -90 -127 -151c0 -34 19 -56 49 -56c44 0 80 29 107 79z" />
    <glyph glyph-name="Idotaccent" unicode="&#x130;" horiz-adv-x="285" 
d="M210 754l32 129h122l-32 -129h-122zM319 700l-175 -700h-125l175 700h125z" />
    <glyph glyph-name="J" unicode="J" horiz-adv-x="565" 
d="M360 191l128 509h125l-119 -476c-38 -151 -153 -234 -304 -234c-116 0 -189 71 -189 159c0 83 51 142 110 166l2 -7c-58 -27 -102 -80 -102 -159c0 -81 64 -142 155 -142c111 0 165 70 194 184z" />
    <glyph glyph-name="Jcircumflex" unicode="&#x134;" horiz-adv-x="565" 
d="M641 741l-76 130l-143 -130h-13l213 194h2l111 -194h-94zM360 191l128 509h125l-119 -476c-38 -151 -153 -234 -304 -234c-116 0 -189 71 -189 159c0 83 51 142 110 166l2 -7c-58 -27 -102 -80 -102 -159c0 -81 64 -142 155 -142c111 0 165 70 194 184z" />
    <glyph glyph-name="K" unicode="K" horiz-adv-x="716" 
d="M499 0l-183 351l-105 -81l-67 -270h-125l175 700h125l-104 -415l532 415h17l-344 -268l216 -432h-137z" />
    <glyph glyph-name="uni0136" unicode="&#x136;" horiz-adv-x="716" 
d="M499 0l-183 351l-105 -81l-67 -270h-125l175 700h125l-104 -415l532 415h17l-344 -268l216 -432h-137zM213 -166l28 114h126l-29 -115c-16 -62 -68 -115 -166 -103l3 10c92 -11 138 34 153 94h-115z" />
    <glyph glyph-name="L" unicode="L" horiz-adv-x="604" 
d="M19 0l175 700h125l-172 -689h370l-3 -11h-495z" />
    <glyph glyph-name="Lacute" unicode="&#x139;" horiz-adv-x="604" 
d="M361 924h115l-213 -179h-4zM19 0l175 700h125l-172 -689h370l-3 -11h-495z" />
    <glyph glyph-name="uni013B" unicode="&#x13b;" horiz-adv-x="604" 
d="M19 0l175 700h125l-172 -689h370l-3 -11h-495zM158 -166l28 114h126l-29 -115c-16 -62 -68 -115 -166 -103l3 10c92 -11 138 34 153 94h-115z" />
    <glyph glyph-name="Lcaron" unicode="&#x13d;" horiz-adv-x="604" 
d="M642 749l-188 -217h-4l88 217h104zM19 0l175 700h125l-172 -689h370l-3 -11h-495z" />
    <glyph glyph-name="M" unicode="M" horiz-adv-x="881" 
d="M424 152l362 548h130l-175 -700h-124l171 684l-454 -694h-4l-129 694l-170 -684h-12l175 700h125z" />
    <glyph glyph-name="N" unicode="N" horiz-adv-x="742" 
d="M625 145l139 555h11l-176 -710h-4l-426 568l-139 -559h-11l177 711h4z" />
    <glyph glyph-name="Ntilde" unicode="&#xd1;" horiz-adv-x="742" 
d="M573 761c-59 0 -104 87 -157 87c-34 0 -61 -28 -83 -90h-9c26 88 76 149 139 149c62 0 105 -87 158 -87c33 0 60 29 82 90h9c-26 -88 -76 -149 -139 -149zM625 145l139 555h11l-176 -710h-4l-426 568l-139 -559h-11l177 711h4z" />
    <glyph glyph-name="Nacute" unicode="&#x143;" horiz-adv-x="742" 
d="M577 924h115l-213 -179h-4zM625 145l139 555h11l-176 -710h-4l-426 568l-139 -559h-11l177 711h4z" />
    <glyph glyph-name="uni0145" unicode="&#x145;" horiz-adv-x="742" 
d="M625 145l139 555h11l-176 -710h-4l-426 568l-139 -559h-11l177 711h4zM208 -166l28 114h126l-29 -115c-16 -62 -68 -115 -166 -103l3 10c92 -11 138 34 153 94h-115z" />
    <glyph glyph-name="Ncaron" unicode="&#x147;" horiz-adv-x="742" 
d="M496 737h-2l-111 195h93l77 -130l143 130h13zM625 145l139 555h11l-176 -710h-4l-426 568l-139 -559h-11l177 711h4z" />
    <glyph glyph-name="O" unicode="O" horiz-adv-x="776" 
d="M486 710c151 0 290 -110 290 -293c0 -220 -187 -427 -434 -427c-151 0 -290 110 -290 293c0 220 188 427 434 427zM486 700c-111 0 -196 -91 -249 -214c-40 -97 -62 -207 -62 -294c0 -139 75 -192 167 -192c112 0 196 91 249 214c40 97 62 207 62 294
c0 139 -75 192 -167 192z" />
    <glyph glyph-name="Ograve" unicode="&#xd2;" horiz-adv-x="776" 
d="M525 745l-124 179h111l17 -179h-4zM486 710c151 0 290 -110 290 -293c0 -220 -187 -427 -434 -427c-151 0 -290 110 -290 293c0 220 188 427 434 427zM486 700c-111 0 -196 -91 -249 -214c-40 -97 -62 -207 -62 -294c0 -139 75 -192 167 -192c112 0 196 91 249 214
c40 97 62 207 62 294c0 139 -75 192 -167 192z" />
    <glyph glyph-name="Oacute" unicode="&#xd3;" horiz-adv-x="776" 
d="M594 924h115l-213 -179h-4zM486 710c151 0 290 -110 290 -293c0 -220 -187 -427 -434 -427c-151 0 -290 110 -290 293c0 220 188 427 434 427zM486 700c-111 0 -196 -91 -249 -214c-40 -97 -62 -207 -62 -294c0 -139 75 -192 167 -192c112 0 196 91 249 214
c40 97 62 207 62 294c0 139 -75 192 -167 192z" />
    <glyph glyph-name="Ocircumflex" unicode="&#xd4;" horiz-adv-x="776" 
d="M587 741l-76 130l-143 -130h-13l213 194h2l111 -194h-94zM486 710c151 0 290 -110 290 -293c0 -220 -187 -427 -434 -427c-151 0 -290 110 -290 293c0 220 188 427 434 427zM486 700c-111 0 -196 -91 -249 -214c-40 -97 -62 -207 -62 -294c0 -139 75 -192 167 -192
c112 0 196 91 249 214c40 97 62 207 62 294c0 139 -75 192 -167 192z" />
    <glyph glyph-name="Otilde" unicode="&#xd5;" horiz-adv-x="776" 
d="M590 761c-59 0 -104 87 -157 87c-34 0 -61 -28 -83 -90h-9c26 88 76 149 139 149c62 0 105 -87 158 -87c33 0 60 29 82 90h9c-26 -88 -76 -149 -139 -149zM486 710c151 0 290 -110 290 -293c0 -220 -187 -427 -434 -427c-151 0 -290 110 -290 293c0 220 188 427 434 427z
M486 700c-111 0 -196 -91 -249 -214c-40 -97 -62 -207 -62 -294c0 -139 75 -192 167 -192c112 0 196 91 249 214c40 97 62 207 62 294c0 139 -75 192 -167 192z" />
    <glyph glyph-name="Odieresis" unicode="&#xd6;" horiz-adv-x="776" 
d="M549 754l32 129h97l-32 -129h-97zM385 754l32 129h97l-32 -129h-97zM486 710c151 0 290 -110 290 -293c0 -220 -187 -427 -434 -427c-151 0 -290 110 -290 293c0 220 188 427 434 427zM486 700c-111 0 -196 -91 -249 -214c-40 -97 -62 -207 -62 -294
c0 -139 75 -192 167 -192c112 0 196 91 249 214c40 97 62 207 62 294c0 139 -75 192 -167 192z" />
    <glyph glyph-name="Omacron" unicode="&#x14c;" horiz-adv-x="776" 
d="M666 786h-287l3 10h287zM486 710c151 0 290 -110 290 -293c0 -220 -187 -427 -434 -427c-151 0 -290 110 -290 293c0 220 188 427 434 427zM486 700c-111 0 -196 -91 -249 -214c-40 -97 -62 -207 -62 -294c0 -139 75 -192 167 -192c112 0 196 91 249 214
c40 97 62 207 62 294c0 139 -75 192 -167 192z" />
    <glyph glyph-name="Obreve" unicode="&#x14e;" horiz-adv-x="776" 
d="M709 928c-27 -107 -104 -182 -193 -182s-132 75 -105 182h6c-13 -74 19 -109 115 -109s145 35 170 109h7zM486 710c151 0 290 -110 290 -293c0 -220 -187 -427 -434 -427c-151 0 -290 110 -290 293c0 220 188 427 434 427zM486 700c-111 0 -196 -91 -249 -214
c-40 -97 -62 -207 -62 -294c0 -139 75 -192 167 -192c112 0 196 91 249 214c40 97 62 207 62 294c0 139 -75 192 -167 192z" />
    <glyph glyph-name="Ohungarumlaut" unicode="&#x150;" horiz-adv-x="776" 
d="M669 924h106l-205 -179h-4zM505 924h107l-206 -179h-4zM486 710c151 0 290 -110 290 -293c0 -220 -187 -427 -434 -427c-151 0 -290 110 -290 293c0 220 188 427 434 427zM486 700c-111 0 -196 -91 -249 -214c-40 -97 -62 -207 -62 -294c0 -139 75 -192 167 -192
c112 0 196 91 249 214c40 97 62 207 62 294c0 139 -75 192 -167 192z" />
    <glyph glyph-name="P" unicode="P" horiz-adv-x="679" 
d="M383 304h-163l-76 -304h-125l175 700h288c135 0 239 -51 239 -158c0 -174 -167 -238 -338 -238zM223 315h121c138 0 249 82 249 246c0 85 -51 128 -154 128h-123z" />
    <glyph glyph-name="Q" unicode="Q" horiz-adv-x="775" 
d="M500 -162c-82 0 -137 59 -154 152h-4c-151 0 -290 110 -290 293c0 220 188 427 434 427c151 0 290 -110 290 -293c0 -215 -179 -418 -418 -427c16 -94 72 -142 144 -142c66 0 119 41 140 109l11 -1c-20 -73 -81 -118 -153 -118zM486 700c-111 0 -196 -91 -249 -214
c-40 -97 -62 -207 -62 -294c0 -139 75 -192 167 -192c112 0 196 91 249 214c40 97 62 207 62 294c0 139 -75 192 -167 192z" />
    <glyph glyph-name="R" unicode="R" horiz-adv-x="726" 
d="M316 689l-88 -353h141c133 0 237 76 237 228c0 86 -52 125 -145 125h-145zM225 325l-81 -325h-125l175 700h301c143 0 238 -47 238 -151c0 -159 -170 -217 -285 -219v-2c97 -5 149 -42 158 -119l12 -102c4 -42 10 -76 31 -107h-133c-14 30 -18 63 -20 96l-11 104
c-7 88 -38 125 -136 125h-124z" />
    <glyph glyph-name="Racute" unicode="&#x154;" horiz-adv-x="726" 
d="M549 924h115l-213 -179h-4zM316 689l-88 -353h141c133 0 237 76 237 228c0 86 -52 125 -145 125h-145zM225 325l-81 -325h-125l175 700h301c143 0 238 -47 238 -151c0 -159 -170 -217 -285 -219v-2c97 -5 149 -42 158 -119l12 -102c4 -42 10 -76 31 -107h-133
c-14 30 -18 63 -20 96l-11 104c-7 88 -38 125 -136 125h-124z" />
    <glyph glyph-name="uni0156" unicode="&#x156;" horiz-adv-x="726" 
d="M316 689l-88 -353h141c133 0 237 76 237 228c0 86 -52 125 -145 125h-145zM225 325l-81 -325h-125l175 700h301c143 0 238 -47 238 -151c0 -159 -170 -217 -285 -219v-2c97 -5 149 -42 158 -119l12 -102c4 -42 10 -76 31 -107h-133c-14 30 -18 63 -20 96l-11 104
c-7 88 -38 125 -136 125h-124zM204 -166l28 114h126l-29 -115c-16 -62 -68 -115 -166 -103l3 10c92 -11 138 34 153 94h-115z" />
    <glyph glyph-name="Rcaron" unicode="&#x158;" horiz-adv-x="726" 
d="M468 737h-2l-111 195h93l77 -130l143 130h13zM316 689l-88 -353h141c133 0 237 76 237 228c0 86 -52 125 -145 125h-145zM225 325l-81 -325h-125l175 700h301c143 0 238 -47 238 -151c0 -159 -170 -217 -285 -219v-2c97 -5 149 -42 158 -119l12 -102
c4 -42 10 -76 31 -107h-133c-14 30 -18 63 -20 96l-11 104c-7 88 -38 125 -136 125h-124z" />
    <glyph glyph-name="S" unicode="S" horiz-adv-x="610" 
d="M274 0c116 0 203 63 203 170c0 60 -38 92 -113 119l-108 39c-79 29 -141 76 -141 160c0 128 111 222 266 222c137 0 219 -64 240 -159l-11 -4c-19 93 -97 153 -229 153c-110 0 -182 -58 -182 -139c0 -69 53 -95 113 -119l116 -44c86 -32 137 -76 137 -159
c0 -153 -134 -249 -291 -249c-140 0 -248 72 -275 175l11 5c27 -104 132 -170 264 -170z" />
    <glyph glyph-name="Sacute" unicode="&#x15a;" horiz-adv-x="610" 
d="M498 924h115l-213 -179h-4zM274 0c116 0 203 63 203 170c0 60 -38 92 -113 119l-108 39c-79 29 -141 76 -141 160c0 128 111 222 266 222c137 0 219 -64 240 -159l-11 -4c-19 93 -97 153 -229 153c-110 0 -182 -58 -182 -139c0 -69 53 -95 113 -119l116 -44
c86 -32 137 -76 137 -159c0 -153 -134 -249 -291 -249c-140 0 -248 72 -275 175l11 5c27 -104 132 -170 264 -170z" />
    <glyph glyph-name="Scircumflex" unicode="&#x15c;" horiz-adv-x="610" 
d="M499 741l-76 130l-143 -130h-13l213 194h2l111 -194h-94zM274 0c116 0 203 63 203 170c0 60 -38 92 -113 119l-108 39c-79 29 -141 76 -141 160c0 128 111 222 266 222c137 0 219 -64 240 -159l-11 -4c-19 93 -97 153 -229 153c-110 0 -182 -58 -182 -139
c0 -69 53 -95 113 -119l116 -44c86 -32 137 -76 137 -159c0 -153 -134 -249 -291 -249c-140 0 -248 72 -275 175l11 5c27 -104 132 -170 264 -170z" />
    <glyph glyph-name="uni015E" unicode="&#x15e;" horiz-adv-x="610" 
d="M202 -227c-54 0 -85 26 -95 59l9 5c9 -31 34 -49 67 -49c47 0 79 42 79 92c0 33 -23 47 -75 47l45 65c-119 13 -209 81 -233 173l11 5c27 -104 132 -170 264 -170c116 0 203 63 203 170c0 60 -38 92 -113 119l-108 39c-79 29 -141 76 -141 160c0 128 111 222 266 222
c137 0 219 -64 240 -159l-11 -4c-19 93 -97 153 -229 153c-110 0 -182 -58 -182 -139c0 -69 53 -95 113 -119l116 -44c86 -32 137 -76 137 -159c0 -153 -134 -249 -291 -249c-11 0 -23 0 -34 1l-38 -56c68 0 122 -21 122 -69c0 -52 -53 -93 -122 -93z" />
    <glyph glyph-name="Scaron" unicode="&#x160;" horiz-adv-x="610" 
d="M417 737h-2l-111 195h93l77 -130l143 130h13zM274 0c116 0 203 63 203 170c0 60 -38 92 -113 119l-108 39c-79 29 -141 76 -141 160c0 128 111 222 266 222c137 0 219 -64 240 -159l-11 -4c-19 93 -97 153 -229 153c-110 0 -182 -58 -182 -139c0 -69 53 -95 113 -119
l116 -44c86 -32 137 -76 137 -159c0 -153 -134 -249 -291 -249c-140 0 -248 72 -275 175l11 5c27 -104 132 -170 264 -170z" />
    <glyph glyph-name="uni0218" unicode="&#x218;" horiz-adv-x="610" 
d="M274 0c116 0 203 63 203 170c0 60 -38 92 -113 119l-108 39c-79 29 -141 76 -141 160c0 128 111 222 266 222c137 0 219 -64 240 -159l-11 -4c-19 93 -97 153 -229 153c-110 0 -182 -58 -182 -139c0 -69 53 -95 113 -119l116 -44c86 -32 137 -76 137 -159
c0 -153 -134 -249 -291 -249c-140 0 -248 72 -275 175l11 5c27 -104 132 -170 264 -170zM157 -166l28 114h126l-29 -115c-16 -62 -68 -115 -166 -103l3 10c92 -11 138 34 153 94h-115z" />
    <glyph glyph-name="T" unicode="T" horiz-adv-x="721" 
d="M236 0l172 689h-283l2 11h694l-3 -11h-284l-172 -689h-126z" />
    <glyph glyph-name="Tcommaaccent" unicode="&#x162;" horiz-adv-x="721" 
d="M238 -225c-54 0 -85 26 -95 59l9 5c9 -31 34 -49 67 -49c47 0 79 42 79 92c0 33 -23 47 -75 47l49 71h-36l172 689h-283l2 11h694l-3 -11h-284l-172 -689h-81l-43 -63c68 0 122 -21 122 -69c0 -52 -53 -93 -122 -93z" />
    <glyph glyph-name="Tcaron" unicode="&#x164;" horiz-adv-x="721" 
d="M485 737h-2l-111 195h93l77 -130l143 130h13zM236 0l172 689h-283l2 11h694l-3 -11h-284l-172 -689h-126z" />
    <glyph glyph-name="uni021A" unicode="&#x21a;" horiz-adv-x="721" 
d="M236 0l172 689h-283l2 11h694l-3 -11h-284l-172 -689h-126zM199 -166l28 114h126l-29 -115c-16 -62 -68 -115 -166 -103l3 10c92 -11 138 34 153 94h-115z" />
    <glyph glyph-name="U" unicode="U" horiz-adv-x="724" 
d="M761 700h11l-105 -419c-46 -186 -165 -291 -342 -291c-186 0 -293 120 -248 297l103 413h126l-103 -408c-41 -167 24 -270 171 -270c139 0 241 96 283 263z" />
    <glyph glyph-name="Ugrave" unicode="&#xd9;" horiz-adv-x="724" 
d="M528 745l-124 179h111l17 -179h-4zM761 700h11l-105 -419c-46 -186 -165 -291 -342 -291c-186 0 -293 120 -248 297l103 413h126l-103 -408c-41 -167 24 -270 171 -270c139 0 241 96 283 263z" />
    <glyph glyph-name="Uacute" unicode="&#xda;" horiz-adv-x="724" 
d="M598 924h115l-213 -179h-4zM761 700h11l-105 -419c-46 -186 -165 -291 -342 -291c-186 0 -293 120 -248 297l103 413h126l-103 -408c-41 -167 24 -270 171 -270c139 0 241 96 283 263z" />
    <glyph glyph-name="Ucircumflex" unicode="&#xdb;" horiz-adv-x="724" 
d="M598 741l-76 130l-143 -130h-13l213 194h2l111 -194h-94zM761 700h11l-105 -419c-46 -186 -165 -291 -342 -291c-186 0 -293 120 -248 297l103 413h126l-103 -408c-41 -167 24 -270 171 -270c139 0 241 96 283 263z" />
    <glyph glyph-name="Udieresis" unicode="&#xdc;" horiz-adv-x="724" 
d="M552 754l32 129h97l-32 -129h-97zM388 754l32 129h97l-32 -129h-97zM761 700h11l-105 -419c-46 -186 -165 -291 -342 -291c-186 0 -293 120 -248 297l103 413h126l-103 -408c-41 -167 24 -270 171 -270c139 0 241 96 283 263z" />
    <glyph glyph-name="Utilde" unicode="&#x168;" horiz-adv-x="724" 
d="M593 761c-59 0 -104 87 -157 87c-34 0 -61 -28 -83 -90h-9c26 88 76 149 139 149c62 0 105 -87 158 -87c33 0 60 29 82 90h9c-26 -88 -76 -149 -139 -149zM761 700h11l-105 -419c-46 -186 -165 -291 -342 -291c-186 0 -293 120 -248 297l103 413h126l-103 -408
c-41 -167 24 -270 171 -270c139 0 241 96 283 263z" />
    <glyph glyph-name="Umacron" unicode="&#x16a;" horiz-adv-x="724" 
d="M670 786h-287l3 10h287zM761 700h11l-105 -419c-46 -186 -165 -291 -342 -291c-186 0 -293 120 -248 297l103 413h126l-103 -408c-41 -167 24 -270 171 -270c139 0 241 96 283 263z" />
    <glyph glyph-name="Ubreve" unicode="&#x16c;" horiz-adv-x="724" 
d="M713 928c-27 -107 -104 -182 -193 -182s-132 75 -105 182h6c-13 -74 19 -109 115 -109s145 35 170 109h7zM761 700h11l-105 -419c-46 -186 -165 -291 -342 -291c-186 0 -293 120 -248 297l103 413h126l-103 -408c-41 -167 24 -270 171 -270c139 0 241 96 283 263z" />
    <glyph glyph-name="Uring" unicode="&#x16e;" horiz-adv-x="724" 
d="M441 807c0 59 51 101 103 101c47 0 82 -35 82 -80c0 -60 -51 -101 -104 -101c-46 0 -81 35 -81 80zM616 828c0 39 -31 70 -72 70c-47 0 -93 -38 -93 -91c0 -39 31 -70 71 -70c48 0 94 37 94 91zM761 700h11l-105 -419c-46 -186 -165 -291 -342 -291
c-186 0 -293 120 -248 297l103 413h126l-103 -408c-41 -167 24 -270 171 -270c139 0 241 96 283 263z" />
    <glyph glyph-name="Uhungarumlaut" unicode="&#x170;" horiz-adv-x="724" 
d="M684 924h106l-205 -179h-4zM520 924h107l-206 -179h-4zM761 700h11l-105 -419c-46 -186 -165 -291 -342 -291c-186 0 -293 120 -248 297l103 413h126l-103 -408c-41 -167 24 -270 171 -270c139 0 241 96 283 263z" />
    <glyph glyph-name="Uogonek" unicode="&#x172;" horiz-adv-x="724" 
d="M308 -225c-49 0 -88 30 -88 72c0 56 67 98 165 147c-20 -3 -39 -4 -60 -4c-186 0 -293 120 -248 297l103 413h126l-103 -408c-41 -167 24 -270 171 -270c139 0 241 96 283 263l104 415h11l-105 -419c-38 -155 -127 -253 -257 -282c-85 -48 -125 -90 -125 -150
c0 -34 19 -56 49 -56c44 0 80 29 107 79l7 -4c-35 -64 -85 -93 -140 -93z" />
    <glyph glyph-name="V" unicode="V" horiz-adv-x="684" 
d="M286 -10h-4l-155 710h128l118 -567l399 567h13z" />
    <glyph glyph-name="W" unicode="W" horiz-adv-x="964" 
d="M532 477l-319 -487h-4l-82 710h126l54 -547l223 341l-22 206h126l48 -552l371 552h13l-477 -710h-4z" />
    <glyph glyph-name="Wcircumflex" unicode="&#x174;" horiz-adv-x="964" 
d="M673 741l-76 130l-143 -130h-13l213 194h2l111 -194h-94zM532 477l-319 -487h-4l-82 710h126l54 -547l223 341l-22 206h126l48 -552l371 552h13l-477 -710h-4z" />
    <glyph glyph-name="Wgrave" unicode="&#x1e80;" horiz-adv-x="964" 
d="M603 745l-124 179h111l17 -179h-4zM532 477l-319 -487h-4l-82 710h126l54 -547l223 341l-22 206h126l48 -552l371 552h13l-477 -710h-4z" />
    <glyph glyph-name="Wacute" unicode="&#x1e82;" horiz-adv-x="964" 
d="M672 924h115l-213 -179h-4zM532 477l-319 -487h-4l-82 710h126l54 -547l223 341l-22 206h126l48 -552l371 552h13l-477 -710h-4z" />
    <glyph glyph-name="Wdieresis" unicode="&#x1e84;" horiz-adv-x="964" 
d="M627 754l32 129h97l-32 -129h-97zM463 754l32 129h97l-32 -129h-97zM532 477l-319 -487h-4l-82 710h126l54 -547l223 341l-22 206h126l48 -552l371 552h13l-477 -710h-4z" />
    <glyph glyph-name="X" unicode="X" horiz-adv-x="684" 
d="M-33 0h-15l357 350l-167 350h134l136 -285l288 285h16l-299 -295l193 -405h-134l-162 339z" />
    <glyph glyph-name="Y" unicode="Y" horiz-adv-x="657" 
d="M404 323l340 377h14l-348 -387l-79 -313h-127l78 309l-155 391h133z" />
    <glyph glyph-name="Yacute" unicode="&#xdd;" horiz-adv-x="657" 
d="M555 924h115l-213 -179h-4zM404 323l340 377h14l-348 -387l-79 -313h-127l78 309l-155 391h133z" />
    <glyph glyph-name="Ycircumflex" unicode="&#x176;" horiz-adv-x="657" 
d="M555 741l-76 130l-143 -130h-13l213 194h2l111 -194h-94zM404 323l340 377h14l-348 -387l-79 -313h-127l78 309l-155 391h133z" />
    <glyph glyph-name="Ydieresis" unicode="&#x178;" horiz-adv-x="657" 
d="M509 754l32 129h97l-32 -129h-97zM345 754l32 129h97l-32 -129h-97zM404 323l340 377h14l-348 -387l-79 -313h-127l78 309l-155 391h133z" />
    <glyph glyph-name="Ygrave" unicode="&#x1ef2;" horiz-adv-x="657" 
d="M485 745l-124 179h111l17 -179h-4zM404 323l340 377h14l-348 -387l-79 -313h-127l78 309l-155 391h133z" />
    <glyph glyph-name="Z" unicode="Z" horiz-adv-x="673" 
d="M577 11l-2 -11h-606l1 4l620 685h-419l2 11h571l-1 -4l-616 -685h450z" />
    <glyph glyph-name="Zacute" unicode="&#x179;" horiz-adv-x="673" 
d="M537 924h115l-213 -179h-4zM577 11l-2 -11h-606l1 4l620 685h-419l2 11h571l-1 -4l-616 -685h450z" />
    <glyph glyph-name="Zdotaccent" unicode="&#x17b;" horiz-adv-x="673" 
d="M397 754l32 129h122l-32 -129h-122zM577 11l-2 -11h-606l1 4l620 685h-419l2 11h571l-1 -4l-616 -685h450z" />
    <glyph glyph-name="Zcaron" unicode="&#x17d;" horiz-adv-x="673" 
d="M455 737h-2l-111 195h93l77 -130l143 130h13zM577 11l-2 -11h-606l1 4l620 685h-419l2 11h571l-1 -4l-616 -685h450z" />
    <glyph glyph-name="AE" unicode="&#xc6;" horiz-adv-x="1069" 
d="M541 313l95 379l-366 -379h271zM463 0l76 302h-280l-292 -302h-15l678 700h505l-3 -11h-374l-81 -322h275l-3 -11h-275l-85 -345h390l-3 -11h-513z" />
    <glyph glyph-name="AEacute" unicode="&#x1fc;" horiz-adv-x="1069" 
d="M935 924h115l-213 -179h-4zM541 313l95 379l-366 -379h271zM463 0l76 302h-280l-292 -302h-15l678 700h505l-3 -11h-374l-81 -322h275l-3 -11h-275l-85 -345h390l-3 -11h-513z" />
    <glyph glyph-name="Eth" unicode="&#xd0;" horiz-adv-x="776" 
d="M290 0h-254l89 356h-69l2 11h70l83 333h224c215 0 344 -103 344 -267c0 -265 -227 -433 -489 -433zM164 11h114c245 0 374 225 374 462c0 137 -71 216 -231 216h-88l-80 -322h164l-2 -11h-165z" />
    <glyph glyph-name="Oslash" unicode="&#xd8;" horiz-adv-x="776" 
d="M175 192c0 -39 6 -72 17 -98l440 522c-29 59 -83 84 -146 84c-111 0 -196 -91 -249 -214c-40 -97 -62 -207 -62 -294zM342 0c112 0 196 91 249 214c40 97 62 207 62 294c0 38 -6 70 -16 96l-441 -521c29 -59 84 -83 146 -83zM342 -10c-64 0 -126 20 -176 57l-57 -67l-8 7
l56 66c-63 51 -105 129 -105 230c0 220 188 427 434 427c65 0 127 -20 177 -57l57 67l9 -7l-57 -67c62 -51 104 -129 104 -229c0 -220 -187 -427 -434 -427z" />
    <glyph glyph-name="Oslashacute" unicode="&#x1fe;" horiz-adv-x="776" 
d="M594 924h115l-213 -179h-4zM175 192c0 -39 6 -72 17 -98l440 522c-29 59 -83 84 -146 84c-111 0 -196 -91 -249 -214c-40 -97 -62 -207 -62 -294zM342 0c112 0 196 91 249 214c40 97 62 207 62 294c0 38 -6 70 -16 96l-441 -521c29 -59 84 -83 146 -83zM342 -10
c-64 0 -126 20 -176 57l-57 -67l-8 7l56 66c-63 51 -105 129 -105 230c0 220 188 427 434 427c65 0 127 -20 177 -57l57 67l9 -7l-57 -67c62 -51 104 -129 104 -229c0 -220 -187 -427 -434 -427z" />
    <glyph glyph-name="Thorn" unicode="&#xde;" horiz-adv-x="677" 
d="M145 0h-126l175 700h125l-30 -122h161c135 0 239 -51 239 -158c0 -173 -167 -238 -338 -238h-161zM407 567h-121l-93 -374h120c138 0 248 82 248 246c0 86 -50 128 -154 128z" />
    <glyph glyph-name="Dcroat" unicode="&#x110;" horiz-adv-x="776" 
d="M290 0h-254l89 356h-69l2 11h70l83 333h224c215 0 344 -103 344 -267c0 -265 -227 -433 -489 -433zM164 11h114c245 0 374 225 374 462c0 137 -71 216 -231 216h-88l-80 -322h164l-2 -11h-165z" />
    <glyph glyph-name="Hbar" unicode="&#x126;" horiz-adv-x="833" 
d="M233 293h390l41 165h-390zM230 282l-70 -282h-125l115 458h-69l2 11h69l58 231h125l-58 -231h390l58 231h125l-58 -231h68l-2 -11h-68l-115 -458h-125l70 282h-390z" />
    <glyph glyph-name="Ldot" unicode="&#x13f;" horiz-adv-x="604" 
d="M19 0l175 700h125l-172 -689h370l-3 -11h-495zM388 287l32 127h118l-31 -127h-119z" />
    <glyph glyph-name="Lslash" unicode="&#x141;" horiz-adv-x="622" 
d="M531 0h-495l64 256l-81 -42l3 14l81 42l108 430h125l-92 -370l175 90l-4 -14l-175 -89l-76 -306h370z" />
    <glyph glyph-name="Eng" unicode="&#x14a;" horiz-adv-x="741" 
d="M418 -215c90 0 139 86 172 214l-421 559l-139 -559h-11l177 711h4l425 -565l139 555h11l-178 -715c-31 -122 -87 -210 -179 -210c-49 0 -93 35 -93 87c0 18 6 44 24 60l8 -3c-17 -21 -22 -41 -22 -57c0 -48 42 -77 83 -77z" />
    <glyph glyph-name="OE" unicode="&#x152;" horiz-adv-x="1104" 
d="M393 0c-215 0 -344 103 -344 267c0 265 227 433 489 433h632l-3 -11h-377l-81 -322h283l-3 -11h-283l-85 -345h393l-3 -11h-618zM550 689c-244 0 -374 -225 -374 -462c0 -137 72 -216 231 -216h88l169 678h-114z" />
    <glyph glyph-name="Tbar" unicode="&#x166;" horiz-adv-x="721" 
d="M574 356h-123l-89 -356h-126l89 356h-123l2 11h124l80 322h-283l2 11h694l-3 -11h-284l-80 -322h122z" />
    <glyph glyph-name="a" unicode="a" 
d="M353 75c0 6 1 20 9 46c-36 -71 -101 -131 -182 -131c-98 0 -158 75 -158 179c0 171 116 331 270 331c81 0 126 -61 128 -138l40 128h108l-102 -410c-2 -10 -4 -19 -4 -27c0 -22 11 -36 32 -36c28 0 55 22 75 66l7 -4c-28 -60 -73 -89 -130 -89c-59 0 -93 36 -93 85z
M372 165l31 125c5 23 9 45 9 67c0 63 -32 109 -88 109c-108 0 -185 -172 -185 -327c-1 -71 22 -118 80 -118c65 0 126 68 153 144z" />
    <glyph glyph-name="agrave" unicode="&#xe0;" 
d="M370 553l-120 196h108l16 -196h-4zM353 75c0 6 1 20 9 46c-36 -71 -101 -131 -182 -131c-98 0 -158 75 -158 179c0 171 116 331 270 331c81 0 126 -61 128 -138l40 128h108l-102 -410c-2 -10 -4 -19 -4 -27c0 -22 11 -36 32 -36c28 0 55 22 75 66l7 -4
c-28 -60 -73 -89 -130 -89c-59 0 -93 36 -93 85zM372 165l31 125c5 23 9 45 9 67c0 63 -32 109 -88 109c-108 0 -185 -172 -185 -327c-1 -71 22 -118 80 -118c65 0 126 68 153 144z" />
    <glyph glyph-name="aacute" unicode="&#xe1;" 
d="M450 749h112l-217 -196h-4zM353 75c0 6 1 20 9 46c-36 -71 -101 -131 -182 -131c-98 0 -158 75 -158 179c0 171 116 331 270 331c81 0 126 -61 128 -138l40 128h108l-102 -410c-2 -10 -4 -19 -4 -27c0 -22 11 -36 32 -36c28 0 55 22 75 66l7 -4c-28 -60 -73 -89 -130 -89
c-59 0 -93 36 -93 85zM372 165l31 125c5 23 9 45 9 67c0 63 -32 109 -88 109c-108 0 -185 -172 -185 -327c-1 -71 22 -118 80 -118c65 0 126 68 153 144z" />
    <glyph glyph-name="acircumflex" unicode="&#xe2;" 
d="M443 546l-75 143l-149 -143h-13l216 207h2l108 -207h-89zM353 75c0 6 1 20 9 46c-36 -71 -101 -131 -182 -131c-98 0 -158 75 -158 179c0 171 116 331 270 331c81 0 126 -61 128 -138l40 128h108l-102 -410c-2 -10 -4 -19 -4 -27c0 -22 11 -36 32 -36c28 0 55 22 75 66
l7 -4c-28 -60 -73 -89 -130 -89c-59 0 -93 36 -93 85zM372 165l31 125c5 23 9 45 9 67c0 63 -32 109 -88 109c-108 0 -185 -172 -185 -327c-1 -71 22 -118 80 -118c65 0 126 68 153 144z" />
    <glyph glyph-name="atilde" unicode="&#xe3;" 
d="M433 578c-58 0 -93 87 -145 87c-34 0 -61 -28 -83 -90h-9c26 88 76 149 139 149c62 0 93 -87 147 -87c32 0 59 28 81 90h9c-26 -88 -75 -149 -139 -149zM353 75c0 6 1 20 9 46c-36 -71 -101 -131 -182 -131c-98 0 -158 75 -158 179c0 171 116 331 270 331
c81 0 126 -61 128 -138l40 128h108l-102 -410c-2 -10 -4 -19 -4 -27c0 -22 11 -36 32 -36c28 0 55 22 75 66l7 -4c-28 -60 -73 -89 -130 -89c-59 0 -93 36 -93 85zM372 165l31 125c5 23 9 45 9 67c0 63 -32 109 -88 109c-108 0 -185 -172 -185 -327c-1 -71 22 -118 80 -118
c65 0 126 68 153 144z" />
    <glyph glyph-name="adieresis" unicode="&#xe4;" 
d="M402 589l32 127h95l-31 -127h-96zM238 589l32 127h95l-31 -127h-96zM353 75c0 6 1 20 9 46c-36 -71 -101 -131 -182 -131c-98 0 -158 75 -158 179c0 171 116 331 270 331c81 0 126 -61 128 -138l40 128h108l-102 -410c-2 -10 -4 -19 -4 -27c0 -22 11 -36 32 -36
c28 0 55 22 75 66l7 -4c-28 -60 -73 -89 -130 -89c-59 0 -93 36 -93 85zM372 165l31 125c5 23 9 45 9 67c0 63 -32 109 -88 109c-108 0 -185 -172 -185 -327c-1 -71 22 -118 80 -118c65 0 126 68 153 144z" />
    <glyph glyph-name="aring" unicode="&#xe5;" 
d="M293 646c0 59 51 101 103 101c47 0 82 -35 82 -81c0 -59 -51 -100 -104 -100c-46 0 -81 35 -81 80zM468 666c0 40 -31 71 -72 71c-47 0 -93 -38 -93 -91c0 -39 31 -70 71 -70c48 0 94 37 94 90zM353 75c0 6 1 20 9 46c-36 -71 -101 -131 -182 -131
c-98 0 -158 75 -158 179c0 171 116 331 270 331c81 0 126 -61 128 -138l40 128h108l-102 -410c-2 -10 -4 -19 -4 -27c0 -22 11 -36 32 -36c28 0 55 22 75 66l7 -4c-28 -60 -73 -89 -130 -89c-59 0 -93 36 -93 85zM372 165l31 125c5 23 9 45 9 67c0 63 -32 109 -88 109
c-108 0 -185 -172 -185 -327c-1 -71 22 -118 80 -118c65 0 126 68 153 144z" />
    <glyph glyph-name="amacron" unicode="&#x101;" 
d="M523 632h-288l3 10h288zM353 75c0 6 1 20 9 46c-36 -71 -101 -131 -182 -131c-98 0 -158 75 -158 179c0 171 116 331 270 331c81 0 126 -61 128 -138l40 128h108l-102 -410c-2 -10 -4 -19 -4 -27c0 -22 11 -36 32 -36c28 0 55 22 75 66l7 -4c-28 -60 -73 -89 -130 -89
c-59 0 -93 36 -93 85zM372 165l31 125c5 23 9 45 9 67c0 63 -32 109 -88 109c-108 0 -185 -172 -185 -327c-1 -71 22 -118 80 -118c65 0 126 68 153 144z" />
    <glyph glyph-name="abreve" unicode="&#x103;" 
d="M559 752c-28 -115 -100 -191 -194 -191c-90 0 -132 76 -104 191h6c-14 -82 18 -118 114 -118s147 36 172 118h6zM353 75c0 6 1 20 9 46c-36 -71 -101 -131 -182 -131c-98 0 -158 75 -158 179c0 171 116 331 270 331c81 0 126 -61 128 -138l40 128h108l-102 -410
c-2 -10 -4 -19 -4 -27c0 -22 11 -36 32 -36c28 0 55 22 75 66l7 -4c-28 -60 -73 -89 -130 -89c-59 0 -93 36 -93 85zM372 165l31 125c5 23 9 45 9 67c0 63 -32 109 -88 109c-108 0 -185 -172 -185 -327c-1 -71 22 -118 80 -118c65 0 126 68 153 144z" />
    <glyph glyph-name="aogonek" unicode="&#x105;" 
d="M396 -225c-49 0 -88 30 -88 72c0 55 65 96 159 144c-7 -1 -14 -1 -21 -1c-59 0 -93 36 -93 85c0 6 1 20 9 46c-36 -71 -101 -131 -182 -131c-98 0 -158 75 -158 179c0 171 116 331 270 331c81 0 126 -61 128 -138l40 128h108l-102 -410c-2 -10 -4 -19 -4 -27
c0 -22 11 -36 32 -36c28 0 55 22 75 66l7 -4c-18 -39 -44 -65 -76 -79c-86 -48 -127 -90 -127 -151c0 -34 19 -56 49 -56c44 0 80 29 107 79l7 -4c-35 -64 -85 -93 -140 -93zM372 165l31 125c5 23 9 45 9 67c0 63 -32 109 -88 109c-108 0 -185 -172 -185 -327
c-1 -71 22 -118 80 -118c65 0 126 68 153 144z" />
    <glyph glyph-name="b" unicode="b" horiz-adv-x="587" 
d="M161 127l-43 -127h-105l187 749h116l-96 -380c36 71 104 131 189 131c98 0 157 -72 157 -176c0 -170 -117 -334 -271 -334c-82 0 -133 61 -134 137zM209 324l-31 -124c-5 -23 -9 -46 -9 -67c1 -67 36 -111 92 -111c113 0 188 180 188 332c0 68 -21 115 -81 115
c-69 0 -132 -68 -159 -145z" />
    <glyph glyph-name="c" unicode="c" horiz-adv-x="475" 
d="M346 482c-127 0 -208 -171 -208 -328c0 -96 43 -146 110 -146c74 0 138 44 173 125l9 -4c-38 -87 -113 -139 -216 -139c-101 0 -189 76 -189 197c0 165 130 313 294 313c94 0 142 -50 142 -111c0 -52 -27 -83 -63 -100l-5 9c37 17 58 44 58 91c0 50 -34 93 -105 93z" />
    <glyph glyph-name="ccedilla" unicode="&#xe7;" horiz-adv-x="475" 
d="M149 -225c-54 0 -85 26 -95 59l9 5c9 -31 34 -49 67 -49c47 0 79 42 79 92c0 33 -23 47 -75 47l44 64c-85 16 -153 88 -153 194c0 165 130 313 294 313c94 0 142 -50 142 -111c0 -52 -27 -83 -63 -100l-5 9c37 17 58 44 58 91c0 50 -34 93 -105 93
c-127 0 -208 -171 -208 -328c0 -96 43 -146 110 -146c74 0 138 44 173 125l9 -4c-38 -87 -113 -139 -216 -139c-9 0 -19 1 -28 2l-37 -55c68 0 122 -21 122 -69c0 -52 -53 -93 -122 -93z" />
    <glyph glyph-name="cacute" unicode="&#x107;" horiz-adv-x="475" 
d="M434 749h112l-217 -196h-4zM346 482c-127 0 -208 -171 -208 -328c0 -96 43 -146 110 -146c74 0 138 44 173 125l9 -4c-38 -87 -113 -139 -216 -139c-101 0 -189 76 -189 197c0 165 130 313 294 313c94 0 142 -50 142 -111c0 -52 -27 -83 -63 -100l-5 9c37 17 58 44 58 91
c0 50 -34 93 -105 93z" />
    <glyph glyph-name="ccircumflex" unicode="&#x109;" horiz-adv-x="475" 
d="M418 546l-75 143l-149 -143h-13l216 207h2l108 -207h-89zM346 482c-127 0 -208 -171 -208 -328c0 -96 43 -146 110 -146c74 0 138 44 173 125l9 -4c-38 -87 -113 -139 -216 -139c-101 0 -189 76 -189 197c0 165 130 313 294 313c94 0 142 -50 142 -111
c0 -52 -27 -83 -63 -100l-5 9c37 17 58 44 58 91c0 50 -34 93 -105 93z" />
    <glyph glyph-name="cdotaccent" unicode="&#x10b;" horiz-adv-x="475" 
d="M294 589l32 127h118l-31 -127h-119zM346 482c-127 0 -208 -171 -208 -328c0 -96 43 -146 110 -146c74 0 138 44 173 125l9 -4c-38 -87 -113 -139 -216 -139c-101 0 -189 76 -189 197c0 165 130 313 294 313c94 0 142 -50 142 -111c0 -52 -27 -83 -63 -100l-5 9
c37 17 58 44 58 91c0 50 -34 93 -105 93z" />
    <glyph glyph-name="ccaron" unicode="&#x10d;" horiz-adv-x="475" 
d="M341 546h-2l-108 207h89l74 -143l150 143h13zM346 482c-127 0 -208 -171 -208 -328c0 -96 43 -146 110 -146c74 0 138 44 173 125l9 -4c-38 -87 -113 -139 -216 -139c-101 0 -189 76 -189 197c0 165 130 313 294 313c94 0 142 -50 142 -111c0 -52 -27 -83 -63 -100l-5 9
c37 17 58 44 58 91c0 50 -34 93 -105 93z" />
    <glyph glyph-name="d" unicode="d" horiz-adv-x="606" 
d="M359 75c0 6 2 20 9 46c-36 -71 -104 -131 -185 -131c-97 0 -162 74 -162 178c0 170 115 332 271 332c83 0 133 -61 134 -138l97 387h117l-168 -669c-2 -10 -4 -19 -4 -26c0 -23 12 -37 33 -37c27 0 54 22 75 66l7 -4c-28 -60 -73 -89 -130 -89c-60 0 -94 36 -94 85z
M379 165l31 125c5 22 9 45 9 66c0 67 -35 111 -94 111c-114 0 -187 -179 -187 -331c0 -68 26 -116 84 -116c66 0 130 69 157 145z" />
    <glyph glyph-name="dcaron" unicode="&#x10f;" horiz-adv-x="606" 
d="M857 749l-188 -217h-4l88 217h104zM359 75c0 6 2 20 9 46c-36 -71 -104 -131 -185 -131c-97 0 -162 74 -162 178c0 170 115 332 271 332c83 0 133 -61 134 -138l97 387h117l-168 -669c-2 -10 -4 -19 -4 -26c0 -23 12 -37 33 -37c27 0 54 22 75 66l7 -4
c-28 -60 -73 -89 -130 -89c-60 0 -94 36 -94 85zM379 165l31 125c5 22 9 45 9 66c0 67 -35 111 -94 111c-114 0 -187 -179 -187 -331c0 -68 26 -116 84 -116c66 0 130 69 157 145z" />
    <glyph glyph-name="e" unicode="e" horiz-adv-x="488" 
d="M222 -10c-106 0 -199 71 -199 191c0 168 143 319 312 319c96 0 149 -48 149 -109c0 -114 -164 -156 -342 -160c-4 -25 -6 -50 -6 -75c0 -98 49 -148 118 -148c73 0 145 39 184 124l9 -3c-40 -90 -124 -139 -225 -139zM333 490c-92 0 -166 -122 -189 -251
c156 6 256 61 256 181c0 44 -19 70 -67 70z" />
    <glyph glyph-name="egrave" unicode="&#xe8;" horiz-adv-x="488" 
d="M360 553l-120 196h108l16 -196h-4zM222 -10c-106 0 -199 71 -199 191c0 168 143 319 312 319c96 0 149 -48 149 -109c0 -114 -164 -156 -342 -160c-4 -25 -6 -50 -6 -75c0 -98 49 -148 118 -148c73 0 145 39 184 124l9 -3c-40 -90 -124 -139 -225 -139zM333 490
c-92 0 -166 -122 -189 -251c156 6 256 61 256 181c0 44 -19 70 -67 70z" />
    <glyph glyph-name="eacute" unicode="&#xe9;" horiz-adv-x="488" 
d="M440 749h112l-217 -196h-4zM222 -10c-106 0 -199 71 -199 191c0 168 143 319 312 319c96 0 149 -48 149 -109c0 -114 -164 -156 -342 -160c-4 -25 -6 -50 -6 -75c0 -98 49 -148 118 -148c73 0 145 39 184 124l9 -3c-40 -90 -124 -139 -225 -139zM333 490
c-92 0 -166 -122 -189 -251c156 6 256 61 256 181c0 44 -19 70 -67 70z" />
    <glyph glyph-name="ecircumflex" unicode="&#xea;" horiz-adv-x="488" 
d="M424 546l-75 143l-149 -143h-13l216 207h2l108 -207h-89zM222 -10c-106 0 -199 71 -199 191c0 168 143 319 312 319c96 0 149 -48 149 -109c0 -114 -164 -156 -342 -160c-4 -25 -6 -50 -6 -75c0 -98 49 -148 118 -148c73 0 145 39 184 124l9 -3
c-40 -90 -124 -139 -225 -139zM333 490c-92 0 -166 -122 -189 -251c156 6 256 61 256 181c0 44 -19 70 -67 70z" />
    <glyph glyph-name="edieresis" unicode="&#xeb;" horiz-adv-x="488" 
d="M387 589l32 127h95l-31 -127h-96zM223 589l32 127h95l-31 -127h-96zM222 -10c-106 0 -199 71 -199 191c0 168 143 319 312 319c96 0 149 -48 149 -109c0 -114 -164 -156 -342 -160c-4 -25 -6 -50 -6 -75c0 -98 49 -148 118 -148c73 0 145 39 184 124l9 -3
c-40 -90 -124 -139 -225 -139zM333 490c-92 0 -166 -122 -189 -251c156 6 256 61 256 181c0 44 -19 70 -67 70z" />
    <glyph glyph-name="emacron" unicode="&#x113;" horiz-adv-x="488" 
d="M509 632h-288l3 10h288zM222 -10c-106 0 -199 71 -199 191c0 168 143 319 312 319c96 0 149 -48 149 -109c0 -114 -164 -156 -342 -160c-4 -25 -6 -50 -6 -75c0 -98 49 -148 118 -148c73 0 145 39 184 124l9 -3c-40 -90 -124 -139 -225 -139zM333 490
c-92 0 -166 -122 -189 -251c156 6 256 61 256 181c0 44 -19 70 -67 70z" />
    <glyph glyph-name="ebreve" unicode="&#x115;" horiz-adv-x="488" 
d="M543 752c-28 -115 -100 -191 -194 -191c-90 0 -132 76 -104 191h6c-14 -82 18 -118 114 -118s147 36 172 118h6zM222 -10c-106 0 -199 71 -199 191c0 168 143 319 312 319c96 0 149 -48 149 -109c0 -114 -164 -156 -342 -160c-4 -25 -6 -50 -6 -75
c0 -98 49 -148 118 -148c73 0 145 39 184 124l9 -3c-40 -90 -124 -139 -225 -139zM333 490c-92 0 -166 -122 -189 -251c156 6 256 61 256 181c0 44 -19 70 -67 70z" />
    <glyph glyph-name="edotaccent" unicode="&#x117;" horiz-adv-x="488" 
d="M299 589l32 127h118l-31 -127h-119zM222 -10c-106 0 -199 71 -199 191c0 168 143 319 312 319c96 0 149 -48 149 -109c0 -114 -164 -156 -342 -160c-4 -25 -6 -50 -6 -75c0 -98 49 -148 118 -148c73 0 145 39 184 124l9 -3c-40 -90 -124 -139 -225 -139zM333 490
c-92 0 -166 -122 -189 -251c156 6 256 61 256 181c0 44 -19 70 -67 70z" />
    <glyph glyph-name="eogonek" unicode="&#x119;" horiz-adv-x="488" 
d="M195 -225c-49 0 -88 30 -88 72c0 56 67 98 164 147c-16 -3 -32 -4 -49 -4c-106 0 -199 71 -199 191c0 168 143 319 312 319c96 0 149 -48 149 -109c0 -114 -164 -156 -342 -160c-4 -25 -6 -50 -6 -75c0 -98 49 -148 118 -148c73 0 145 39 184 124l9 -3
c-29 -66 -82 -109 -147 -128c-87 -49 -128 -91 -128 -152c0 -34 19 -56 49 -56c44 0 80 29 107 79l7 -4c-35 -64 -85 -93 -140 -93zM333 490c-92 0 -166 -122 -189 -251c156 6 256 61 256 181c0 44 -19 70 -67 70z" />
    <glyph glyph-name="ecaron" unicode="&#x11b;" horiz-adv-x="488" 
d="M341 546h-2l-108 207h89l74 -143l150 143h13zM222 -10c-106 0 -199 71 -199 191c0 168 143 319 312 319c96 0 149 -48 149 -109c0 -114 -164 -156 -342 -160c-4 -25 -6 -50 -6 -75c0 -98 49 -148 118 -148c73 0 145 39 184 124l9 -3c-40 -90 -124 -139 -225 -139z
M333 490c-92 0 -166 -122 -189 -251c156 6 256 61 256 181c0 44 -19 70 -67 70z" />
    <glyph glyph-name="f" unicode="f" horiz-adv-x="309" 
d="M271 574l-20 -84h130l-5 -10h-127l-175 -695h-115l173 695h-72l3 10h72l16 65c31 118 110 204 230 204c78 0 115 -38 115 -92c0 -32 -14 -56 -38 -73l-6 7c23 16 34 39 34 66c0 44 -27 73 -80 73c-72 0 -109 -56 -135 -166z" />
    <glyph glyph-name="g" unicode="g" horiz-adv-x="586" 
d="M386 188l25 102c6 22 9 45 9 66c0 68 -35 111 -93 111c-114 0 -185 -174 -185 -322c0 -68 21 -116 82 -116c69 0 137 69 162 159zM342 18l30 112c-37 -72 -104 -131 -188 -131c-98 0 -159 68 -159 173c0 170 112 328 268 328c83 0 134 -61 135 -138l40 128h109l-109 -436
c-57 -208 -175 -279 -330 -279c-111 0 -182 53 -182 127c0 49 27 82 68 97l3 -9c-37 -13 -61 -44 -61 -88c0 -69 68 -113 150 -113c132 0 189 88 226 229z" />
    <glyph glyph-name="gcircumflex" unicode="&#x11d;" horiz-adv-x="586" 
d="M436 546l-75 143l-149 -143h-13l216 207h2l108 -207h-89zM386 188l25 102c6 22 9 45 9 66c0 68 -35 111 -93 111c-114 0 -185 -174 -185 -322c0 -68 21 -116 82 -116c69 0 137 69 162 159zM342 18l30 112c-37 -72 -104 -131 -188 -131c-98 0 -159 68 -159 173
c0 170 112 328 268 328c83 0 134 -61 135 -138l40 128h109l-109 -436c-57 -208 -175 -279 -330 -279c-111 0 -182 53 -182 127c0 49 27 82 68 97l3 -9c-37 -13 -61 -44 -61 -88c0 -69 68 -113 150 -113c132 0 189 88 226 229z" />
    <glyph glyph-name="gbreve" unicode="&#x11f;" horiz-adv-x="586" 
d="M551 752c-28 -115 -100 -191 -194 -191c-90 0 -132 76 -104 191h6c-14 -82 18 -118 114 -118s147 36 172 118h6zM386 188l25 102c6 22 9 45 9 66c0 68 -35 111 -93 111c-114 0 -185 -174 -185 -322c0 -68 21 -116 82 -116c69 0 137 69 162 159zM342 18l30 112
c-37 -72 -104 -131 -188 -131c-98 0 -159 68 -159 173c0 170 112 328 268 328c83 0 134 -61 135 -138l40 128h109l-109 -436c-57 -208 -175 -279 -330 -279c-111 0 -182 53 -182 127c0 49 27 82 68 97l3 -9c-37 -13 -61 -44 -61 -88c0 -69 68 -113 150 -113
c132 0 189 88 226 229z" />
    <glyph glyph-name="gdotaccent" unicode="&#x121;" horiz-adv-x="586" 
d="M302 589l32 127h118l-31 -127h-119zM386 188l25 102c6 22 9 45 9 66c0 68 -35 111 -93 111c-114 0 -185 -174 -185 -322c0 -68 21 -116 82 -116c69 0 137 69 162 159zM342 18l30 112c-37 -72 -104 -131 -188 -131c-98 0 -159 68 -159 173c0 170 112 328 268 328
c83 0 134 -61 135 -138l40 128h109l-109 -436c-57 -208 -175 -279 -330 -279c-111 0 -182 53 -182 127c0 49 27 82 68 97l3 -9c-37 -13 -61 -44 -61 -88c0 -69 68 -113 150 -113c132 0 189 88 226 229z" />
    <glyph glyph-name="uni0123" unicode="&#x123;" horiz-adv-x="586" 
d="M462 687l-29 -114h-126l29 114c16 63 68 116 165 104l-2 -10c-92 11 -138 -35 -152 -94h115zM386 188l25 102c6 22 9 45 9 66c0 68 -35 111 -93 111c-114 0 -185 -174 -185 -322c0 -68 21 -116 82 -116c69 0 137 69 162 159zM342 18l30 112c-37 -72 -104 -131 -188 -131
c-98 0 -159 68 -159 173c0 170 112 328 268 328c83 0 134 -61 135 -138l40 128h109l-109 -436c-57 -208 -175 -279 -330 -279c-111 0 -182 53 -182 127c0 49 27 82 68 97l3 -9c-37 -13 -61 -44 -61 -88c0 -69 68 -113 150 -113c132 0 189 88 226 229z" />
    <glyph glyph-name="h" unicode="h" horiz-adv-x="597" 
d="M207 313l-78 -313h-116l187 749h116l-95 -380c43 82 118 131 195 131s122 -48 122 -120c0 -16 -2 -33 -6 -51l-62 -249c-3 -10 -4 -19 -4 -27c0 -22 10 -36 32 -36c27 0 54 22 75 66l7 -4c-28 -60 -74 -89 -130 -89c-61 0 -93 36 -93 86c0 10 1 22 4 33l63 255
c5 18 7 36 7 51c0 36 -16 59 -57 59c-64 0 -141 -70 -167 -161z" />
    <glyph glyph-name="hcircumflex" unicode="&#x125;" horiz-adv-x="597" 
d="M497 781l-76 130l-143 -130h-13l213 194h2l111 -194h-94zM207 313l-78 -313h-116l187 749h116l-95 -380c43 82 118 131 195 131s122 -48 122 -120c0 -16 -2 -33 -6 -51l-62 -249c-3 -10 -4 -19 -4 -27c0 -22 10 -36 32 -36c27 0 54 22 75 66l7 -4
c-28 -60 -74 -89 -130 -89c-61 0 -93 36 -93 86c0 10 1 22 4 33l63 255c5 18 7 36 7 51c0 36 -16 59 -57 59c-64 0 -141 -70 -167 -161z" />
    <glyph glyph-name="i" unicode="i" horiz-adv-x="285" 
d="M155 589l31 127h119l-32 -127h-118zM248 490l-102 -410c-2 -10 -4 -19 -4 -27c0 -22 11 -36 33 -36c27 0 54 22 74 66l7 -4c-28 -60 -73 -89 -129 -89c-61 0 -94 36 -94 86c0 10 1 22 4 33l95 381h116z" />
    <glyph glyph-name="igrave" unicode="&#xec;" horiz-adv-x="285" 
d="M218 553l-120 196h108l16 -196h-4zM248 490l-102 -410c-2 -10 -4 -19 -4 -27c0 -22 11 -36 33 -36c27 0 54 22 74 66l7 -4c-28 -60 -73 -89 -129 -89c-61 0 -94 36 -94 86c0 10 1 22 4 33l95 381h116z" />
    <glyph glyph-name="iacute" unicode="&#xed;" horiz-adv-x="285" 
d="M298 749h112l-217 -196h-4zM248 490l-102 -410c-2 -10 -4 -19 -4 -27c0 -22 11 -36 33 -36c27 0 54 22 74 66l7 -4c-28 -60 -73 -89 -129 -89c-61 0 -94 36 -94 86c0 10 1 22 4 33l95 381h116z" />
    <glyph glyph-name="icircumflex" unicode="&#xee;" horiz-adv-x="285" 
d="M269 546l-51 138l-128 -138h-13l193 207h2l87 -207h-90zM248 490l-102 -410c-2 -10 -4 -19 -4 -27c0 -22 11 -36 33 -36c27 0 54 22 74 66l7 -4c-28 -60 -73 -89 -129 -89c-61 0 -94 36 -94 86c0 10 1 22 4 33l95 381h116z" />
    <glyph glyph-name="idieresis" unicode="&#xef;" horiz-adv-x="285" 
d="M251 589l32 127h95l-31 -127h-96zM87 589l32 127h95l-31 -127h-96zM248 490l-102 -410c-2 -10 -4 -19 -4 -27c0 -22 11 -36 33 -36c27 0 54 22 74 66l7 -4c-28 -60 -73 -89 -129 -89c-61 0 -94 36 -94 86c0 10 1 22 4 33l95 381h116z" />
    <glyph glyph-name="itilde" unicode="&#x129;" horiz-adv-x="285" 
d="M280 578c-51 0 -81 87 -121 87c-30 0 -53 -28 -71 -90h-9c23 88 67 149 125 149c54 0 81 -87 121 -87c30 0 52 28 71 90h9c-23 -88 -67 -149 -125 -149zM248 490l-102 -410c-2 -10 -4 -19 -4 -27c0 -22 11 -36 33 -36c27 0 54 22 74 66l7 -4c-28 -60 -73 -89 -129 -89
c-61 0 -94 36 -94 86c0 10 1 22 4 33l95 381h116z" />
    <glyph glyph-name="imacron" unicode="&#x12b;" horiz-adv-x="285" 
d="M353 632h-251l3 10h251zM248 490l-102 -410c-2 -10 -4 -19 -4 -27c0 -22 11 -36 33 -36c27 0 54 22 74 66l7 -4c-28 -60 -73 -89 -129 -89c-61 0 -94 36 -94 86c0 10 1 22 4 33l95 381h116z" />
    <glyph glyph-name="ibreve" unicode="&#x12d;" horiz-adv-x="285" 
d="M388 752c-25 -115 -86 -191 -171 -191c-81 0 -112 76 -82 191h6c-13 -82 6 -118 92 -118s126 36 150 118h5zM248 490l-102 -410c-2 -10 -4 -19 -4 -27c0 -22 11 -36 33 -36c27 0 54 22 74 66l7 -4c-28 -60 -73 -89 -129 -89c-61 0 -94 36 -94 86c0 10 1 22 4 33l95 381
h116z" />
    <glyph glyph-name="iogonek" unicode="&#x12f;" horiz-adv-x="285" 
d="M155 589l31 127h119l-32 -127h-118zM75 -225c-49 0 -88 30 -88 72c0 55 64 96 158 144c-6 -1 -12 -1 -18 -1c-61 0 -94 36 -94 86c0 10 1 22 4 33l95 381h116l-102 -410c-2 -10 -4 -19 -4 -27c0 -22 11 -36 33 -36c27 0 54 22 74 66l7 -4c-19 -41 -46 -68 -80 -80
c-84 -48 -124 -90 -124 -150c0 -34 19 -56 49 -56c44 0 80 29 107 79l7 -4c-35 -64 -85 -93 -140 -93z" />
    <glyph glyph-name="j" unicode="j" horiz-adv-x="267" 
d="M164 589l31 127h118l-31 -127h-118zM4 -61l137 551h116l-130 -524c-29 -117 -99 -191 -212 -191c-75 0 -117 38 -117 90c0 30 17 56 40 71l7 -7c-23 -14 -36 -37 -36 -64c0 -46 34 -72 76 -72c56 0 93 42 119 146z" />
    <glyph glyph-name="jcircumflex" unicode="&#x135;" horiz-adv-x="267" 
d="M275 546l-51 138l-128 -138h-13l193 207h2l86 -207h-89zM4 -61l137 551h116l-130 -524c-29 -117 -99 -191 -212 -191c-75 0 -117 38 -117 90c0 30 17 56 40 71l7 -7c-23 -14 -36 -37 -36 -64c0 -46 34 -72 76 -72c56 0 93 42 119 146z" />
    <glyph glyph-name="k" unicode="k" horiz-adv-x="556" 
d="M407 -10c-54 0 -88 30 -106 88l-61 156l-67 -51l-46 -183h-116l187 749h116l-137 -550l385 291h17l-251 -190l83 -213c15 -39 29 -57 54 -57c24 0 45 19 62 69l8 -3c-24 -70 -65 -106 -128 -106z" />
    <glyph glyph-name="uni0137" unicode="&#x137;" horiz-adv-x="556" 
d="M407 -10c-54 0 -88 30 -106 88l-61 156l-67 -51l-46 -183h-116l187 749h116l-137 -550l385 291h17l-251 -190l83 -213c15 -39 29 -57 54 -57c24 0 45 19 62 69l8 -3c-24 -70 -65 -106 -128 -106zM122 -166l28 114h126l-29 -115c-16 -62 -68 -115 -166 -103l3 10
c92 -11 138 34 153 94h-115z" />
    <glyph glyph-name="l" unicode="l" horiz-adv-x="287" 
d="M314 749l-167 -669c-2 -10 -4 -19 -4 -27c0 -22 11 -36 32 -36c28 0 55 22 75 66l7 -4c-28 -60 -73 -89 -130 -89c-61 0 -93 36 -93 86c0 10 1 22 4 33l160 640h116z" />
    <glyph glyph-name="lacute" unicode="&#x13a;" horiz-adv-x="287" 
d="M362 958h115l-213 -179h-4zM314 749l-167 -669c-2 -10 -4 -19 -4 -27c0 -22 11 -36 32 -36c28 0 55 22 75 66l7 -4c-28 -60 -73 -89 -130 -89c-61 0 -93 36 -93 86c0 10 1 22 4 33l160 640h116z" />
    <glyph glyph-name="uni013C" unicode="&#x13c;" horiz-adv-x="287" 
d="M314 749l-167 -669c-2 -10 -4 -19 -4 -27c0 -22 11 -36 32 -36c28 0 55 22 75 66l7 -4c-28 -60 -73 -89 -130 -89c-61 0 -93 36 -93 86c0 10 1 22 4 33l160 640h116zM21 -166l28 114h126l-29 -115c-16 -62 -68 -115 -166 -103l3 10c92 -11 138 34 153 94h-115z" />
    <glyph glyph-name="lcaron" unicode="&#x13e;" horiz-adv-x="287" 
d="M314 749l-167 -669c-2 -10 -4 -19 -4 -27c0 -22 11 -36 32 -36c28 0 55 22 75 66l7 -4c-28 -60 -73 -89 -130 -89c-61 0 -93 36 -93 86c0 10 1 22 4 33l160 640h116zM539 749l-188 -217h-4l88 217h104z" />
    <glyph glyph-name="m" unicode="m" horiz-adv-x="907" 
d="M842 329l-63 -249c-2 -10 -3 -19 -3 -27c0 -22 10 -36 32 -36c27 0 54 22 74 66l7 -4c-28 -60 -73 -89 -129 -89c-61 0 -94 36 -94 86c0 10 1 22 4 33l64 255c5 20 8 38 8 54c0 35 -15 56 -56 56c-63 0 -141 -70 -166 -171l-76 -303h-116l91 364c5 20 7 38 7 54
c0 35 -14 56 -55 56c-64 0 -142 -70 -167 -171l-75 -303h-116l122 490h113l-27 -121c42 82 114 131 192 131s125 -52 119 -136c40 81 114 136 196 136c76 0 121 -47 121 -119c0 -16 -3 -33 -7 -52z" />
    <glyph glyph-name="n" unicode="n" horiz-adv-x="597" 
d="M532 329l-62 -249c-3 -10 -4 -19 -4 -27c0 -22 10 -36 32 -36c27 0 54 22 75 66l7 -4c-28 -60 -74 -89 -130 -89c-61 0 -93 36 -93 86c0 10 1 22 4 33l63 255c5 18 7 36 7 51c0 36 -16 59 -57 59c-64 0 -141 -70 -167 -161l-78 -313h-116l122 490h113l-27 -121
c43 82 118 131 195 131s122 -48 122 -120c0 -16 -2 -33 -6 -51z" />
    <glyph glyph-name="ntilde" unicode="&#xf1;" horiz-adv-x="597" 
d="M445 578c-58 0 -93 87 -145 87c-34 0 -61 -28 -83 -90h-9c26 88 76 149 139 149c62 0 93 -87 147 -87c32 0 59 28 81 90h9c-26 -88 -75 -149 -139 -149zM532 329l-62 -249c-3 -10 -4 -19 -4 -27c0 -22 10 -36 32 -36c27 0 54 22 75 66l7 -4c-28 -60 -74 -89 -130 -89
c-61 0 -93 36 -93 86c0 10 1 22 4 33l63 255c5 18 7 36 7 51c0 36 -16 59 -57 59c-64 0 -141 -70 -167 -161l-78 -313h-116l122 490h113l-27 -121c43 82 118 131 195 131s122 -48 122 -120c0 -16 -2 -33 -6 -51z" />
    <glyph glyph-name="nacute" unicode="&#x144;" horiz-adv-x="597" 
d="M462 749h112l-217 -196h-4zM532 329l-62 -249c-3 -10 -4 -19 -4 -27c0 -22 10 -36 32 -36c27 0 54 22 75 66l7 -4c-28 -60 -74 -89 -130 -89c-61 0 -93 36 -93 86c0 10 1 22 4 33l63 255c5 18 7 36 7 51c0 36 -16 59 -57 59c-64 0 -141 -70 -167 -161l-78 -313h-116
l122 490h113l-27 -121c43 82 118 131 195 131s122 -48 122 -120c0 -16 -2 -33 -6 -51z" />
    <glyph glyph-name="uni0146" unicode="&#x146;" horiz-adv-x="597" 
d="M532 329l-62 -249c-3 -10 -4 -19 -4 -27c0 -22 10 -36 32 -36c27 0 54 22 75 66l7 -4c-28 -60 -74 -89 -130 -89c-61 0 -93 36 -93 86c0 10 1 22 4 33l63 255c5 18 7 36 7 51c0 36 -16 59 -57 59c-64 0 -141 -70 -167 -161l-78 -313h-116l122 490h113l-27 -121
c43 82 118 131 195 131s122 -48 122 -120c0 -16 -2 -33 -6 -51zM140 -166l28 114h126l-29 -115c-16 -62 -68 -115 -166 -103l3 10c92 -11 138 34 153 94h-115z" />
    <glyph glyph-name="ncaron" unicode="&#x148;" horiz-adv-x="597" 
d="M369 546h-2l-108 207h89l74 -143l150 143h13zM532 329l-62 -249c-3 -10 -4 -19 -4 -27c0 -22 10 -36 32 -36c27 0 54 22 75 66l7 -4c-28 -60 -74 -89 -130 -89c-61 0 -93 36 -93 86c0 10 1 22 4 33l63 255c5 18 7 36 7 51c0 36 -16 59 -57 59c-64 0 -141 -70 -167 -161
l-78 -313h-116l122 490h113l-27 -121c43 82 118 131 195 131s122 -48 122 -120c0 -16 -2 -33 -6 -51z" />
    <glyph glyph-name="o" unicode="o" horiz-adv-x="550" 
d="M25 189c0 169 134 311 299 311c118 0 200 -87 200 -199c0 -169 -134 -311 -299 -311c-118 0 -200 86 -200 199zM132 117c0 -77 32 -117 91 -117c71 0 119 74 153 170c27 74 41 148 41 203c0 76 -31 117 -91 117c-71 0 -118 -74 -153 -170c-26 -74 -41 -148 -41 -203z" />
    <glyph glyph-name="ograve" unicode="&#xf2;" horiz-adv-x="550" 
d="M362 553l-120 196h108l16 -196h-4zM25 189c0 169 134 311 299 311c118 0 200 -87 200 -199c0 -169 -134 -311 -299 -311c-118 0 -200 86 -200 199zM132 117c0 -77 32 -117 91 -117c71 0 119 74 153 170c27 74 41 148 41 203c0 76 -31 117 -91 117
c-71 0 -118 -74 -153 -170c-26 -74 -41 -148 -41 -203z" />
    <glyph glyph-name="oacute" unicode="&#xf3;" horiz-adv-x="550" 
d="M442 749h112l-217 -196h-4zM25 189c0 169 134 311 299 311c118 0 200 -87 200 -199c0 -169 -134 -311 -299 -311c-118 0 -200 86 -200 199zM132 117c0 -77 32 -117 91 -117c71 0 119 74 153 170c27 74 41 148 41 203c0 76 -31 117 -91 117c-71 0 -118 -74 -153 -170
c-26 -74 -41 -148 -41 -203z" />
    <glyph glyph-name="ocircumflex" unicode="&#xf4;" horiz-adv-x="550" 
d="M429 546l-75 143l-149 -143h-13l216 207h2l108 -207h-89zM25 189c0 169 134 311 299 311c118 0 200 -87 200 -199c0 -169 -134 -311 -299 -311c-118 0 -200 86 -200 199zM132 117c0 -77 32 -117 91 -117c71 0 119 74 153 170c27 74 41 148 41 203c0 76 -31 117 -91 117
c-71 0 -118 -74 -153 -170c-26 -74 -41 -148 -41 -203z" />
    <glyph glyph-name="otilde" unicode="&#xf5;" horiz-adv-x="550" 
d="M425 578c-58 0 -93 87 -145 87c-34 0 -61 -28 -83 -90h-9c26 88 76 149 139 149c62 0 93 -87 147 -87c32 0 59 28 81 90h9c-26 -88 -75 -149 -139 -149zM25 189c0 169 134 311 299 311c118 0 200 -87 200 -199c0 -169 -134 -311 -299 -311c-118 0 -200 86 -200 199z
M132 117c0 -77 32 -117 91 -117c71 0 119 74 153 170c27 74 41 148 41 203c0 76 -31 117 -91 117c-71 0 -118 -74 -153 -170c-26 -74 -41 -148 -41 -203z" />
    <glyph glyph-name="odieresis" unicode="&#xf6;" horiz-adv-x="550" 
d="M395 589l32 127h95l-31 -127h-96zM231 589l32 127h95l-31 -127h-96zM25 189c0 169 134 311 299 311c118 0 200 -87 200 -199c0 -169 -134 -311 -299 -311c-118 0 -200 86 -200 199zM132 117c0 -77 32 -117 91 -117c71 0 119 74 153 170c27 74 41 148 41 203
c0 76 -31 117 -91 117c-71 0 -118 -74 -153 -170c-26 -74 -41 -148 -41 -203z" />
    <glyph glyph-name="omacron" unicode="&#x14d;" horiz-adv-x="550" 
d="M511 632h-288l3 10h288zM25 189c0 169 134 311 299 311c118 0 200 -87 200 -199c0 -169 -134 -311 -299 -311c-118 0 -200 86 -200 199zM132 117c0 -77 32 -117 91 -117c71 0 119 74 153 170c27 74 41 148 41 203c0 76 -31 117 -91 117c-71 0 -118 -74 -153 -170
c-26 -74 -41 -148 -41 -203z" />
    <glyph glyph-name="obreve" unicode="&#x14f;" horiz-adv-x="550" 
d="M551 752c-28 -115 -100 -191 -194 -191c-90 0 -132 76 -104 191h6c-14 -82 18 -118 114 -118s147 36 172 118h6zM25 189c0 169 134 311 299 311c118 0 200 -87 200 -199c0 -169 -134 -311 -299 -311c-118 0 -200 86 -200 199zM132 117c0 -77 32 -117 91 -117
c71 0 119 74 153 170c27 74 41 148 41 203c0 76 -31 117 -91 117c-71 0 -118 -74 -153 -170c-26 -74 -41 -148 -41 -203z" />
    <glyph glyph-name="ohungarumlaut" unicode="&#x151;" horiz-adv-x="550" 
d="M520 749h104l-210 -196h-4zM357 749h104l-210 -196h-4zM25 189c0 169 134 311 299 311c118 0 200 -87 200 -199c0 -169 -134 -311 -299 -311c-118 0 -200 86 -200 199zM132 117c0 -77 32 -117 91 -117c71 0 119 74 153 170c27 74 41 148 41 203c0 76 -31 117 -91 117
c-71 0 -118 -74 -153 -170c-26 -74 -41 -148 -41 -203z" />
    <glyph glyph-name="p" unicode="p" horiz-adv-x="587" 
d="M209 324l-31 -124c-5 -23 -9 -46 -9 -67c1 -67 36 -111 92 -111c113 0 188 180 188 332c0 68 -21 115 -81 115c-69 0 -132 -68 -159 -145zM161 127l-85 -342h-117l176 705h113l-28 -121c36 71 104 131 189 131c98 0 157 -72 157 -176c0 -170 -117 -334 -271 -334
c-82 0 -133 61 -134 137z" />
    <glyph glyph-name="q" unicode="q" horiz-adv-x="584" 
d="M367 121c-36 -71 -104 -131 -190 -131c-94 0 -156 73 -156 177c0 170 114 333 270 333c83 0 133 -61 135 -138l40 128h108l-176 -705h-115zM378 165l30 125c6 22 9 45 9 66c0 67 -35 111 -93 111c-114 0 -187 -179 -187 -331c0 -68 24 -116 82 -116c69 0 132 69 159 145z
" />
    <glyph glyph-name="r" unicode="r" horiz-adv-x="464" 
d="M215 342c38 79 103 158 180 158c56 0 87 -36 87 -87c0 -47 -29 -91 -68 -114l-5 8c38 24 63 61 63 106s-26 77 -77 77c-89 0 -164 -113 -196 -210l-70 -280h-116l122 490h113z" />
    <glyph glyph-name="racute" unicode="&#x155;" horiz-adv-x="464" 
d="M406 749h112l-217 -196h-4zM215 342c38 79 103 158 180 158c56 0 87 -36 87 -87c0 -47 -29 -91 -68 -114l-5 8c38 24 63 61 63 106s-26 77 -77 77c-89 0 -164 -113 -196 -210l-70 -280h-116l122 490h113z" />
    <glyph glyph-name="uni0157" unicode="&#x157;" horiz-adv-x="464" 
d="M215 342c38 79 103 158 180 158c56 0 87 -36 87 -87c0 -47 -29 -91 -68 -114l-5 8c38 24 63 61 63 106s-26 77 -77 77c-89 0 -164 -113 -196 -210l-70 -280h-116l122 490h113zM-32 -166l28 114h126l-29 -115c-16 -62 -68 -115 -166 -103l3 10c92 -11 138 34 153 94h-115z
" />
    <glyph glyph-name="rcaron" unicode="&#x159;" horiz-adv-x="464" 
d="M313 546h-2l-108 207h89l74 -143l150 143h13zM215 342c38 79 103 158 180 158c56 0 87 -36 87 -87c0 -47 -29 -91 -68 -114l-5 8c38 24 63 61 63 106s-26 77 -77 77c-89 0 -164 -113 -196 -210l-70 -280h-116l122 490h113z" />
    <glyph glyph-name="s" unicode="s" horiz-adv-x="455" 
d="M270 490c-71 0 -113 -38 -113 -92c0 -47 45 -69 101 -94c81 -34 146 -66 146 -143c0 -92 -88 -171 -212 -171c-111 0 -191 57 -191 128c0 37 22 68 56 81l4 -7c-31 -14 -50 -40 -50 -74c0 -66 76 -116 171 -116c86 0 134 46 134 102c0 50 -43 74 -104 101
c-74 33 -138 62 -138 136c0 88 79 159 196 159c99 0 159 -45 159 -109c0 -34 -19 -59 -44 -71l-3 8c23 12 37 33 37 63c0 58 -54 99 -149 99z" />
    <glyph glyph-name="sacute" unicode="&#x15b;" horiz-adv-x="458" 
d="M403 749h112l-217 -196h-4zM270 490c-71 0 -113 -38 -113 -92c0 -47 45 -69 101 -94c81 -34 146 -66 146 -143c0 -92 -88 -171 -212 -171c-111 0 -191 57 -191 128c0 37 22 68 56 81l4 -7c-31 -14 -50 -40 -50 -74c0 -66 76 -116 171 -116c86 0 134 46 134 102
c0 50 -43 74 -104 101c-74 33 -138 62 -138 136c0 88 79 159 196 159c99 0 159 -45 159 -109c0 -34 -19 -59 -44 -71l-3 8c23 12 37 33 37 63c0 58 -54 99 -149 99z" />
    <glyph glyph-name="scircumflex" unicode="&#x15d;" horiz-adv-x="458" 
d="M389 546l-75 143l-149 -143h-13l216 207h2l108 -207h-89zM270 490c-71 0 -113 -38 -113 -92c0 -47 45 -69 101 -94c81 -34 146 -66 146 -143c0 -92 -88 -171 -212 -171c-111 0 -191 57 -191 128c0 37 22 68 56 81l4 -7c-31 -14 -50 -40 -50 -74c0 -66 76 -116 171 -116
c86 0 134 46 134 102c0 50 -43 74 -104 101c-74 33 -138 62 -138 136c0 88 79 159 196 159c99 0 159 -45 159 -109c0 -34 -19 -59 -44 -71l-3 8c23 12 37 33 37 63c0 58 -54 99 -149 99z" />
    <glyph glyph-name="uni015F" unicode="&#x15f;" horiz-adv-x="458" 
d="M134 -226c-54 0 -85 26 -95 59l9 5c9 -31 34 -49 67 -49c47 0 79 42 79 92c0 33 -23 47 -75 47l43 63c-95 10 -161 62 -161 127c0 37 22 68 56 81l4 -7c-31 -14 -50 -40 -50 -74c0 -66 76 -116 171 -116c86 0 134 46 134 102c0 50 -43 74 -104 101
c-74 33 -138 62 -138 136c0 88 79 159 196 159c99 0 159 -45 159 -109c0 -34 -19 -59 -44 -71l-3 8c23 12 37 33 37 63c0 58 -54 99 -149 99c-71 0 -113 -38 -113 -92c0 -47 45 -69 101 -94c81 -34 146 -66 146 -143c0 -92 -88 -171 -212 -171c-7 0 -14 0 -21 1l-37 -55
c68 0 122 -21 122 -69c0 -52 -53 -93 -122 -93z" />
    <glyph glyph-name="scaron" unicode="&#x161;" horiz-adv-x="458" 
d="M311 546h-2l-108 207h89l74 -143l150 143h13zM270 490c-71 0 -113 -38 -113 -92c0 -47 45 -69 101 -94c81 -34 146 -66 146 -143c0 -92 -88 -171 -212 -171c-111 0 -191 57 -191 128c0 37 22 68 56 81l4 -7c-31 -14 -50 -40 -50 -74c0 -66 76 -116 171 -116
c86 0 134 46 134 102c0 50 -43 74 -104 101c-74 33 -138 62 -138 136c0 88 79 159 196 159c99 0 159 -45 159 -109c0 -34 -19 -59 -44 -71l-3 8c23 12 37 33 37 63c0 58 -54 99 -149 99z" />
    <glyph glyph-name="uni0219" unicode="&#x219;" horiz-adv-x="458" 
d="M270 490c-71 0 -113 -38 -113 -92c0 -47 45 -69 101 -94c81 -34 146 -66 146 -143c0 -92 -88 -171 -212 -171c-111 0 -191 57 -191 128c0 37 22 68 56 81l4 -7c-31 -14 -50 -40 -50 -74c0 -66 76 -116 171 -116c86 0 134 46 134 102c0 50 -43 74 -104 101
c-74 33 -138 62 -138 136c0 88 79 159 196 159c99 0 159 -45 159 -109c0 -34 -19 -59 -44 -71l-3 8c23 12 37 33 37 63c0 58 -54 99 -149 99zM77 -166l28 114h126l-29 -115c-16 -62 -68 -115 -166 -103l3 10c92 -11 138 34 153 94h-115z" />
    <glyph glyph-name="t" unicode="t" horiz-adv-x="383" 
d="M54 480l3 10h76l32 117l124 46l-40 -163h157l-7 -10h-153l-92 -372c-3 -14 -5 -27 -5 -37c0 -38 21 -58 58 -58c67 0 119 59 145 151l9 -2c-27 -99 -88 -172 -193 -172c-74 0 -126 42 -126 113c0 13 2 26 5 41l83 336h-76z" />
    <glyph glyph-name="tcommaaccent" unicode="&#x163;" horiz-adv-x="383" 
d="M89 -225c-54 0 -85 26 -95 59l9 5c9 -31 34 -49 67 -49c47 0 79 42 79 92c0 33 -23 47 -75 47l46 68c-47 14 -78 52 -78 106c0 13 2 26 5 41l83 336h-76l3 10h76l32 117l124 46l-40 -163h157l-7 -10h-153l-92 -372c-3 -14 -5 -27 -5 -37c0 -38 21 -58 58 -58
c67 0 119 59 145 151l9 -2c-27 -99 -88 -172 -193 -172c-14 0 -28 2 -40 5l-39 -58c68 0 122 -21 122 -69c0 -52 -53 -93 -122 -93z" />
    <glyph glyph-name="tcaron" unicode="&#x165;" horiz-adv-x="383" 
d="M497 761l-188 -217h-4l88 217h104zM54 480l3 10h76l32 117l124 46l-40 -163h157l-7 -10h-153l-92 -372c-3 -14 -5 -27 -5 -37c0 -38 21 -58 58 -58c67 0 119 59 145 151l9 -2c-27 -99 -88 -172 -193 -172c-74 0 -126 42 -126 113c0 13 2 26 5 41l83 336h-76z" />
    <glyph glyph-name="uni021B" unicode="&#x21b;" horiz-adv-x="383" 
d="M54 480l3 10h76l32 117l124 46l-40 -163h157l-7 -10h-153l-92 -372c-3 -14 -5 -27 -5 -37c0 -38 21 -58 58 -58c67 0 119 59 145 151l9 -2c-27 -99 -88 -172 -193 -172c-74 0 -126 42 -126 113c0 13 2 26 5 41l83 336h-76zM58 -166l28 114h126l-29 -115
c-16 -62 -68 -115 -166 -103l3 10c92 -11 138 34 153 94h-115z" />
    <glyph glyph-name="u" unicode="u" 
d="M245 490l-90 -363c-5 -17 -7 -34 -7 -48c0 -38 17 -62 58 -62c64 0 137 68 164 168l76 305h116l-102 -410c-2 -10 -3 -19 -3 -27c0 -23 10 -36 32 -36c27 0 54 22 74 66l7 -4c-28 -60 -73 -89 -129 -89c-60 0 -94 36 -94 85c0 6 1 22 7 46c-43 -82 -113 -131 -190 -131
s-124 47 -124 121c0 15 2 32 6 49l82 330h117z" />
    <glyph glyph-name="ugrave" unicode="&#xf9;" 
d="M369 553l-120 196h108l16 -196h-4zM245 490l-90 -363c-5 -17 -7 -34 -7 -48c0 -38 17 -62 58 -62c64 0 137 68 164 168l76 305h116l-102 -410c-2 -10 -3 -19 -3 -27c0 -23 10 -36 32 -36c27 0 54 22 74 66l7 -4c-28 -60 -73 -89 -129 -89c-60 0 -94 36 -94 85
c0 6 1 22 7 46c-43 -82 -113 -131 -190 -131s-124 47 -124 121c0 15 2 32 6 49l82 330h117z" />
    <glyph glyph-name="uacute" unicode="&#xfa;" 
d="M448 749h112l-217 -196h-4zM245 490l-90 -363c-5 -17 -7 -34 -7 -48c0 -38 17 -62 58 -62c64 0 137 68 164 168l76 305h116l-102 -410c-2 -10 -3 -19 -3 -27c0 -23 10 -36 32 -36c27 0 54 22 74 66l7 -4c-28 -60 -73 -89 -129 -89c-60 0 -94 36 -94 85c0 6 1 22 7 46
c-43 -82 -113 -131 -190 -131s-124 47 -124 121c0 15 2 32 6 49l82 330h117z" />
    <glyph glyph-name="ucircumflex" unicode="&#xfb;" 
d="M442 546l-75 143l-149 -143h-13l216 207h2l108 -207h-89zM245 490l-90 -363c-5 -17 -7 -34 -7 -48c0 -38 17 -62 58 -62c64 0 137 68 164 168l76 305h116l-102 -410c-2 -10 -3 -19 -3 -27c0 -23 10 -36 32 -36c27 0 54 22 74 66l7 -4c-28 -60 -73 -89 -129 -89
c-60 0 -94 36 -94 85c0 6 1 22 7 46c-43 -82 -113 -131 -190 -131s-124 47 -124 121c0 15 2 32 6 49l82 330h117z" />
    <glyph glyph-name="udieresis" unicode="&#xfc;" 
d="M402 589l32 127h95l-31 -127h-96zM238 589l32 127h95l-31 -127h-96zM245 490l-90 -363c-5 -17 -7 -34 -7 -48c0 -38 17 -62 58 -62c64 0 137 68 164 168l76 305h116l-102 -410c-2 -10 -3 -19 -3 -27c0 -23 10 -36 32 -36c27 0 54 22 74 66l7 -4c-28 -60 -73 -89 -129 -89
c-60 0 -94 36 -94 85c0 6 1 22 7 46c-43 -82 -113 -131 -190 -131s-124 47 -124 121c0 15 2 32 6 49l82 330h117z" />
    <glyph glyph-name="utilde" unicode="&#x169;" 
d="M432 578c-58 0 -93 87 -145 87c-34 0 -61 -28 -83 -90h-9c26 88 76 149 139 149c62 0 93 -87 147 -87c32 0 59 28 81 90h9c-26 -88 -75 -149 -139 -149zM245 490l-90 -363c-5 -17 -7 -34 -7 -48c0 -38 17 -62 58 -62c64 0 137 68 164 168l76 305h116l-102 -410
c-2 -10 -3 -19 -3 -27c0 -23 10 -36 32 -36c27 0 54 22 74 66l7 -4c-28 -60 -73 -89 -129 -89c-60 0 -94 36 -94 85c0 6 1 22 7 46c-43 -82 -113 -131 -190 -131s-124 47 -124 121c0 15 2 32 6 49l82 330h117z" />
    <glyph glyph-name="umacron" unicode="&#x16b;" 
d="M522 632h-288l3 10h288zM245 490l-90 -363c-5 -17 -7 -34 -7 -48c0 -38 17 -62 58 -62c64 0 137 68 164 168l76 305h116l-102 -410c-2 -10 -3 -19 -3 -27c0 -23 10 -36 32 -36c27 0 54 22 74 66l7 -4c-28 -60 -73 -89 -129 -89c-60 0 -94 36 -94 85c0 6 1 22 7 46
c-43 -82 -113 -131 -190 -131s-124 47 -124 121c0 15 2 32 6 49l82 330h117z" />
    <glyph glyph-name="ubreve" unicode="&#x16d;" 
d="M553 752c-28 -115 -100 -191 -194 -191c-90 0 -132 76 -104 191h6c-14 -82 18 -118 114 -118s147 36 172 118h6zM245 490l-90 -363c-5 -17 -7 -34 -7 -48c0 -38 17 -62 58 -62c64 0 137 68 164 168l76 305h116l-102 -410c-2 -10 -3 -19 -3 -27c0 -23 10 -36 32 -36
c27 0 54 22 74 66l7 -4c-28 -60 -73 -89 -129 -89c-60 0 -94 36 -94 85c0 6 1 22 7 46c-43 -82 -113 -131 -190 -131s-124 47 -124 121c0 15 2 32 6 49l82 330h117z" />
    <glyph glyph-name="uring" unicode="&#x16f;" 
d="M292 646c0 59 51 101 103 101c47 0 82 -35 82 -81c0 -59 -51 -100 -104 -100c-46 0 -81 35 -81 80zM467 666c0 40 -31 71 -72 71c-47 0 -93 -38 -93 -91c0 -39 31 -70 71 -70c48 0 94 37 94 90zM245 490l-90 -363c-5 -17 -7 -34 -7 -48c0 -38 17 -62 58 -62
c64 0 137 68 164 168l76 305h116l-102 -410c-2 -10 -3 -19 -3 -27c0 -23 10 -36 32 -36c27 0 54 22 74 66l7 -4c-28 -60 -73 -89 -129 -89c-60 0 -94 36 -94 85c0 6 1 22 7 46c-43 -82 -113 -131 -190 -131s-124 47 -124 121c0 15 2 32 6 49l82 330h117z" />
    <glyph glyph-name="uhungarumlaut" unicode="&#x171;" 
d="M535 749h104l-210 -196h-4zM372 749h104l-210 -196h-4zM245 490l-90 -363c-5 -17 -7 -34 -7 -48c0 -38 17 -62 58 -62c64 0 137 68 164 168l76 305h116l-102 -410c-2 -10 -3 -19 -3 -27c0 -23 10 -36 32 -36c27 0 54 22 74 66l7 -4c-28 -60 -73 -89 -129 -89
c-60 0 -94 36 -94 85c0 6 1 22 7 46c-43 -82 -113 -131 -190 -131s-124 47 -124 121c0 15 2 32 6 49l82 330h117z" />
    <glyph glyph-name="uogonek" unicode="&#x173;" 
d="M391 -225c-49 0 -88 30 -88 72c0 55 65 96 159 144c-7 -1 -14 -1 -21 -1c-60 0 -94 36 -94 85c0 6 1 22 7 46c-43 -82 -113 -131 -190 -131s-124 47 -124 121c0 15 2 32 6 49l82 330h117l-90 -363c-5 -17 -7 -34 -7 -48c0 -38 17 -62 58 -62c64 0 137 68 164 168l76 305
h116l-102 -410c-2 -10 -3 -19 -3 -27c0 -23 10 -36 32 -36c27 0 54 22 74 66l7 -4c-18 -38 -42 -64 -72 -77c-89 -50 -130 -91 -130 -153c0 -34 19 -56 49 -56c44 0 80 29 107 79l7 -4c-35 -64 -85 -93 -140 -93z" />
    <glyph glyph-name="v" unicode="v" horiz-adv-x="538" 
d="M53 204l71 286h116l-73 -295c-8 -33 -13 -63 -13 -88c0 -58 24 -95 80 -95c140 0 277 185 277 356c0 75 -34 122 -96 122c-44 0 -74 -26 -92 -67l-8 5c16 42 52 72 100 72c68 0 106 -50 106 -131c0 -176 -138 -379 -323 -379c-102 0 -154 59 -154 145c0 22 3 45 9 69z
" />
    <glyph glyph-name="w" unicode="w" horiz-adv-x="801" 
d="M687 500c62 0 96 -51 96 -132c0 -176 -131 -378 -286 -378c-83 0 -142 56 -136 151c-23 -69 -84 -151 -181 -151c-82 0 -138 51 -138 139c0 23 4 48 10 75l72 286h116l-76 -305c-8 -33 -12 -61 -12 -85c0 -54 26 -85 68 -85c73 0 128 101 146 173l75 302h113l-81 -325
c-6 -22 -9 -44 -9 -64c0 -51 21 -87 72 -87c112 0 237 185 237 354c0 74 -30 122 -86 122c-40 0 -68 -26 -85 -67l-8 4c15 43 49 73 93 73z" />
    <glyph glyph-name="wcircumflex" unicode="&#x175;" horiz-adv-x="801" 
d="M588 546l-75 143l-149 -143h-13l216 207h2l108 -207h-89zM687 500c62 0 96 -51 96 -132c0 -176 -131 -378 -286 -378c-83 0 -142 56 -136 151c-23 -69 -84 -151 -181 -151c-82 0 -138 51 -138 139c0 23 4 48 10 75l72 286h116l-76 -305c-8 -33 -12 -61 -12 -85
c0 -54 26 -85 68 -85c73 0 128 101 146 173l75 302h113l-81 -325c-6 -22 -9 -44 -9 -64c0 -51 21 -87 72 -87c112 0 237 185 237 354c0 74 -30 122 -86 122c-40 0 -68 -26 -85 -67l-8 4c15 43 49 73 93 73z" />
    <glyph glyph-name="wgrave" unicode="&#x1e81;" horiz-adv-x="801" 
d="M514 553l-120 196h108l16 -196h-4zM687 500c62 0 96 -51 96 -132c0 -176 -131 -378 -286 -378c-83 0 -142 56 -136 151c-23 -69 -84 -151 -181 -151c-82 0 -138 51 -138 139c0 23 4 48 10 75l72 286h116l-76 -305c-8 -33 -12 -61 -12 -85c0 -54 26 -85 68 -85
c73 0 128 101 146 173l75 302h113l-81 -325c-6 -22 -9 -44 -9 -64c0 -51 21 -87 72 -87c112 0 237 185 237 354c0 74 -30 122 -86 122c-40 0 -68 -26 -85 -67l-8 4c15 43 49 73 93 73z" />
    <glyph glyph-name="wacute" unicode="&#x1e83;" horiz-adv-x="801" 
d="M594 749h112l-217 -196h-4zM687 500c62 0 96 -51 96 -132c0 -176 -131 -378 -286 -378c-83 0 -142 56 -136 151c-23 -69 -84 -151 -181 -151c-82 0 -138 51 -138 139c0 23 4 48 10 75l72 286h116l-76 -305c-8 -33 -12 -61 -12 -85c0 -54 26 -85 68 -85
c73 0 128 101 146 173l75 302h113l-81 -325c-6 -22 -9 -44 -9 -64c0 -51 21 -87 72 -87c112 0 237 185 237 354c0 74 -30 122 -86 122c-40 0 -68 -26 -85 -67l-8 4c15 43 49 73 93 73z" />
    <glyph glyph-name="wdieresis" unicode="&#x1e85;" horiz-adv-x="801" 
d="M547 589l32 127h95l-31 -127h-96zM383 589l32 127h95l-31 -127h-96zM687 500c62 0 96 -51 96 -132c0 -176 -131 -378 -286 -378c-83 0 -142 56 -136 151c-23 -69 -84 -151 -181 -151c-82 0 -138 51 -138 139c0 23 4 48 10 75l72 286h116l-76 -305c-8 -33 -12 -61 -12 -85
c0 -54 26 -85 68 -85c73 0 128 101 146 173l75 302h113l-81 -325c-6 -22 -9 -44 -9 -64c0 -51 21 -87 72 -87c112 0 237 185 237 354c0 74 -30 122 -86 122c-40 0 -68 -26 -85 -67l-8 4c15 43 49 73 93 73z" />
    <glyph glyph-name="x" unicode="x" horiz-adv-x="613" 
d="M376 363c26 53 96 137 168 137c62 0 89 -39 89 -93c0 -50 -35 -94 -63 -111l-5 8c27 17 58 54 58 103s-24 83 -78 83c-114 0 -201 -253 -201 -376c0 -59 18 -103 64 -103c53 0 102 39 132 117l9 -4c-32 -84 -97 -134 -174 -134c-72 0 -123 66 -130 139
c-26 -54 -97 -139 -169 -139c-62 0 -92 41 -92 95c0 51 38 96 65 115l5 -8c-26 -19 -60 -58 -60 -107c0 -51 27 -85 81 -85c110 0 203 246 203 377c0 58 -18 102 -64 102c-51 0 -97 -36 -130 -114l-8 4c34 83 94 131 171 131c74 0 122 -66 129 -137z" />
    <glyph glyph-name="y" unicode="y" horiz-adv-x="568" 
d="M558 490l-109 -436c-50 -201 -171 -279 -327 -279c-108 0 -171 56 -171 126c0 48 26 82 66 96l4 -9c-38 -12 -60 -43 -60 -87c0 -68 65 -113 145 -113c126 0 183 86 218 230l28 113c-43 -82 -110 -125 -188 -125c-75 0 -120 47 -120 119c0 16 2 33 7 51l78 314h117
l-87 -347c-5 -19 -8 -36 -8 -51c0 -37 17 -59 57 -59c63 0 136 65 162 167l72 290h116z" />
    <glyph glyph-name="yacute" unicode="&#xfd;" horiz-adv-x="568" 
d="M449 749h112l-217 -196h-4zM558 490l-109 -436c-50 -201 -171 -279 -327 -279c-108 0 -171 56 -171 126c0 48 26 82 66 96l4 -9c-38 -12 -60 -43 -60 -87c0 -68 65 -113 145 -113c126 0 183 86 218 230l28 113c-43 -82 -110 -125 -188 -125c-75 0 -120 47 -120 119
c0 16 2 33 7 51l78 314h117l-87 -347c-5 -19 -8 -36 -8 -51c0 -37 17 -59 57 -59c63 0 136 65 162 167l72 290h116z" />
    <glyph glyph-name="ydieresis" unicode="&#xff;" horiz-adv-x="568" 
d="M403 589l32 127h95l-31 -127h-96zM239 589l32 127h95l-31 -127h-96zM558 490l-109 -436c-50 -201 -171 -279 -327 -279c-108 0 -171 56 -171 126c0 48 26 82 66 96l4 -9c-38 -12 -60 -43 -60 -87c0 -68 65 -113 145 -113c126 0 183 86 218 230l28 113
c-43 -82 -110 -125 -188 -125c-75 0 -120 47 -120 119c0 16 2 33 7 51l78 314h117l-87 -347c-5 -19 -8 -36 -8 -51c0 -37 17 -59 57 -59c63 0 136 65 162 167l72 290h116z" />
    <glyph glyph-name="ycircumflex" unicode="&#x177;" horiz-adv-x="568" 
d="M443 546l-75 143l-149 -143h-13l216 207h2l108 -207h-89zM558 490l-109 -436c-50 -201 -171 -279 -327 -279c-108 0 -171 56 -171 126c0 48 26 82 66 96l4 -9c-38 -12 -60 -43 -60 -87c0 -68 65 -113 145 -113c126 0 183 86 218 230l28 113c-43 -82 -110 -125 -188 -125
c-75 0 -120 47 -120 119c0 16 2 33 7 51l78 314h117l-87 -347c-5 -19 -8 -36 -8 -51c0 -37 17 -59 57 -59c63 0 136 65 162 167l72 290h116z" />
    <glyph glyph-name="ygrave" unicode="&#x1ef3;" horiz-adv-x="568" 
d="M370 553l-120 196h108l16 -196h-4zM558 490l-109 -436c-50 -201 -171 -279 -327 -279c-108 0 -171 56 -171 126c0 48 26 82 66 96l4 -9c-38 -12 -60 -43 -60 -87c0 -68 65 -113 145 -113c126 0 183 86 218 230l28 113c-43 -82 -110 -125 -188 -125
c-75 0 -120 47 -120 119c0 16 2 33 7 51l78 314h117l-87 -347c-5 -19 -8 -36 -8 -51c0 -37 17 -59 57 -59c63 0 136 65 162 167l72 290h116z" />
    <glyph glyph-name="z" unicode="z" horiz-adv-x="490" 
d="M286 -14c-88 0 -174 73 -232 84l-81 -75l-6 7l431 395h-320l32 93h389l6 -7l-367 -336c87 -32 139 -80 215 -80c53 0 82 28 93 98l9 -2c-14 -96 -70 -177 -169 -177z" />
    <glyph glyph-name="zacute" unicode="&#x17a;" horiz-adv-x="490" 
d="M399 749h112l-217 -196h-4zM286 -14c-88 0 -174 73 -232 84l-81 -75l-6 7l431 395h-320l32 93h389l6 -7l-367 -336c87 -32 139 -80 215 -80c53 0 82 28 93 98l9 -2c-14 -96 -70 -177 -169 -177z" />
    <glyph glyph-name="zdotaccent" unicode="&#x17c;" horiz-adv-x="490" 
d="M258 589l32 127h118l-31 -127h-119zM286 -14c-88 0 -174 73 -232 84l-81 -75l-6 7l431 395h-320l32 93h389l6 -7l-367 -336c87 -32 139 -80 215 -80c53 0 82 28 93 98l9 -2c-14 -96 -70 -177 -169 -177z" />
    <glyph glyph-name="zcaron" unicode="&#x17e;" horiz-adv-x="490" 
d="M306 546h-2l-108 207h89l74 -143l150 143h13zM286 -14c-88 0 -174 73 -232 84l-81 -75l-6 7l431 395h-320l32 93h389l6 -7l-367 -336c87 -32 139 -80 215 -80c53 0 82 28 93 98l9 -2c-14 -96 -70 -177 -169 -177z" />
    <glyph glyph-name="ordfeminine" unicode="&#xaa;" horiz-adv-x="463" 
d="M331 414c0 5 1 14 7 33c-26 -50 -72 -92 -131 -92c-68 0 -111 52 -111 126c0 118 84 229 191 229c59 0 93 -39 93 -92l28 85h77l-72 -280c-3 -12 -3 -18 -3 -24c0 -15 7 -24 21 -24c20 0 39 16 53 45l7 -3c-20 -41 -52 -62 -93 -62c-39 0 -67 26 -67 59zM345 480l22 84
c4 16 7 32 7 47c0 43 -23 75 -63 75c-73 0 -129 -119 -130 -227c0 -49 15 -80 54 -80c47 0 91 47 110 101zM84 275l3 10h296l-3 -10h-296z" />
    <glyph glyph-name="ordmasculine" unicode="&#xba;" horiz-adv-x="405" 
d="M96 493c0 118 97 217 213 217c83 0 143 -60 143 -138c0 -118 -97 -217 -213 -217c-83 0 -143 60 -143 138zM175 444c0 -54 21 -80 63 -80c50 0 83 49 107 116c18 52 28 103 28 141c0 54 -21 80 -63 80c-50 0 -83 -49 -107 -116c-19 -52 -28 -103 -28 -141zM61 275l3 10
h296l-3 -10h-296z" />
    <glyph glyph-name="germandbls" unicode="&#xdf;" horiz-adv-x="654" 
d="M609 164c0 -97 -92 -174 -220 -174c-105 0 -183 53 -183 124c0 44 33 79 76 89l3 -9c-41 -9 -69 -39 -69 -80c0 -66 74 -112 163 -112c84 0 139 43 139 114c0 40 -24 58 -91 93c-85 44 -122 75 -122 129c0 82 68 122 183 185c66 37 101 63 101 123c0 54 -52 98 -132 98
c-112 0 -166 -78 -203 -225l-183 -734h-116l177 707c44 177 153 267 299 267c108 0 168 -52 168 -113c0 -66 -41 -96 -106 -133c-75 -43 -110 -66 -110 -116c0 -32 27 -52 97 -88c90 -46 129 -78 129 -145z" />
    <glyph glyph-name="ae" unicode="&#xe6;" horiz-adv-x="825" 
d="M560 -10c-88 0 -166 48 -191 132c-36 -69 -106 -132 -187 -132c-96 0 -161 75 -161 179c0 171 121 331 275 331c76 0 126 -54 133 -124c58 74 146 124 244 124c96 0 149 -48 149 -109c0 -116 -161 -158 -342 -160c-4 -25 -6 -50 -6 -75c0 -98 48 -148 117 -148
c74 0 146 39 184 124l9 -3c-40 -90 -124 -139 -224 -139zM670 490c-91 0 -165 -122 -188 -251c162 4 256 58 256 181c0 44 -19 70 -68 70zM224 22c57 0 111 51 142 113c-3 15 -5 30 -5 46c0 67 23 132 61 185c-3 62 -38 102 -91 102c-112 0 -193 -174 -193 -329
c-1 -71 26 -117 86 -117z" />
    <glyph glyph-name="aeacute" unicode="&#x1fd;" horiz-adv-x="825" 
d="M588 749h112l-217 -196h-4zM560 -10c-88 0 -166 48 -191 132c-36 -69 -106 -132 -187 -132c-96 0 -161 75 -161 179c0 171 121 331 275 331c76 0 126 -54 133 -124c58 74 146 124 244 124c96 0 149 -48 149 -109c0 -116 -161 -158 -342 -160c-4 -25 -6 -50 -6 -75
c0 -98 48 -148 117 -148c74 0 146 39 184 124l9 -3c-40 -90 -124 -139 -224 -139zM670 490c-91 0 -165 -122 -188 -251c162 4 256 58 256 181c0 44 -19 70 -68 70zM224 22c57 0 111 51 142 113c-3 15 -5 30 -5 46c0 67 23 132 61 185c-3 62 -38 102 -91 102
c-112 0 -193 -174 -193 -329c-1 -71 26 -117 86 -117z" />
    <glyph glyph-name="eth" unicode="&#xf0;" horiz-adv-x="546" 
d="M225 -10c-118 0 -200 86 -200 199c0 169 134 311 299 311c39 0 77 -19 98 -55c-1 77 -20 147 -61 201l-140 -73l-4 10l137 71c-38 46 -93 80 -166 97l2 9c77 -16 142 -48 193 -91l109 57l5 -9l-105 -55c88 -78 134 -188 134 -306c0 -220 -134 -366 -301 -366zM132 117
c0 -77 32 -117 91 -117c71 0 119 74 153 170c27 74 41 148 41 203c0 76 -31 117 -91 117c-71 0 -118 -74 -153 -170c-26 -74 -41 -148 -41 -203z" />
    <glyph glyph-name="oslash" unicode="&#xf8;" horiz-adv-x="550" 
d="M133 91l281 318c-9 53 -38 81 -88 81c-71 0 -118 -74 -153 -170c-26 -74 -41 -148 -41 -203c0 -9 0 -18 1 -26zM416 397l-281 -320c10 -51 40 -77 88 -77c71 0 119 74 153 170c27 74 41 148 41 203c0 8 0 16 -1 24zM454 455l47 53l8 -5l-47 -55c39 -36 62 -88 62 -147
c0 -169 -134 -311 -299 -311c-51 0 -95 16 -128 43l-46 -52l-9 6l46 53c-39 36 -63 88 -63 149c0 169 134 311 299 311c52 0 96 -17 130 -45z" />
    <glyph glyph-name="oslashacute" unicode="&#x1ff;" horiz-adv-x="550" 
d="M442 749h112l-217 -196h-4zM133 91l281 318c-9 53 -38 81 -88 81c-71 0 -118 -74 -153 -170c-26 -74 -41 -148 -41 -203c0 -9 0 -18 1 -26zM416 397l-281 -320c10 -51 40 -77 88 -77c71 0 119 74 153 170c27 74 41 148 41 203c0 8 0 16 -1 24zM454 455l47 53l8 -5
l-47 -55c39 -36 62 -88 62 -147c0 -169 -134 -311 -299 -311c-51 0 -95 16 -128 43l-46 -52l-9 6l46 53c-39 36 -63 88 -63 149c0 169 134 311 299 311c52 0 96 -17 130 -45z" />
    <glyph glyph-name="thorn" unicode="&#xfe;" horiz-adv-x="587" 
d="M209 324l-31 -124c-5 -23 -9 -46 -9 -67c1 -67 36 -111 92 -111c113 0 188 180 188 332c0 68 -21 115 -81 115c-69 0 -132 -68 -159 -145zM161 127l-85 -342h-117l241 964h116l-96 -380c36 71 104 131 189 131c98 0 157 -72 157 -176c0 -170 -117 -334 -271 -334
c-82 0 -133 61 -134 137z" />
    <glyph glyph-name="dcroat" unicode="&#x111;" horiz-adv-x="606" 
d="M453 -10c-60 0 -94 36 -94 85c0 6 2 20 9 46c-36 -71 -104 -131 -185 -131c-97 0 -162 74 -162 178c0 170 115 332 271 332c83 0 133 -61 134 -138l68 270h-131l2 10h131l27 107h117l-27 -107h51l-2 -10h-51l-139 -552c-2 -10 -4 -19 -4 -26c0 -23 12 -37 33 -37
c27 0 54 22 75 66l7 -4c-28 -60 -73 -89 -130 -89zM379 165l31 125c5 22 9 45 9 66c0 67 -35 111 -94 111c-114 0 -187 -179 -187 -331c0 -68 26 -116 84 -116c66 0 130 69 157 145z" />
    <glyph glyph-name="hbar" unicode="&#x127;" horiz-adv-x="597" 
d="M580 79c-28 -60 -74 -89 -130 -89c-61 0 -93 36 -93 86c0 10 1 22 4 33l63 255c5 18 7 36 7 51c0 36 -16 59 -57 59c-64 0 -141 -70 -167 -161l-78 -313h-116l158 632h-53l2 10h53l27 107h116l-27 -107h130l-2 -10h-130l-66 -263c43 82 118 131 195 131s122 -48 122 -120
c0 -16 -2 -33 -6 -51l-62 -249c-3 -10 -4 -19 -4 -27c0 -22 10 -36 32 -36c27 0 54 22 75 66z" />
    <glyph glyph-name="dotlessi" unicode="&#x131;" horiz-adv-x="285" 
d="M248 490l-102 -410c-2 -10 -4 -19 -4 -27c0 -22 11 -36 33 -36c27 0 54 22 74 66l7 -4c-28 -60 -73 -89 -129 -89c-61 0 -94 36 -94 86c0 10 1 22 4 33l95 381h116z" />
    <glyph glyph-name="kgreenlandic" unicode="&#x138;" horiz-adv-x="556" 
d="M405 -10c-54 0 -86 30 -104 88l-61 156l-67 -51l-46 -183h-116l122 490h116l-72 -291l385 291h17l-251 -190l83 -213c15 -39 27 -57 52 -57c24 0 45 19 62 69l8 -3c-24 -70 -65 -106 -128 -106z" />
    <glyph glyph-name="ldot" unicode="&#x140;" horiz-adv-x="423" 
d="M314 749l-167 -669c-2 -10 -4 -19 -4 -27c0 -22 11 -36 32 -36c28 0 55 22 75 66l7 -4c-28 -60 -73 -89 -130 -89c-61 0 -93 36 -93 86c0 10 1 22 4 33l160 640h116zM295 306l32 127h118l-31 -127h-119z" />
    <glyph glyph-name="lslash" unicode="&#x142;" horiz-adv-x="310" 
d="M140 -10c-61 0 -93 36 -93 86c0 10 1 22 4 33l65 261l-84 -45l3 14l85 45l91 365h116l-76 -303l99 54l-3 -14l-99 -54l-88 -352c-2 -10 -4 -19 -4 -27c0 -22 11 -36 32 -36c28 0 55 22 75 66l7 -4c-28 -60 -73 -89 -130 -89z" />
    <glyph glyph-name="eng" unicode="&#x14b;" horiz-adv-x="578" 
d="M315 -61l105 425c5 18 8 36 8 51c0 36 -17 59 -58 59c-64 0 -141 -70 -167 -161l-78 -313h-116l122 490h113l-27 -121c43 82 118 131 196 131c76 0 122 -48 122 -120c0 -16 -3 -33 -7 -51l-90 -363c-29 -117 -99 -191 -212 -191c-75 0 -117 38 -117 90c0 30 17 56 40 71
l6 -7c-22 -14 -35 -37 -35 -64c0 -46 34 -72 76 -72c56 0 93 42 119 146z" />
    <glyph glyph-name="oe" unicode="&#x153;" horiz-adv-x="856" 
d="M591 -10c-73 0 -134 36 -162 97c-49 -58 -121 -97 -204 -97c-118 0 -200 86 -200 199c0 169 134 311 299 311c80 0 137 -45 163 -107c53 63 131 107 217 107c96 0 149 -48 149 -109c0 -114 -165 -156 -342 -160c-4 -25 -6 -50 -6 -75c0 -98 48 -148 117 -148
c74 0 146 39 184 124l9 -3c-39 -90 -124 -139 -224 -139zM701 490c-91 0 -165 -122 -188 -250c155 6 256 60 256 180c0 44 -19 70 -68 70zM132 117c0 -77 32 -117 91 -117c71 0 119 74 153 170c27 74 41 148 41 203c0 76 -31 117 -91 117c-71 0 -118 -74 -153 -170
c-26 -74 -41 -148 -41 -203z" />
    <glyph glyph-name="tbar" unicode="&#x167;" horiz-adv-x="400" 
d="M371 162c-27 -99 -88 -172 -193 -172c-74 0 -126 42 -126 113c0 13 2 26 5 41l42 172h-68l2 10h69l38 154h-76l3 10h76l32 117l124 46l-40 -163h157l-7 -10h-153l-38 -154h148l-6 -10h-145l-51 -208c-3 -14 -5 -27 -5 -37c0 -38 21 -58 58 -58c67 0 119 59 145 151z" />
    <glyph glyph-name="zero" unicode="0" horiz-adv-x="634" 
d="M429 710c129 0 213 -114 213 -260c0 -225 -183 -460 -385 -460c-129 0 -213 114 -213 260c0 225 183 460 385 460zM431 700c-118 0 -189 -139 -240 -346c-23 -92 -36 -165 -36 -218c0 -82 29 -136 100 -136c118 0 189 139 240 346c23 92 36 165 36 218
c0 82 -29 136 -100 136z" />
    <glyph glyph-name="one" unicode="1" horiz-adv-x="372" 
d="M232 0h-122l153 613c-25 -30 -94 -102 -189 -153l-2 9c100 56 187 143 256 237h80z" />
    <glyph glyph-name="two" unicode="2" horiz-adv-x="531" 
d="M62 100h405l-25 -100h-504l2 8l257 206c169 136 246 245 246 362c0 74 -39 116 -119 116c-120 0 -221 -97 -221 -205c0 -43 21 -73 52 -83l-6 -8c-33 11 -56 44 -56 91c0 121 118 223 264 223c125 0 206 -58 206 -155c0 -161 -185 -262 -501 -455z" />
    <glyph glyph-name="three" unicode="3" horiz-adv-x="558" 
d="M222 -10c-122 0 -216 65 -216 153c0 86 66 136 129 153l2 -10c-62 -15 -121 -65 -121 -143s78 -137 180 -137c138 0 209 121 209 242c0 88 -51 124 -143 124h-21l2 9h23c134 0 201 93 201 202c0 73 -41 111 -118 111c-101 0 -198 -70 -198 -166c0 -38 19 -62 54 -74
l-5 -9c-38 14 -59 42 -59 83c0 103 107 182 238 182c115 0 203 -54 203 -142c0 -120 -149 -190 -261 -191v-2c96 -6 202 -56 202 -158c0 -138 -139 -227 -301 -227z" />
    <glyph glyph-name="four" unicode="4" horiz-adv-x="612" 
d="M593 221l-3 -11h-148l-53 -210h-122l52 210h-319l2 7l456 483h106l-119 -479h148zM322 221l109 435l-410 -435h301z" />
    <glyph glyph-name="five" unicode="5" horiz-adv-x="546" 
d="M597 700l-40 -106h-348l-90 -242c46 59 115 98 201 98c120 0 200 -72 200 -182c0 -168 -148 -278 -322 -278c-109 0 -195 57 -195 148c0 70 46 116 99 136l3 -9c-52 -21 -92 -61 -92 -127c0 -87 83 -133 159 -133c143 0 225 114 225 272c0 92 -37 152 -117 152
c-66 0 -125 -40 -170 -98h-8l136 369h359z" />
    <glyph glyph-name="six" unicode="6" horiz-adv-x="581" 
d="M556 271c0 -155 -142 -281 -299 -281c-129 0 -216 104 -216 248c0 222 187 472 421 472c105 0 156 -56 156 -126c0 -63 -42 -109 -84 -123l-2 8c41 15 76 58 76 115c0 65 -46 113 -131 113c-158 0 -254 -184 -307 -410c39 94 127 149 212 149c102 0 174 -64 174 -165z
M344 409c-65 0 -131 -51 -166 -127c-23 -51 -37 -118 -37 -162c0 -71 40 -120 108 -120c120 0 193 179 193 292c0 79 -32 117 -98 117z" />
    <glyph glyph-name="seven" unicode="7" horiz-adv-x="508" 
d="M138 700h479l-1 -3l-117 -139c-148 -181 -235 -333 -284 -558h-120c73 205 230 369 397 565l25 29h-406z" />
    <glyph glyph-name="eight" unicode="8" horiz-adv-x="562" 
d="M560 567c0 -102 -84 -160 -155 -183c81 -42 123 -90 123 -157c0 -135 -138 -237 -287 -237c-110 0 -230 58 -230 172c0 109 94 174 200 195c-46 29 -88 74 -88 141c0 121 112 212 254 212c98 0 183 -53 183 -143zM383 700c-97 0 -170 -58 -170 -148c0 -56 41 -90 86 -113
l97 -49c82 28 154 83 154 177c0 87 -83 133 -167 133zM330 295l-109 56c-107 -21 -200 -83 -200 -189c0 -109 119 -161 215 -161c114 0 197 66 197 162c0 59 -34 96 -103 132z" />
    <glyph glyph-name="nine" unicode="9" horiz-adv-x="581" 
d="M289 291c65 0 132 51 166 127c23 51 38 118 37 162c0 71 -40 120 -108 120c-120 0 -192 -179 -192 -292c0 -79 32 -117 97 -117zM77 429c0 155 142 281 299 281c129 0 217 -104 217 -248c0 -222 -188 -472 -421 -472c-105 0 -156 56 -156 126c0 63 41 109 83 123l3 -8
c-41 -15 -76 -58 -76 -115c0 -65 46 -113 130 -113c160 0 256 185 307 410c-39 -94 -126 -149 -212 -149c-101 0 -174 64 -174 165z" />
    <glyph glyph-name="onequarter" unicode="&#xbc;" horiz-adv-x="397" 
d="M266 414h-64l63 247c-11 -11 -41 -42 -81 -64l-1 8c44 25 82 64 111 101h46zM60 358h333l-2 -10h-333zM272 93l-3 -9h-58l-21 -84h-64l21 84h-131l3 6l186 200h57l-48 -197h58zM150 93l42 172l-160 -172h118z" />
    <glyph glyph-name="onehalf" unicode="&#xbd;" horiz-adv-x="397" 
d="M266 414h-64l63 247c-11 -11 -41 -42 -81 -64l-1 8c44 25 82 64 111 101h46zM60 358h333l-2 -10h-333zM96 52h165l-14 -52h-217l2 6l103 84c68 55 101 100 101 146c0 28 -16 45 -47 45c-45 0 -84 -36 -84 -78c0 -18 9 -30 24 -35l-6 -6c-16 4 -27 19 -27 40
c0 51 49 93 113 93c53 0 90 -25 90 -67c0 -68 -80 -110 -203 -176z" />
    <glyph glyph-name="threequarters" unicode="&#xbe;" horiz-adv-x="397" 
d="M243 410c-54 0 -94 26 -94 65c0 37 29 58 57 63l3 -7c-28 -6 -51 -26 -51 -55c0 -32 32 -54 69 -54c55 0 81 50 81 97c0 32 -18 46 -52 47h-9l2 7h10c47 0 75 36 75 80c0 28 -15 43 -46 43c-39 0 -75 -26 -75 -63c0 -16 8 -25 23 -30l-6 -7c-17 6 -27 18 -27 36
c0 44 45 77 102 77c51 0 89 -23 89 -61c0 -50 -59 -78 -109 -78v-1c41 -3 86 -24 86 -65c0 -58 -61 -94 -128 -94zM60 358h333l-2 -10h-333zM272 93l-3 -9h-58l-21 -84h-64l21 84h-131l3 6l186 200h57l-48 -197h58zM150 93l42 172l-160 -172h118z" />
    <glyph glyph-name="uni215B" unicode="&#x215b;" horiz-adv-x="397" 
d="M266 414h-64l63 247c-11 -11 -41 -42 -81 -64l-1 8c44 25 82 64 111 101h46zM60 358h333l-2 -10h-333zM280 232c0 -39 -33 -63 -62 -72c32 -17 49 -38 49 -65c0 -63 -64 -102 -125 -102c-50 0 -100 25 -100 73c0 43 38 69 80 77c-20 11 -35 30 -35 57c0 54 49 93 111 93
c47 0 82 -23 82 -61zM201 284c-37 0 -67 -21 -67 -55c0 -22 16 -34 36 -44l40 -21c32 11 60 33 60 67s-33 53 -69 53zM175 115l-45 22c-42 -7 -78 -31 -78 -71c0 -43 47 -64 87 -64c45 0 77 26 77 62c0 23 -14 37 -41 51z" />
    <glyph glyph-name="uni215C" unicode="&#x215c;" horiz-adv-x="397" 
d="M247 410c-55 0 -94 26 -94 65c0 37 29 58 57 63l2 -7c-27 -6 -50 -26 -50 -55c0 -32 32 -54 69 -54c54 0 81 50 81 97c0 32 -18 46 -53 47h-8l2 7h10c47 0 75 36 75 80c0 28 -16 43 -46 43c-40 0 -75 -26 -75 -63c0 -16 8 -25 22 -30l-6 -7c-16 6 -26 18 -26 36
c0 44 44 77 102 77c51 0 89 -23 89 -61c0 -50 -59 -78 -109 -78v-1c41 -3 85 -24 85 -65c0 -58 -61 -94 -127 -94zM60 358h333l-2 -10h-333zM280 232c0 -39 -33 -63 -62 -72c32 -17 49 -38 49 -65c0 -63 -64 -102 -125 -102c-50 0 -100 25 -100 73c0 43 38 69 80 77
c-20 11 -35 30 -35 57c0 54 49 93 111 93c47 0 82 -23 82 -61zM201 284c-37 0 -67 -21 -67 -55c0 -22 16 -34 36 -44l40 -21c32 11 60 33 60 67s-33 53 -69 53zM175 115l-45 22c-42 -7 -78 -31 -78 -71c0 -43 47 -64 87 -64c45 0 77 26 77 62c0 23 -14 37 -41 51z" />
    <glyph glyph-name="uni215D" unicode="&#x215d;" horiz-adv-x="397" 
d="M400 700l-19 -53h-145l-31 -83c18 23 45 35 80 35c50 0 86 -30 86 -75c0 -72 -64 -116 -138 -116c-49 0 -84 25 -84 62c0 27 16 44 36 54l3 -8c-18 -9 -30 -24 -30 -46c0 -32 32 -50 61 -50c55 0 87 45 87 107c0 34 -16 57 -46 57c-24 0 -46 -15 -63 -35h-6l56 151h153z
M60 358h333l-2 -10h-333zM280 232c0 -39 -33 -63 -62 -72c32 -17 49 -38 49 -65c0 -63 -64 -102 -125 -102c-50 0 -100 25 -100 73c0 43 38 69 80 77c-20 11 -35 30 -35 57c0 54 49 93 111 93c47 0 82 -23 82 -61zM201 284c-37 0 -67 -21 -67 -55c0 -22 16 -34 36 -44
l40 -21c32 11 60 33 60 67s-33 53 -69 53zM175 115l-45 22c-42 -7 -78 -31 -78 -71c0 -43 47 -64 87 -64c45 0 77 26 77 62c0 23 -14 37 -41 51z" />
    <glyph glyph-name="uni215E" unicode="&#x215e;" horiz-adv-x="397" 
d="M208 700h207l-1 -5l-60 -70c-55 -66 -88 -135 -99 -216h-63c27 86 89 148 155 220l14 15h-167zM60 358h333l-2 -10h-333zM280 232c0 -39 -33 -63 -62 -72c32 -17 49 -38 49 -65c0 -63 -64 -102 -125 -102c-50 0 -100 25 -100 73c0 43 38 69 80 77c-20 11 -35 30 -35 57
c0 54 49 93 111 93c47 0 82 -23 82 -61zM201 284c-37 0 -67 -21 -67 -55c0 -22 16 -34 36 -44l40 -21c32 11 60 33 60 67s-33 53 -69 53zM175 115l-45 22c-42 -7 -78 -31 -78 -71c0 -43 47 -64 87 -64c45 0 77 26 77 62c0 23 -14 37 -41 51z" />
    <glyph glyph-name="underscore" unicode="_" horiz-adv-x="337" 
d="M-35 -72l3 13h249l-3 -13h-249z" />
    <glyph glyph-name="hyphen" unicode="-" horiz-adv-x="337" 
d="M51 273l3 13h249l-3 -13h-249z" />
    <glyph glyph-name="endash" unicode="&#x2013;" horiz-adv-x="508" 
d="M51 272l3 10h420l-3 -10h-420z" />
    <glyph glyph-name="emdash" unicode="&#x2014;" horiz-adv-x="808" 
d="M51 273l3 10h720l-3 -10h-720z" />
    <glyph glyph-name="parenleft" unicode="(" horiz-adv-x="352" 
d="M444 743c-132 -81 -185 -159 -258 -445c-31 -122 -47 -206 -47 -268c0 -87 30 -132 82 -179l-5 -6c-96 64 -164 178 -164 319c0 228 157 468 389 585z" />
    <glyph glyph-name="parenright" unicode=")" horiz-adv-x="352" 
d="M-67 -149c132 81 185 159 258 445c31 122 47 206 47 268c0 87 -30 132 -82 179l6 6c95 -64 163 -178 163 -319c0 -228 -157 -468 -388 -585z" />
    <glyph glyph-name="bracketleft" unicode="[" horiz-adv-x="353" 
d="M-2 -154l225 903h229l-1 -7l-122 -4l-220 -881l119 -4l-1 -7h-229z" />
    <glyph glyph-name="bracketright" unicode="]" horiz-adv-x="352" 
d="M381 749l-225 -903h-229l2 7l121 4l220 881l-119 4l1 7h229z" />
    <glyph glyph-name="braceleft" unicode="{" horiz-adv-x="393" 
d="M40 292l2 9c68 0 127 33 152 131c13 52 1 111 13 163c20 89 108 154 218 154c27 0 50 -6 70 -16l-3 -9c-19 9 -34 13 -52 13c-64 0 -108 -40 -124 -108c-13 -53 -8 -135 -20 -183c-26 -107 -149 -144 -215 -149c56 -4 146 -35 146 -116c0 -68 -82 -181 -82 -253
c0 -45 29 -71 75 -71c18 0 35 3 58 12l-1 -9c-25 -10 -50 -15 -76 -15c-87 0 -147 49 -147 120c0 74 79 158 79 246c0 60 -38 81 -93 81z" />
    <glyph glyph-name="braceright" unicode="}" horiz-adv-x="393" 
d="M379 301l-3 -9c-68 0 -126 -32 -151 -130c-13 -52 -2 -111 -13 -163c-21 -89 -109 -154 -218 -154c-28 0 -51 5 -71 15l4 9c18 -9 33 -12 52 -12c64 0 107 40 124 108c13 52 7 135 19 182c27 107 150 145 216 150c-57 4 -146 35 -146 115c0 69 81 182 81 253
c0 46 -28 72 -74 72c-19 0 -36 -4 -59 -13l2 10c24 10 50 15 75 15c88 0 148 -49 148 -121c0 -74 -79 -158 -79 -246c0 -60 38 -81 93 -81z" />
    <glyph glyph-name="numbersign" unicode="#" horiz-adv-x="660" 
d="M403 264l77 197h-172l-77 -197h172zM299 0l100 254h-172l-100 -254h-11l100 254h-164l3 10h165l77 197h-158l2 10h160l90 229h11l-90 -229h172l90 229h11l-90 -229h171l-2 -10h-173l-77 -197h166l-3 -10h-167l-100 -254h-11z" />
    <glyph glyph-name="percent" unicode="%" horiz-adv-x="669" 
d="M92 0h-13l528 678c-32 -30 -88 -51 -142 -51c-35 0 -59 8 -77 21c9 -19 13 -36 13 -58c0 -92 -85 -182 -174 -182c-60 0 -109 50 -109 120c0 92 85 182 173 182c77 0 78 -73 174 -73c73 0 125 29 172 77l7 -4zM227 418c69 0 112 146 112 217c0 41 -16 65 -48 65
c-68 0 -112 -146 -112 -217c0 -41 17 -65 48 -65zM432 -4c-60 0 -110 50 -110 121c0 91 86 181 174 181c61 0 110 -49 110 -120c0 -91 -85 -182 -174 -182zM432 6c69 0 112 146 112 218c0 40 -16 64 -48 64c-68 0 -112 -145 -112 -217c0 -40 17 -65 48 -65z" />
    <glyph glyph-name="perthousand" unicode="&#x2030;" horiz-adv-x="982" 
d="M92 0h-13l528 678c-32 -30 -88 -51 -142 -51c-35 0 -59 8 -77 21c8 -17 13 -36 13 -58c0 -92 -85 -182 -174 -182c-60 0 -109 50 -109 120c0 92 85 182 173 182c77 0 78 -73 174 -73c73 0 125 29 172 77l7 -4zM227 418c69 0 112 146 112 217c0 41 -16 65 -48 65
c-68 0 -112 -146 -112 -217c0 -41 17 -65 48 -65zM745 -4c-61 0 -110 50 -110 121c0 91 85 181 173 181c61 0 110 -49 110 -120c0 -91 -85 -182 -173 -182zM432 -4c-60 0 -110 50 -110 121c0 91 86 181 174 181c61 0 110 -49 110 -120c0 -91 -85 -182 -174 -182zM745 6
c68 0 111 146 111 218c0 40 -16 64 -48 64c-68 0 -112 -145 -112 -217c0 -40 17 -65 49 -65zM432 6c69 0 112 146 112 218c0 40 -16 64 -48 64c-68 0 -112 -145 -112 -217c0 -40 17 -65 48 -65z" />
    <glyph glyph-name="quotesingle" unicode="'" horiz-adv-x="210" 
d="M145 418h-4l30 282h96z" />
    <glyph glyph-name="quotedbl" unicode="&#x22;" horiz-adv-x="361" 
d="M296 418h-5l31 282h96zM145 418h-4l30 282h96z" />
    <glyph glyph-name="quoteleft" unicode="&#x2018;" horiz-adv-x="235" 
d="M261 562l-33 -134h-130l35 142c23 94 94 140 181 140l-2 -10c-81 0 -147 -44 -169 -130l-2 -8h120z" />
    <glyph glyph-name="quoteright" unicode="&#x2019;" horiz-adv-x="235" 
d="M134 566l33 134h130l-35 -142c-23 -94 -94 -140 -181 -140l2 10c81 0 147 44 169 130l2 8h-120z" />
    <glyph glyph-name="quotedblleft" unicode="&#x201c;" horiz-adv-x="427" 
d="M453 562l-33 -134h-130l35 142c23 94 94 140 181 140l-2 -10c-81 0 -147 -44 -169 -130l-2 -8h120zM261 562l-33 -134h-130l35 142c23 94 94 140 181 140l-2 -10c-81 0 -147 -44 -169 -130l-2 -8h120z" />
    <glyph glyph-name="quotedblright" unicode="&#x201d;" horiz-adv-x="428" 
d="M327 566l33 134h130l-35 -142c-23 -94 -94 -140 -181 -140l2 10c81 0 147 44 169 130l2 8h-120zM134 566l33 134h130l-35 -142c-23 -94 -94 -140 -181 -140l2 10c81 0 147 44 169 130l2 8h-120z" />
    <glyph glyph-name="quotesinglbase" unicode="&#x201a;" horiz-adv-x="235" 
d="M-7 1l33 134h130l-35 -142c-23 -94 -94 -140 -181 -140l2 10c81 0 147 44 169 130l2 8h-120z" />
    <glyph glyph-name="quotedblbase" unicode="&#x201e;" horiz-adv-x="428" 
d="M186 1l33 134h130l-35 -142c-23 -94 -94 -140 -181 -140l2 10c81 0 147 44 169 130l2 8h-120zM-7 1l33 134h130l-35 -142c-23 -94 -94 -140 -181 -140l2 10c81 0 147 44 169 130l2 8h-120z" />
    <glyph glyph-name="guilsinglleft" unicode="&#x2039;" horiz-adv-x="320" 
d="M39 243v2l287 207h5l-189 -211l84 -205h-4z" />
    <glyph glyph-name="guilsinglright" unicode="&#x203a;" horiz-adv-x="320" 
d="M280 246l-1 -3l-286 -207h-5l189 212l-85 204h4z" />
    <glyph glyph-name="guillemotleft" unicode="&#xab;" horiz-adv-x="487" 
d="M39 243v2l287 207h5l-189 -211l84 -205h-4zM206 243l1 2l287 207h4l-189 -211l85 -205h-4z" />
    <glyph glyph-name="guillemotright" unicode="&#xbb;" horiz-adv-x="487" 
d="M280 246l-1 -3l-286 -207h-5l189 212l-85 204h4zM447 246v-3l-287 -207h-5l190 212l-85 204h4z" />
    <glyph glyph-name="asterisk" unicode="*" horiz-adv-x="427" 
d="M260 408l-10 2l39 159l-157 -45l-2 10l157 45l-119 112l7 8l118 -113l39 158l10 -2l-39 -158l157 45l3 -10l-157 -44l118 -114l-7 -7l-118 113z" />
    <glyph glyph-name="dagger" unicode="&#x2020;" horiz-adv-x="350" 
d="M198 355l65 261h-110l2 10h110l31 123h10l-31 -123h110l-2 -10h-110l-65 -261h-10z" />
    <glyph glyph-name="daggerdbl" unicode="&#x2021;" horiz-adv-x="350" 
d="M198 355l31 123h-111l3 10h110l32 128h-110l2 10h110l31 123h10l-31 -123h110l-2 -10h-110l-32 -128h110l-3 -10h-109l-31 -123h-10z" />
    <glyph glyph-name="period" unicode="." horiz-adv-x="244" 
d="M-4 0l33 134h130l-33 -134h-130z" />
    <glyph glyph-name="comma" unicode="," horiz-adv-x="244" 
d="M-4 0l33 134h130l-35 -142c-23 -93 -82 -152 -192 -152l2 10c104 0 157 55 178 142l2 8h-118z" />
    <glyph glyph-name="colon" unicode=":" horiz-adv-x="244" 
d="M73 308l33 133h130l-33 -133h-130zM-4 0l33 134h130l-33 -134h-130z" />
    <glyph glyph-name="semicolon" unicode=";" horiz-adv-x="244" 
d="M73 308l33 133h130l-33 -133h-130zM-4 0l33 134h130l-35 -142c-23 -93 -82 -152 -192 -152l2 10c104 0 157 55 178 142l2 8h-118z" />
    <glyph glyph-name="ellipsis" unicode="&#x2026;" horiz-adv-x="656" 
d="M-4 0l33 134h130l-33 -134h-130zM202 0l33 134h130l-33 -134h-130zM408 0l33 134h130l-33 -134h-130z" />
    <glyph glyph-name="exclam" unicode="!" horiz-adv-x="248" 
d="M119 217h-4l47 483h152zM-2 0l33 134h130l-33 -134h-130z" />
    <glyph glyph-name="exclamdown" unicode="&#xa1;" horiz-adv-x="248" 
d="M266 552l-33 -134h-130l33 134h130zM145 335h4l-47 -483h-152z" />
    <glyph glyph-name="question" unicode="?" horiz-adv-x="521" 
d="M273 388c99 6 198 78 198 191c0 75 -46 117 -132 117c-135 0 -233 -95 -233 -203c0 -43 21 -76 52 -86l-5 -8c-33 10 -57 47 -57 94c0 115 109 217 256 217c130 0 211 -68 211 -164c0 -159 -170 -248 -304 -254l-18 -76h-10zM122 0l33 134h130l-33 -134h-130z" />
    <glyph glyph-name="questiondown" unicode="&#xbf;" horiz-adv-x="521" 
d="M415 552l-33 -134h-130l33 134h130zM264 164c-99 -6 -198 -78 -198 -191c0 -75 46 -117 132 -117c135 0 233 95 233 203c0 43 -21 76 -52 86l5 8c33 -10 57 -47 57 -94c0 -115 -109 -217 -256 -217c-130 0 -211 68 -211 164c0 159 170 248 304 254l18 76h10z" />
    <glyph glyph-name="slash" unicode="/" horiz-adv-x="351" 
d="M-79 -153l525 902h12l-525 -902h-12z" />
    <glyph glyph-name="backslash" unicode="\" horiz-adv-x="351" 
d="M232 -153h-10l-75 902h10z" />
    <glyph glyph-name="fraction" unicode="&#x2044;" horiz-adv-x="343" 
d="M-72 -123l512 872h9l-512 -872h-9z" />
    <glyph glyph-name="bar" unicode="|" horiz-adv-x="214" 
d="M3 -153l225 902h10l-225 -902h-10z" />
    <glyph glyph-name="at" unicode="@" horiz-adv-x="939" 
d="M623 80c0 -36 23 -57 56 -57c73 0 209 112 209 306c0 193 -150 314 -350 314c-249 0 -485 -207 -485 -487c0 -212 155 -353 384 -353c109 0 212 31 294 88l6 -8c-86 -60 -194 -90 -301 -90c-234 0 -393 146 -393 363c0 285 240 497 495 497c205 0 360 -126 360 -324
c0 -201 -140 -323 -246 -323c-68 0 -121 38 -126 112c-30 -57 -88 -109 -159 -109c-81 0 -128 60 -128 149c0 145 110 286 241 286c68 0 108 -49 107 -113l37 104h97l-92 -317c-4 -13 -6 -27 -6 -38zM538 159l30 106c6 20 10 38 10 59c0 55 -24 89 -70 89
c-92 0 -165 -154 -165 -282c0 -57 17 -91 61 -91c57 0 110 55 134 119z" />
    <glyph glyph-name="ampersand" unicode="&#x26;" horiz-adv-x="827" 
d="M608 -10c-86 0 -153 36 -204 89c-57 -52 -118 -89 -190 -89c-120 0 -205 74 -205 181c0 134 120 205 260 246c-1 10 -1 19 -1 28c0 147 89 265 211 265c78 0 121 -43 121 -107c0 -104 -130 -154 -220 -171c14 -94 50 -188 98 -262c87 98 181 215 301 253l3 -10
c-121 -39 -210 -152 -298 -251c52 -77 118 -128 187 -128c59 0 111 47 120 131h10c-8 -103 -92 -175 -193 -175zM374 516c0 -24 2 -49 5 -74c85 16 211 63 211 161c0 57 -33 92 -90 92c-75 0 -126 -73 -126 -179zM271 24c43 0 85 25 126 63c-80 89 -119 222 -127 320
c-69 -23 -149 -75 -149 -203c0 -107 56 -180 150 -180z" />
    <glyph glyph-name="section" unicode="&#xa7;" horiz-adv-x="577" 
d="M324 117c31 -31 53 -58 66 -87c37 22 64 56 64 97c0 38 -24 67 -61 105l-141 136c-31 31 -53 58 -66 88c-37 -22 -64 -57 -64 -97c0 -38 24 -67 61 -105zM193 -224c-80 0 -151 48 -159 123l10 4c9 -74 76 -117 149 -117c95 0 131 65 131 124c0 45 -26 75 -72 119
l-113 109c-48 47 -75 83 -75 142c0 79 57 150 119 184c-6 17 -9 34 -9 53c0 105 78 193 207 193c80 0 145 -48 154 -123l-10 -4c-9 75 -71 117 -144 117c-94 0 -129 -65 -129 -124c0 -45 26 -75 72 -119l113 -110c48 -46 75 -83 75 -141c0 -79 -57 -150 -119 -185
c6 -16 9 -33 9 -52c0 -105 -80 -193 -209 -193z" />
    <glyph glyph-name="paragraph" unicode="&#xb6;" horiz-adv-x="552" 
d="M90 -133c0 -44 34 -82 88 -82c86 0 142 71 177 210l173 695h-49l-144 -577l-9 3l41 164c-140 0 -262 68 -262 187c0 171 187 233 360 233h126l-3 -10h-50l-174 -697c-36 -144 -96 -218 -186 -218c-63 0 -98 44 -98 92c0 25 10 49 27 65l8 -5c-15 -16 -25 -33 -25 -60z
" />
    <glyph glyph-name="periodcentered" unicode="&#xb7;" horiz-adv-x="231" 
d="M43 212l33 134h130l-33 -134h-130z" />
    <glyph glyph-name="bullet" unicode="&#x2022;" horiz-adv-x="404" 
d="M66 278c0 79 66 146 145 146s144 -67 144 -146s-65 -145 -144 -145s-145 66 -145 145z" />
    <glyph glyph-name="plus" unicode="+" horiz-adv-x="463" 
d="M437 315h-184l-45 -182h-10l45 182h-181l2 10h182l45 182h10l-45 -182h183z" />
    <glyph glyph-name="minus" unicode="&#x2212;" horiz-adv-x="479" 
d="M62 315l2 10h391l-2 -10h-391z" />
    <glyph glyph-name="plusminus" unicode="&#xb1;" horiz-adv-x="463" 
d="M447 355h-183l-38 -152h-10l38 152h-182l2 10h182l38 152h10l-38 -152h183zM14 124l2 10h375l-2 -10h-375z" />
    <glyph glyph-name="divide" unicode="&#xf7;" horiz-adv-x="495" 
d="M252 435l20 82h85l-20 -82h-85zM62 315l2 10h406l-2 -10h-406zM174 123l21 82h85l-21 -82h-85z" />
    <glyph glyph-name="multiply" unicode="&#xd7;" horiz-adv-x="387" 
d="M311 171l-103 137l-169 -136l-6 8l169 136l-101 135l8 6l102 -135l170 137l6 -8l-170 -136l103 -137z" />
    <glyph glyph-name="equal" unicode="=" horiz-adv-x="479" 
d="M78 380l2 10h391l-2 -10h-391zM42 237l3 10h391l-3 -10h-391z" />
    <glyph glyph-name="less" unicode="&#x3c;" horiz-adv-x="372" 
d="M59 305l3 10l325 165l-3 -12l-314 -159l234 -159l-2 -10z" />
    <glyph glyph-name="greater" unicode="&#x3e;" horiz-adv-x="372" 
d="M346 315l-3 -10l-325 -165l3 12l314 159l-234 159l2 10z" />
    <glyph glyph-name="lessequal" unicode="&#x2264;" horiz-adv-x="373" 
d="M67 335l2 10l318 135l-4 -12l-303 -129l239 -129l-2 -10zM14 124l2 10h285l-2 -10h-285z" />
    <glyph glyph-name="greaterequal" unicode="&#x2265;" horiz-adv-x="373" 
d="M354 345l-2 -10l-318 -135l4 12l303 129l-239 129l2 10zM299 124h-285l2 10h285z" />
    <glyph glyph-name="approxequal" unicode="&#x2248;" horiz-adv-x="480" 
d="M70 345l3 14c47 38 82 52 114 52c66 0 105 -56 169 -56c34 0 72 16 121 56l-3 -13c-49 -40 -86 -53 -118 -53c-65 0 -105 56 -168 56c-34 0 -71 -18 -118 -56zM38 218l3 14c47 38 83 52 115 52c66 0 104 -56 168 -56c34 0 72 16 121 56l-2 -13c-49 -40 -87 -53 -119 -53
c-65 0 -105 56 -168 56c-34 0 -71 -18 -118 -56z" />
    <glyph glyph-name="notequal" unicode="&#x2260;" horiz-adv-x="479" 
d="M433 237h-250l-113 -102h-15l113 102h-126l3 10h134l148 133h-249l2 10h258l110 99h15l-110 -99h118l-2 -10h-127l-148 -133h242z" />
    <glyph glyph-name="dollar" unicode="$" horiz-adv-x="560" 
d="M287 442l73 -29l69 278c-22 6 -47 9 -77 9zM182 561c0 -67 43 -92 96 -115l64 254c-100 -5 -160 -61 -160 -139zM253 0h4l73 293l-73 28l-77 -312c23 -6 47 -9 73 -9zM445 170c0 58 -39 92 -106 119l-72 -289c108 5 178 68 178 170zM255 -10c-29 0 -54 3 -78 9l-26 -105
h-10l27 108c-89 25 -152 91 -172 170l10 6c20 -80 81 -142 164 -166l78 312l-13 5c-75 29 -132 76 -132 159c0 124 97 218 241 222l23 92h10l-23 -92c29 0 54 -3 78 -9l25 101h10l-26 -104c78 -23 125 -79 139 -150l-10 -4c-13 69 -57 122 -131 144l-70 -279l24 -10
c81 -32 136 -82 136 -166c0 -143 -115 -238 -264 -243l-24 -96h-10z" />
    <glyph glyph-name="cent" unicode="&#xa2;" horiz-adv-x="485" 
d="M143 154c0 -80 30 -129 80 -142l131 472c-129 0 -211 -173 -211 -330zM437 129c-37 -85 -113 -137 -210 -139l-29 -104h-10l29 104c-107 1 -187 76 -187 196c0 165 129 314 299 314c10 0 20 -1 29 -2l32 114h10l-32 -115c68 -11 103 -53 103 -106c0 -56 -32 -88 -73 -103
l-4 9c42 15 67 44 67 94c0 52 -34 89 -97 93l-132 -474c7 -1 15 -2 22 -2c71 0 139 44 174 125z" />
    <glyph glyph-name="sterling" unicode="&#xa3;" horiz-adv-x="668" 
d="M437 -10c-85 0 -143 60 -207 109c-52 -73 -112 -109 -168 -109s-91 40 -91 83c0 60 52 97 109 97c36 0 73 -10 110 -23c9 28 15 60 21 96c4 35 8 73 12 111h-106l2 10h105c4 31 8 61 13 91c20 155 130 255 279 255c112 0 163 -58 163 -121c0 -72 -51 -117 -104 -130l-1 8
c50 15 95 55 95 122c0 54 -42 101 -113 101c-87 0 -147 -66 -179 -194l-33 -132h147l-2 -10h-148c-25 -95 -57 -171 -93 -229c61 -23 127 -47 204 -47c82 0 141 32 141 107c0 21 -12 41 -31 52l7 7c24 -13 39 -40 39 -77c0 -94 -64 -177 -171 -177zM59 1c58 0 99 46 126 128
c-31 19 -65 31 -105 31c-50 0 -99 -29 -99 -87c0 -41 31 -72 78 -72z" />
    <glyph glyph-name="yen" unicode="&#xa5;" horiz-adv-x="620" 
d="M551 235h-182l-58 -235h-123l59 235h-181l2 10h182l11 45l-15 54h-153l2 10h148l-99 346h130l104 -397l313 397h13l-273 -346h149l-2 -10h-155l-39 -50l-12 -49h181z" />
    <glyph glyph-name="Euro" unicode="&#x20ac;" horiz-adv-x="626" 
d="M316 -10c-125 0 -215 99 -215 253c0 18 1 37 3 55h-71l2 10h70c5 31 12 61 21 91h-69l3 10h70c58 167 198 301 357 301c117 0 171 -76 168 -194l-10 -3c3 112 -46 180 -133 180c-119 0 -210 -129 -256 -284h234l-6 -10h-231c-8 -30 -15 -60 -20 -91h201l-5 -10h-198
c-6 -40 -9 -80 -9 -119c0 -107 43 -171 127 -171c88 0 179 71 219 182l9 -4c-44 -118 -141 -196 -261 -196z" />
    <glyph glyph-name="uni0192" unicode="&#x192;" horiz-adv-x="492" 
d="M-53 -187c-64 0 -107 36 -107 86c0 35 19 67 51 87l5 -7c-31 -21 -46 -50 -46 -79c0 -40 32 -70 75 -70c73 0 119 57 165 217l90 322h-98l4 11h97l24 84c44 159 130 246 249 246c72 0 108 -35 108 -83c0 -36 -18 -69 -51 -88l-5 7c31 20 46 49 46 80c0 38 -26 66 -72 66
c-73 0 -111 -55 -157 -216l-27 -96h128l-4 -11h-127l-81 -285c-50 -180 -144 -271 -267 -271z" />
    <glyph glyph-name="asciicircum" unicode="^" horiz-adv-x="490" 
d="M360 710h2l135 -278h-9l-129 266l-261 -266h-11z" />
    <glyph glyph-name="asciitilde" unicode="~" horiz-adv-x="495" 
d="M338 254c-58 0 -138 94 -193 94c-43 0 -73 -28 -92 -98h-8c22 99 88 174 159 174c62 0 138 -95 193 -95c43 0 73 29 92 99h8c-21 -99 -88 -174 -159 -174z" />
    <glyph glyph-name="acute" unicode="&#xb4;" horiz-adv-x="500" 
d="M350 749h112l-217 -196h-4z" />
    <glyph glyph-name="grave" unicode="`" horiz-adv-x="500" 
d="M392 553l-120 196h108l16 -196h-4z" />
    <glyph glyph-name="hungarumlaut" unicode="&#x2dd;" horiz-adv-x="500" 
d="M438 749h104l-210 -196h-4zM275 749h104l-210 -196h-4z" />
    <glyph glyph-name="circumflex" unicode="&#x2c6;" horiz-adv-x="500" 
d="M399 546l-75 143l-149 -143h-13l216 207h2l108 -207h-89z" />
    <glyph glyph-name="caron" unicode="&#x2c7;" horiz-adv-x="500" 
d="M324 546h-2l-108 207h89l74 -143l150 143h13z" />
    <glyph glyph-name="breve" unicode="&#x2d8;" horiz-adv-x="500" 
d="M525 752c-28 -115 -100 -191 -194 -191c-90 0 -132 76 -104 191h6c-14 -82 18 -118 114 -118s147 36 172 118h6z" />
    <glyph glyph-name="tilde" unicode="&#x2dc;" horiz-adv-x="500" 
d="M401 578c-58 0 -93 87 -145 87c-34 0 -61 -28 -83 -90h-9c26 88 76 149 139 149c62 0 93 -87 147 -87c32 0 59 28 81 90h9c-26 -88 -75 -149 -139 -149z" />
    <glyph glyph-name="macron" unicode="&#xaf;" horiz-adv-x="500" 
d="M490 632h-288l3 10h288z" />
    <glyph glyph-name="dieresis" unicode="&#xa8;" horiz-adv-x="500" 
d="M370 589l32 127h95l-31 -127h-96zM206 589l32 127h95l-31 -127h-96z" />
    <glyph glyph-name="dotaccent" unicode="&#x2d9;" horiz-adv-x="499" 
d="M276 589l32 127h118l-31 -127h-119z" />
    <glyph glyph-name="ring" unicode="&#x2da;" horiz-adv-x="499" 
d="M248 646c0 59 51 101 103 101c47 0 82 -35 82 -81c0 -59 -51 -100 -104 -100c-46 0 -81 35 -81 80zM423 666c0 40 -31 71 -72 71c-47 0 -93 -38 -93 -91c0 -39 31 -70 71 -70c48 0 94 37 94 90z" />
    <glyph glyph-name="cedilla" unicode="&#xb8;" horiz-adv-x="500" 
d="M45 -166l9 5c9 -31 34 -49 67 -49c47 0 79 42 79 92c0 33 -23 47 -75 47l50 73h9l-44 -65c68 0 122 -21 122 -69c0 -52 -53 -93 -122 -93c-54 0 -85 26 -95 59z" />
    <glyph glyph-name="ogonek" unicode="&#x2db;" horiz-adv-x="500" 
d="M40 -153c0 62 81 106 194 162l3 -6c-90 -50 -132 -92 -132 -154c0 -34 19 -56 49 -56c44 0 80 29 107 79l7 -4c-35 -64 -85 -93 -140 -93c-49 0 -88 30 -88 72z" />
    <glyph glyph-name="copyright" unicode="&#xa9;" horiz-adv-x="812" 
d="M72 319c0 230 177 391 386 391c189 0 336 -136 336 -329c0 -230 -177 -391 -386 -391c-189 0 -336 136 -336 329zM784 381c0 187 -143 319 -326 319c-204 0 -376 -157 -376 -381c0 -187 143 -319 326 -319c204 0 376 157 376 381zM491 577c87 0 138 -50 144 -121l-10 -2
c-4 66 -53 109 -118 109c-113 0 -189 -137 -189 -279c0 -106 51 -146 113 -146c66 0 126 34 161 105l9 -4c-39 -76 -107 -115 -189 -115c-99 0 -188 70 -188 189c0 143 122 264 267 264z" />
    <glyph glyph-name="registered" unicode="&#xae;" horiz-adv-x="543" 
d="M550 503c0 -125 -112 -225 -231 -225s-201 82 -201 207s112 225 231 225s201 -82 201 -207zM540 503c0 119 -78 197 -191 197c-114 0 -221 -95 -221 -215c0 -119 78 -197 191 -197c114 0 221 95 221 215zM317 604l-27 -108h34c37 0 70 20 70 69c0 25 -11 39 -43 39h-34z
M288 486l-27 -108h-54l59 236h114c45 0 69 -23 69 -55c0 -37 -40 -66 -83 -68v-1c27 -2 38 -15 42 -41l4 -34c2 -14 6 -24 13 -37h-57c-6 10 -8 23 -9 33l-4 38c-2 23 -13 37 -40 37h-27z" />
    <glyph glyph-name="trademark" unicode="&#x2122;" horiz-adv-x="725" 
d="M185 427l66 263h-103l3 10h271l-3 -10h-102l-66 -263h-66zM570 513l119 187h74l-69 -273h-67l66 262l-168 -263h-8l-44 263l-66 -262h-10l69 273h74z" />
    <glyph glyph-name="degree" unicode="&#xb0;" horiz-adv-x="329" 
d="M369 622c0 -66 -56 -124 -125 -124c-59 0 -103 43 -103 99c0 66 56 124 125 124c59 0 103 -43 103 -99zM151 597c0 -51 40 -89 93 -89c63 0 115 53 115 114c0 51 -40 89 -93 89c-63 0 -115 -53 -115 -114z" />
    <glyph glyph-name=".null" horiz-adv-x="500" 
 />
    <glyph glyph-name="uni000D" unicode="&#xd;" horiz-adv-x="500" 
 />
    <glyph glyph-name="uni2116" unicode="&#x2116;" horiz-adv-x="1430" 
d="M513 684c-62 -316 -192 -694 -395 -694c-67 0 -130 44 -130 127c0 73 51 118 103 133l3 -10c-50 -13 -96 -57 -96 -123c0 -75 57 -117 120 -117c192 0 321 361 387 690h-38c-224 0 -330 -105 -330 -212c0 -51 34 -84 79 -103l-5 -8c-44 16 -84 56 -84 111
c0 113 113 222 341 222h170l187 -543c79 317 210 632 449 632c50 0 88 -15 116 -37l-5 -8c-29 22 -65 35 -111 35c-231 0 -358 -309 -439 -622l-45 -164h-45zM1061 439c0 118 97 219 215 219c85 0 144 -62 144 -141c0 -119 -97 -219 -215 -219c-85 0 -144 62 -144 141z
M1143 389c0 -53 19 -82 60 -82c46 0 81 50 106 118c18 52 28 102 28 141c0 54 -18 82 -59 82c-46 0 -81 -49 -106 -117c-19 -52 -29 -103 -29 -142zM1033 222l3 10h306l-3 -10h-306z" />
    <glyph glyph-name="uni00200326" horiz-adv-x="500" 
d="M85 -166l28 114h126l-29 -115c-16 -62 -68 -115 -166 -103l3 10c92 -11 138 34 153 94h-115z" />
    <glyph glyph-name="uni02BB" unicode="&#x2bb;" horiz-adv-x="500" 
d="M423 687l-29 -114h-126l29 114c16 63 68 116 165 104l-2 -10c-92 11 -138 -35 -152 -94h115z" />
    <glyph glyph-name="uni00200323" horiz-adv-x="499" 
d="M78 -198l32 129h122l-32 -129h-122z" />
    <glyph glyph-name="i.dot" horiz-adv-x="285" 
d="M158 589l32 127h118l-31 -127h-119zM248 490l-102 -410c-2 -10 -4 -19 -4 -27c0 -22 11 -36 33 -36c27 0 54 22 74 66l7 -4c-28 -60 -73 -89 -129 -89c-61 0 -94 36 -94 86c0 10 1 22 4 33l95 381h116z" />
    <glyph glyph-name="onesuperior" unicode="&#xb9;" horiz-adv-x="220" 
d="M199 414h-64l62 247c-10 -11 -40 -42 -80 -64l-1 8c44 25 82 64 110 101h47z" />
    <glyph glyph-name="uni2117" unicode="&#x2117;" horiz-adv-x="817" 
d="M460 710c189 0 336 -136 336 -329c0 -230 -177 -391 -386 -391c-189 0 -336 136 -336 329c0 230 177 391 386 391zM460 700c-204 0 -376 -157 -376 -381c0 -187 143 -319 326 -319c204 0 376 157 376 381c0 187 -143 319 -326 319zM459 313h-94l-41 -164h-80l102 408h166
c87 0 143 -36 143 -102c0 -92 -95 -142 -196 -142zM368 323h60c86 0 143 51 143 144c0 54 -29 80 -93 80h-55z" />
    <glyph glyph-name="uni2009" unicode="&#x2009;" horiz-adv-x="40" 
 />
    <glyph glyph-name="threesuperior" unicode="&#xb3;" horiz-adv-x="279" 
d="M183 410c-55 0 -94 26 -94 65c0 37 29 58 57 63l3 -7c-28 -6 -51 -26 -51 -55c0 -32 32 -54 69 -54c54 0 81 50 81 97c0 32 -18 46 -52 47h-9l2 7h10c47 0 75 36 75 80c0 28 -16 43 -46 43c-40 0 -75 -26 -75 -63c0 -16 8 -25 22 -30l-6 -7c-16 6 -26 18 -26 36
c0 44 45 77 102 77c51 0 89 -23 89 -61c0 -50 -59 -78 -109 -78v-1c41 -3 85 -24 85 -65c0 -58 -60 -94 -127 -94z" />
    <glyph glyph-name="twosuperior" unicode="&#xb2;" horiz-adv-x="279" 
d="M137 466h166l-14 -52h-217l2 6l103 84c68 55 101 100 101 146c0 28 -16 45 -47 45c-45 0 -84 -36 -84 -78c0 -18 9 -30 23 -35l-5 -6c-17 4 -28 19 -28 40c0 51 50 93 113 93c53 0 91 -25 91 -67c0 -68 -81 -110 -204 -176z" />
    <glyph glyph-name="uni0237" unicode="&#x237;" horiz-adv-x="267" 
d="M4 -61l137 551h116l-130 -524c-29 -117 -99 -191 -212 -191c-75 0 -117 38 -117 90c0 30 17 56 40 71l7 -7c-23 -14 -36 -37 -36 -64c0 -46 34 -72 76 -72c56 0 93 42 119 146z" />
    <glyph glyph-name="uni2153" unicode="&#x2153;" horiz-adv-x="397" 
d="M266 414h-64l63 247c-11 -11 -41 -42 -81 -64l-1 8c44 25 82 64 111 101h46zM60 358h333l-2 -10h-333zM133 -6c-54 0 -94 26 -94 65c0 37 30 58 57 63l3 -7c-27 -6 -50 -26 -50 -56c0 -31 32 -53 69 -53c54 0 80 49 80 96c0 33 -18 47 -52 47h-9l2 8h10c47 0 75 36 75 80
c0 28 -15 43 -46 43c-39 0 -75 -27 -75 -64c0 -15 8 -25 23 -29l-6 -7c-16 5 -27 18 -27 36c0 43 45 77 103 77c51 0 88 -24 88 -62c0 -49 -59 -78 -108 -78v-1c41 -3 85 -23 85 -64c0 -59 -61 -94 -128 -94z" />
    <glyph glyph-name="uni2154" unicode="&#x2154;" horiz-adv-x="397" 
d="M196 466h165l-14 -52h-217l2 6l103 84c68 55 101 100 101 146c0 28 -16 45 -47 45c-45 0 -84 -36 -84 -78c0 -18 9 -30 24 -35l-6 -6c-16 4 -27 19 -27 40c0 51 49 93 113 93c53 0 90 -25 90 -67c0 -68 -80 -110 -203 -176zM60 358h333l-2 -10h-333zM133 -6
c-54 0 -94 26 -94 65c0 37 30 58 57 63l3 -7c-27 -6 -50 -26 -50 -56c0 -31 32 -53 69 -53c54 0 80 49 80 96c0 33 -18 47 -52 47h-9l2 8h10c47 0 75 36 75 80c0 28 -15 43 -46 43c-39 0 -75 -27 -75 -64c0 -15 8 -25 23 -29l-6 -7c-16 5 -27 18 -27 36c0 43 45 77 103 77
c51 0 88 -24 88 -62c0 -49 -59 -78 -108 -78v-1c41 -3 85 -23 85 -64c0 -59 -61 -94 -128 -94z" />
    <glyph glyph-name="f_f.short" horiz-adv-x="614" 
d="M251 490h189l13 54c12 50 33 96 62 133c-14 31 -46 55 -92 55c-90 0 -127 -69 -155 -178zM249 480l-175 -695h-115l174 695h-73l3 10h71l13 46c31 118 116 212 251 212c63 0 106 -26 124 -63c38 45 88 74 151 74c62 0 93 -28 93 -72c0 -25 -10 -51 -30 -70l-6 6
c18 19 26 41 26 64c0 36 -23 55 -61 55c-56 0 -92 -54 -112 -140l-27 -112h130l-5 -10h-127l-170 -674h-115l168 674h-188z" />
    <glyph glyph-name="f.short" horiz-adv-x="309" 
d="M135 490l13 54c29 117 104 215 221 215c61 0 93 -28 93 -72c0 -25 -11 -51 -30 -70l-6 6c17 19 26 41 26 64c0 36 -24 55 -62 55c-55 0 -92 -54 -112 -140l-27 -112h130l-4 -10h-128l-175 -695h-115l174 695h-73l3 10h72z" />
    <glyph glyph-name="caron.Slovak" horiz-adv-x="500" 
d="M452 749l-188 -217h-4l88 217h104z" />
    <glyph glyph-name="hyphen.cap" horiz-adv-x="337" 
d="M65 329l3 13h249l-3 -13h-249z" />
    <glyph glyph-name="endash.cap" horiz-adv-x="509" 
d="M65 328l3 10h420l-3 -10h-420z" />
    <glyph glyph-name="emdash.cap" horiz-adv-x="808" 
d="M65 329l3 10h720l-3 -10h-720z" />
    <glyph glyph-name="parenleft.cap" horiz-adv-x="356" 
d="M449 743c-132 -76 -185 -150 -258 -419c-31 -116 -43 -194 -43 -252c0 -82 28 -125 80 -170l-6 -6c-95 61 -163 168 -163 301c0 215 153 438 386 552z" />
    <glyph glyph-name="parenright.cap" horiz-adv-x="357" 
d="M-54 -97c132 76 185 149 258 419c31 115 43 193 43 251c0 82 -27 125 -79 170l5 6c95 -61 163 -167 163 -301c0 -215 -153 -438 -386 -552z" />
    <glyph glyph-name="bracketleft.cap" horiz-adv-x="353" 
d="M10 -104l213 853h229l-1 -7l-122 -4l-208 -831l119 -4l-1 -7h-229z" />
    <glyph glyph-name="bracketright.cap" horiz-adv-x="352" 
d="M381 749l-212 -853h-229l1 7l121 4l208 831l-119 4l1 7h229z" />
    <glyph glyph-name="braceleft.cap" horiz-adv-x="396" 
d="M46 319l3 8c68 0 126 31 151 123c12 49 2 106 13 156c20 83 107 143 215 143c28 0 51 -5 70 -15l-3 -8c-18 8 -33 12 -52 12c-63 0 -107 -39 -123 -103c-13 -49 -8 -126 -19 -171c-27 -102 -149 -137 -214 -141c56 -4 144 -33 144 -109c0 -65 -81 -171 -81 -238
c0 -43 28 -68 74 -68c18 0 35 4 58 12v-10c-25 -9 -50 -14 -75 -14c-87 0 -147 46 -147 114c0 70 79 149 79 232c0 56 -38 77 -93 77z" />
    <glyph glyph-name="braceright.cap" horiz-adv-x="396" 
d="M389 326l-3 -8c-68 0 -126 -31 -151 -123c-13 -49 -2 -106 -13 -156c-20 -83 -107 -143 -216 -143c-27 0 -50 5 -69 15l3 8c18 -8 33 -12 51 -12c64 0 108 39 124 103c13 49 7 126 19 171c27 102 149 137 214 141c-56 4 -144 33 -144 109c0 65 81 171 81 238
c0 43 -28 68 -74 68c-19 0 -35 -4 -58 -12v10c25 9 50 14 75 14c87 0 147 -46 147 -114c0 -70 -79 -149 -79 -232c0 -56 38 -77 93 -77z" />
    <glyph glyph-name="guilsinglleft.cap" horiz-adv-x="320" 
d="M63 333v2l287 207h5l-189 -211l84 -205h-4z" />
    <glyph glyph-name="guilsinglright.cap" horiz-adv-x="320" 
d="M302 336v-3l-287 -207h-5l189 212l-84 204h4z" />
    <glyph glyph-name="guillemotleft.cap" horiz-adv-x="488" 
d="M63 333v2l287 207h5l-189 -211l84 -205h-4zM230 333l1 2l287 207h4l-189 -211l85 -205h-4z" />
    <glyph glyph-name="guillemotright.cap" horiz-adv-x="487" 
d="M302 336v-3l-287 -207h-5l189 212l-84 204h4zM470 336l-1 -3l-287 -207h-4l189 212l-85 204h4z" />
    <glyph glyph-name="slash.cap" horiz-adv-x="351" 
d="M-65 -103l508 852h12l-508 -852h-12z" />
    <glyph glyph-name="backslash.cap" horiz-adv-x="351" 
d="M241 -103h-10l-81 852h10z" />
    <glyph glyph-name="bar.cap" horiz-adv-x="214" 
d="M15 -103l213 852h10l-213 -852h-10z" />
    <glyph glyph-name="at.cap" horiz-adv-x="939" 
d="M651 193c0 -36 23 -57 56 -57c73 0 209 112 209 306c0 193 -150 314 -350 314c-249 0 -485 -207 -485 -487c0 -212 155 -353 384 -353c109 0 212 31 294 88l6 -8c-86 -60 -194 -90 -301 -90c-234 0 -393 146 -393 363c0 285 240 497 495 497c205 0 360 -126 360 -324
c0 -201 -140 -323 -246 -323c-68 0 -121 38 -126 112c-30 -57 -88 -109 -159 -109c-81 0 -128 60 -128 149c0 145 110 286 241 286c68 0 108 -49 107 -113l37 104h97l-92 -317c-4 -13 -6 -27 -6 -38zM566 272l30 106c6 20 10 38 10 59c0 55 -24 89 -70 89
c-92 0 -165 -154 -165 -282c0 -57 17 -91 61 -91c57 0 110 55 134 119z" />
    <glyph glyph-name="exclamdown.cap" horiz-adv-x="248" 
d="M303 700l-33 -134h-130l33 134h130zM182 483h4l-47 -483h-152z" />
    <glyph glyph-name="questiondown.cap" horiz-adv-x="521" 
d="M452 701l-33 -134h-130l33 134h130zM301 313c-99 -6 -198 -78 -198 -191c0 -75 46 -117 132 -117c135 0 233 95 233 203c0 43 -21 76 -52 86l5 8c33 -10 57 -47 57 -94c0 -115 -109 -217 -256 -217c-130 0 -211 68 -211 164c0 159 170 248 304 254l18 76h10z" />
    <glyph glyph-name="periodcentered.cap" horiz-adv-x="231" 
d="M57 268l33 134h130l-33 -134h-130z" />
    <glyph glyph-name="bullet.cap" horiz-adv-x="398" 
d="M77 334c0 79 66 146 145 146s144 -67 144 -146s-65 -145 -144 -145s-145 66 -145 145z" />
    <glyph glyph-name="A.1" horiz-adv-x="1038" 
d="M665 295c31 138 104 286 165 394c-139 -76 -250 -242 -357 -394h192zM825 -10c-107 0 -174 74 -174 186c0 34 4 71 12 108h-198c-111 -157 -218 -294 -347 -294c-68 0 -134 43 -134 129c0 71 55 119 110 133l3 -10c-53 -12 -102 -58 -102 -123c0 -78 59 -119 123 -119
c247 0 419 539 698 690h-226c-224 0 -330 -96 -330 -212c0 -51 34 -84 79 -103l-5 -8c-44 16 -84 56 -84 111c0 122 113 222 341 222h357c-100 -201 -173 -412 -173 -556c0 -81 33 -129 90 -129c67 0 110 59 128 140l10 -2c-20 -87 -75 -163 -178 -163z" />
    <glyph glyph-name="Agrave.1" horiz-adv-x="1038" 
d="M894 745l-124 179h111l17 -179h-4zM665 295c31 138 104 286 165 394c-139 -76 -250 -242 -357 -394h192zM825 -10c-107 0 -174 74 -174 186c0 34 4 71 12 108h-198c-111 -157 -218 -294 -347 -294c-68 0 -134 43 -134 129c0 71 55 119 110 133l3 -10
c-53 -12 -102 -58 -102 -123c0 -78 59 -119 123 -119c247 0 419 539 698 690h-226c-224 0 -330 -96 -330 -212c0 -51 34 -84 79 -103l-5 -8c-44 16 -84 56 -84 111c0 122 113 222 341 222h357c-100 -201 -173 -412 -173 -556c0 -81 33 -129 90 -129c67 0 110 59 128 140
l10 -2c-20 -87 -75 -163 -178 -163z" />
    <glyph glyph-name="Aacute.1" horiz-adv-x="1038" 
d="M976 924h115l-213 -179h-4zM665 295c31 138 104 286 165 394c-139 -76 -250 -242 -357 -394h192zM825 -10c-107 0 -174 74 -174 186c0 34 4 71 12 108h-198c-111 -157 -218 -294 -347 -294c-68 0 -134 43 -134 129c0 71 55 119 110 133l3 -10c-53 -12 -102 -58 -102 -123
c0 -78 59 -119 123 -119c247 0 419 539 698 690h-226c-224 0 -330 -96 -330 -212c0 -51 34 -84 79 -103l-5 -8c-44 16 -84 56 -84 111c0 122 113 222 341 222h357c-100 -201 -173 -412 -173 -556c0 -81 33 -129 90 -129c67 0 110 59 128 140l10 -2
c-20 -87 -75 -163 -178 -163z" />
    <glyph glyph-name="Acircumflex.1" horiz-adv-x="1038" 
d="M963 741l-76 130l-143 -130h-13l213 194h2l111 -194h-94zM665 295c31 138 104 286 165 394c-139 -76 -250 -242 -357 -394h192zM825 -10c-107 0 -174 74 -174 186c0 34 4 71 12 108h-198c-111 -157 -218 -294 -347 -294c-68 0 -134 43 -134 129c0 71 55 119 110 133
l3 -10c-53 -12 -102 -58 -102 -123c0 -78 59 -119 123 -119c247 0 419 539 698 690h-226c-224 0 -330 -96 -330 -212c0 -51 34 -84 79 -103l-5 -8c-44 16 -84 56 -84 111c0 122 113 222 341 222h357c-100 -201 -173 -412 -173 -556c0 -81 33 -129 90 -129
c67 0 110 59 128 140l10 -2c-20 -87 -75 -163 -178 -163z" />
    <glyph glyph-name="Atilde.1" horiz-adv-x="1038" 
d="M948 761c-59 0 -104 87 -157 87c-34 0 -61 -28 -83 -90h-9c26 88 76 149 139 149c62 0 105 -87 158 -87c33 0 60 29 82 90h9c-26 -88 -76 -149 -139 -149zM665 295c31 138 104 286 165 394c-139 -76 -250 -242 -357 -394h192zM825 -10c-107 0 -174 74 -174 186
c0 34 4 71 12 108h-198c-111 -157 -218 -294 -347 -294c-68 0 -134 43 -134 129c0 71 55 119 110 133l3 -10c-53 -12 -102 -58 -102 -123c0 -78 59 -119 123 -119c247 0 419 539 698 690h-226c-224 0 -330 -96 -330 -212c0 -51 34 -84 79 -103l-5 -8c-44 16 -84 56 -84 111
c0 122 113 222 341 222h357c-100 -201 -173 -412 -173 -556c0 -81 33 -129 90 -129c67 0 110 59 128 140l10 -2c-20 -87 -75 -163 -178 -163z" />
    <glyph glyph-name="Adieresis.1" horiz-adv-x="1038" 
d="M907 754l32 129h97l-32 -129h-97zM743 754l32 129h97l-32 -129h-97zM665 295c31 138 104 286 165 394c-139 -76 -250 -242 -357 -394h192zM825 -10c-107 0 -174 74 -174 186c0 34 4 71 12 108h-198c-111 -157 -218 -294 -347 -294c-68 0 -134 43 -134 129
c0 71 55 119 110 133l3 -10c-53 -12 -102 -58 -102 -123c0 -78 59 -119 123 -119c247 0 419 539 698 690h-226c-224 0 -330 -96 -330 -212c0 -51 34 -84 79 -103l-5 -8c-44 16 -84 56 -84 111c0 122 113 222 341 222h357c-100 -201 -173 -412 -173 -556
c0 -81 33 -129 90 -129c67 0 110 59 128 140l10 -2c-20 -87 -75 -163 -178 -163z" />
    <glyph glyph-name="Aring.1" horiz-adv-x="1038" 
d="M820 809c0 59 51 101 103 101c47 0 82 -35 82 -80c0 -60 -51 -101 -104 -101c-46 0 -81 35 -81 80zM995 830c0 39 -31 70 -72 70c-47 0 -93 -38 -93 -91c0 -39 31 -70 71 -70c48 0 94 37 94 91zM665 295c31 138 104 286 165 394c-139 -76 -250 -242 -357 -394h192z
M825 -10c-107 0 -174 74 -174 186c0 34 4 71 12 108h-198c-111 -157 -218 -294 -347 -294c-68 0 -134 43 -134 129c0 71 55 119 110 133l3 -10c-53 -12 -102 -58 -102 -123c0 -78 59 -119 123 -119c247 0 419 539 698 690h-226c-224 0 -330 -96 -330 -212
c0 -51 34 -84 79 -103l-5 -8c-44 16 -84 56 -84 111c0 122 113 222 341 222h357c-100 -201 -173 -412 -173 -556c0 -81 33 -129 90 -129c67 0 110 59 128 140l10 -2c-20 -87 -75 -163 -178 -163z" />
    <glyph glyph-name="Amacron.1" horiz-adv-x="1038" 
d="M1025 786h-287l3 10h287zM665 295c31 138 104 286 165 394c-139 -76 -250 -242 -357 -394h192zM825 -10c-107 0 -174 74 -174 186c0 34 4 71 12 108h-198c-111 -157 -218 -294 -347 -294c-68 0 -134 43 -134 129c0 71 55 119 110 133l3 -10c-53 -12 -102 -58 -102 -123
c0 -78 59 -119 123 -119c247 0 419 539 698 690h-226c-224 0 -330 -96 -330 -212c0 -51 34 -84 79 -103l-5 -8c-44 16 -84 56 -84 111c0 122 113 222 341 222h357c-100 -201 -173 -412 -173 -556c0 -81 33 -129 90 -129c67 0 110 59 128 140l10 -2
c-20 -87 -75 -163 -178 -163z" />
    <glyph glyph-name="Abreve.1" horiz-adv-x="1038" 
d="M1046 928c-27 -107 -104 -182 -193 -182s-132 75 -105 182h6c-13 -74 19 -109 115 -109s145 35 170 109h7zM665 295c31 138 104 286 165 394c-139 -76 -250 -242 -357 -394h192zM825 -10c-107 0 -174 74 -174 186c0 34 4 71 12 108h-198c-111 -157 -218 -294 -347 -294
c-68 0 -134 43 -134 129c0 71 55 119 110 133l3 -10c-53 -12 -102 -58 -102 -123c0 -78 59 -119 123 -119c247 0 419 539 698 690h-226c-224 0 -330 -96 -330 -212c0 -51 34 -84 79 -103l-5 -8c-44 16 -84 56 -84 111c0 122 113 222 341 222h357
c-100 -201 -173 -412 -173 -556c0 -81 33 -129 90 -129c67 0 110 59 128 140l10 -2c-20 -87 -75 -163 -178 -163z" />
    <glyph glyph-name="Aogonek.1" horiz-adv-x="1038" 
d="M665 295c31 138 104 286 165 394c-139 -76 -250 -242 -357 -394h192zM788 -222c-49 0 -88 30 -88 72c0 55 63 95 155 142c-10 -1 -20 -2 -30 -2c-107 0 -174 74 -174 186c0 34 4 71 12 108h-198c-111 -157 -218 -294 -347 -294c-68 0 -134 43 -134 129
c0 71 55 119 110 133l3 -10c-53 -12 -102 -58 -102 -123c0 -78 59 -119 123 -119c247 0 419 539 698 690h-226c-224 0 -330 -96 -330 -212c0 -51 34 -84 79 -103l-5 -8c-44 16 -84 56 -84 111c0 122 113 222 341 222h357c-100 -201 -173 -412 -173 -556
c0 -81 33 -129 90 -129c67 0 110 59 128 140l10 -2c-15 -67 -52 -127 -114 -152c-85 -48 -124 -89 -124 -149c0 -34 19 -56 49 -56c44 0 80 29 107 79l7 -4c-35 -64 -85 -93 -140 -93z" />
    <glyph glyph-name="B.1" horiz-adv-x="901" 
d="M545 707c-288 0 -503 -253 -503 -515c0 -118 62 -182 121 -182c63 0 86 48 113 144l66 243c47 175 117 227 211 264h6c-32 -56 -51 -111 -89 -252l-56 -207c-33 -129 -100 -212 -226 -212c-87 0 -156 75 -156 202c0 267 216 528 529 528c194 0 323 -68 323 -184
c0 -110 -116 -167 -236 -172v-2c107 -5 204 -60 204 -162c0 -134 -146 -210 -289 -210c-77 0 -142 25 -171 55l7 8c28 -29 75 -48 132 -48c124 0 200 88 200 218c0 91 -55 134 -160 134h-47l3 11h45c118 0 199 56 199 177c0 102 -71 162 -226 162z" />
    <glyph glyph-name="C.1" horiz-adv-x="649" 
d="M475 525l11 4c7 -42 39 -71 81 -71c53 0 96 48 96 111c0 76 -50 124 -136 124c-184 0 -362 -279 -362 -580c0 -165 73 -241 169 -241c110 0 205 80 230 199l10 -4c-28 -125 -130 -213 -268 -213c-135 0 -269 101 -269 300c0 278 225 556 467 556c111 0 169 -55 169 -141
c0 -66 -44 -121 -106 -121c-48 0 -82 33 -92 77z" />
    <glyph glyph-name="Ccedilla.1" horiz-adv-x="649" 
d="M254 -362c-54 0 -85 26 -95 59l9 5c9 -31 34 -49 67 -49c47 0 79 42 79 92c0 33 -23 47 -75 47l43 63c-126 11 -245 112 -245 299c0 278 225 556 467 556c111 0 169 -55 169 -141c0 -66 -44 -121 -106 -121c-48 0 -82 33 -92 77l11 4c7 -42 39 -71 81 -71
c53 0 96 48 96 111c0 76 -50 124 -136 124c-184 0 -362 -279 -362 -580c0 -165 73 -241 169 -241c110 0 205 80 230 199l10 -4c-28 -125 -130 -213 -268 -213h-15l-37 -54c68 0 122 -21 122 -69c0 -52 -53 -93 -122 -93z" />
    <glyph glyph-name="Cacute.1" horiz-adv-x="649" 
d="M592 924h115l-213 -179h-4zM475 525l11 4c7 -42 39 -71 81 -71c53 0 96 48 96 111c0 76 -50 124 -136 124c-184 0 -362 -279 -362 -580c0 -165 73 -241 169 -241c110 0 205 80 230 199l10 -4c-28 -125 -130 -213 -268 -213c-135 0 -269 101 -269 300
c0 278 225 556 467 556c111 0 169 -55 169 -141c0 -66 -44 -121 -106 -121c-48 0 -82 33 -92 77z" />
    <glyph glyph-name="Ccircumflex.1" horiz-adv-x="649" 
d="M617 741l-76 130l-143 -130h-13l213 194h2l111 -194h-94zM475 525l11 4c7 -42 39 -71 81 -71c53 0 96 48 96 111c0 76 -50 124 -136 124c-184 0 -362 -279 -362 -580c0 -165 73 -241 169 -241c110 0 205 80 230 199l10 -4c-28 -125 -130 -213 -268 -213
c-135 0 -269 101 -269 300c0 278 225 556 467 556c111 0 169 -55 169 -141c0 -66 -44 -121 -106 -121c-48 0 -82 33 -92 77z" />
    <glyph glyph-name="Cdotaccent.1" horiz-adv-x="649" 
d="M466 754l32 129h122l-32 -129h-122zM475 525l11 4c7 -42 39 -71 81 -71c53 0 96 48 96 111c0 76 -50 124 -136 124c-184 0 -362 -279 -362 -580c0 -165 73 -241 169 -241c110 0 205 80 230 199l10 -4c-28 -125 -130 -213 -268 -213c-135 0 -269 101 -269 300
c0 278 225 556 467 556c111 0 169 -55 169 -141c0 -66 -44 -121 -106 -121c-48 0 -82 33 -92 77z" />
    <glyph glyph-name="Ccaron.1" horiz-adv-x="649" 
d="M497 737h-2l-111 195h93l77 -130l143 130h13zM475 525l11 4c7 -42 39 -71 81 -71c53 0 96 48 96 111c0 76 -50 124 -136 124c-184 0 -362 -279 -362 -580c0 -165 73 -241 169 -241c110 0 205 80 230 199l10 -4c-28 -125 -130 -213 -268 -213c-135 0 -269 101 -269 300
c0 278 225 556 467 556c111 0 169 -55 169 -141c0 -66 -44 -121 -106 -121c-48 0 -82 33 -92 77z" />
    <glyph glyph-name="D.1" horiz-adv-x="934" 
d="M546 707c-288 0 -504 -253 -504 -515c0 -118 62 -182 121 -182c63 0 86 48 113 144l66 243c47 175 117 227 211 264h6c-32 -56 -51 -111 -89 -252l-56 -207c-33 -129 -100 -212 -226 -212c-87 0 -156 75 -156 202c0 267 217 528 531 528c228 0 368 -128 368 -323
c0 -223 -184 -407 -405 -407c-63 0 -113 13 -146 35l6 9c29 -20 64 -29 109 -29c187 0 310 209 310 429c0 165 -74 273 -259 273z" />
    <glyph glyph-name="Dcaron.1" horiz-adv-x="934" 
d="M616 737h-2l-111 195h93l77 -130l143 130h13zM546 707c-288 0 -504 -253 -504 -515c0 -118 62 -182 121 -182c63 0 86 48 113 144l66 243c47 175 117 227 211 264h6c-32 -56 -51 -111 -89 -252l-56 -207c-33 -129 -100 -212 -226 -212c-87 0 -156 75 -156 202
c0 267 217 528 531 528c228 0 368 -128 368 -323c0 -223 -184 -407 -405 -407c-63 0 -113 13 -146 35l6 9c29 -20 64 -29 109 -29c187 0 310 209 310 429c0 165 -74 273 -259 273z" />
    <glyph glyph-name="E.1" horiz-adv-x="648" 
d="M388 334c38 0 58 18 58 37c0 15 -12 33 -63 33c-27 0 -54 -4 -80 -12c16 -36 45 -58 85 -58zM593 127c0 -129 -115 -236 -296 -236c-153 0 -291 88 -291 231c0 139 109 228 228 268c-27 29 -44 67 -44 110c0 113 103 210 254 210c114 0 187 -57 187 -141
c0 -70 -44 -118 -114 -132l-1 10c68 11 105 61 105 122c0 73 -61 123 -144 123c-112 0 -188 -95 -188 -227c0 -22 3 -41 8 -59c27 5 54 8 79 8c61 0 80 -20 80 -43c0 -25 -24 -48 -79 -48c-41 0 -88 17 -124 48c-71 -41 -125 -119 -125 -242c0 -135 84 -218 205 -218
c148 0 250 97 250 216c0 53 -27 90 -66 103l5 8c41 -13 71 -52 71 -111z" />
    <glyph glyph-name="Egrave.1" horiz-adv-x="648" 
d="M509 745l-124 179h111l17 -179h-4zM388 334c38 0 58 18 58 37c0 15 -12 33 -63 33c-27 0 -54 -4 -80 -12c16 -36 45 -58 85 -58zM593 127c0 -129 -115 -236 -296 -236c-153 0 -291 88 -291 231c0 139 109 228 228 268c-27 29 -44 67 -44 110c0 113 103 210 254 210
c114 0 187 -57 187 -141c0 -70 -44 -118 -114 -132l-1 10c68 11 105 61 105 122c0 73 -61 123 -144 123c-112 0 -188 -95 -188 -227c0 -22 3 -41 8 -59c27 5 54 8 79 8c61 0 80 -20 80 -43c0 -25 -24 -48 -79 -48c-41 0 -88 17 -124 48c-71 -41 -125 -119 -125 -242
c0 -135 84 -218 205 -218c148 0 250 97 250 216c0 53 -27 90 -66 103l5 8c41 -13 71 -52 71 -111z" />
    <glyph glyph-name="Eacute.1" horiz-adv-x="648" 
d="M553 924h115l-213 -179h-4zM388 334c38 0 58 18 58 37c0 15 -12 33 -63 33c-27 0 -54 -4 -80 -12c16 -36 45 -58 85 -58zM593 127c0 -129 -115 -236 -296 -236c-153 0 -291 88 -291 231c0 139 109 228 228 268c-27 29 -44 67 -44 110c0 113 103 210 254 210
c114 0 187 -57 187 -141c0 -70 -44 -118 -114 -132l-1 10c68 11 105 61 105 122c0 73 -61 123 -144 123c-112 0 -188 -95 -188 -227c0 -22 3 -41 8 -59c27 5 54 8 79 8c61 0 80 -20 80 -43c0 -25 -24 -48 -79 -48c-41 0 -88 17 -124 48c-71 -41 -125 -119 -125 -242
c0 -135 84 -218 205 -218c148 0 250 97 250 216c0 53 -27 90 -66 103l5 8c41 -13 71 -52 71 -111z" />
    <glyph glyph-name="Ecircumflex.1" horiz-adv-x="648" 
d="M578 741l-76 130l-143 -130h-13l213 194h2l111 -194h-94zM388 334c38 0 58 18 58 37c0 15 -12 33 -63 33c-27 0 -54 -4 -80 -12c16 -36 45 -58 85 -58zM593 127c0 -129 -115 -236 -296 -236c-153 0 -291 88 -291 231c0 139 109 228 228 268c-27 29 -44 67 -44 110
c0 113 103 210 254 210c114 0 187 -57 187 -141c0 -70 -44 -118 -114 -132l-1 10c68 11 105 61 105 122c0 73 -61 123 -144 123c-112 0 -188 -95 -188 -227c0 -22 3 -41 8 -59c27 5 54 8 79 8c61 0 80 -20 80 -43c0 -25 -24 -48 -79 -48c-41 0 -88 17 -124 48
c-71 -41 -125 -119 -125 -242c0 -135 84 -218 205 -218c148 0 250 97 250 216c0 53 -27 90 -66 103l5 8c41 -13 71 -52 71 -111z" />
    <glyph glyph-name="Edieresis.1" horiz-adv-x="648" 
d="M522 754l32 129h97l-32 -129h-97zM358 754l32 129h97l-32 -129h-97zM388 334c38 0 58 18 58 37c0 15 -12 33 -63 33c-27 0 -54 -4 -80 -12c16 -36 45 -58 85 -58zM593 127c0 -129 -115 -236 -296 -236c-153 0 -291 88 -291 231c0 139 109 228 228 268
c-27 29 -44 67 -44 110c0 113 103 210 254 210c114 0 187 -57 187 -141c0 -70 -44 -118 -114 -132l-1 10c68 11 105 61 105 122c0 73 -61 123 -144 123c-112 0 -188 -95 -188 -227c0 -22 3 -41 8 -59c27 5 54 8 79 8c61 0 80 -20 80 -43c0 -25 -24 -48 -79 -48
c-41 0 -88 17 -124 48c-71 -41 -125 -119 -125 -242c0 -135 84 -218 205 -218c148 0 250 97 250 216c0 53 -27 90 -66 103l5 8c41 -13 71 -52 71 -111z" />
    <glyph glyph-name="Emacron.1" horiz-adv-x="648" 
d="M639 786h-287l3 10h287zM388 334c38 0 58 18 58 37c0 15 -12 33 -63 33c-27 0 -54 -4 -80 -12c16 -36 45 -58 85 -58zM593 127c0 -129 -115 -236 -296 -236c-153 0 -291 88 -291 231c0 139 109 228 228 268c-27 29 -44 67 -44 110c0 113 103 210 254 210
c114 0 187 -57 187 -141c0 -70 -44 -118 -114 -132l-1 10c68 11 105 61 105 122c0 73 -61 123 -144 123c-112 0 -188 -95 -188 -227c0 -22 3 -41 8 -59c27 5 54 8 79 8c61 0 80 -20 80 -43c0 -25 -24 -48 -79 -48c-41 0 -88 17 -124 48c-71 -41 -125 -119 -125 -242
c0 -135 84 -218 205 -218c148 0 250 97 250 216c0 53 -27 90 -66 103l5 8c41 -13 71 -52 71 -111z" />
    <glyph glyph-name="Ebreve.1" horiz-adv-x="648" 
d="M661 928c-27 -107 -104 -182 -193 -182s-132 75 -105 182h6c-13 -74 19 -109 115 -109s145 35 170 109h7zM388 334c38 0 58 18 58 37c0 15 -12 33 -63 33c-27 0 -54 -4 -80 -12c16 -36 45 -58 85 -58zM593 127c0 -129 -115 -236 -296 -236c-153 0 -291 88 -291 231
c0 139 109 228 228 268c-27 29 -44 67 -44 110c0 113 103 210 254 210c114 0 187 -57 187 -141c0 -70 -44 -118 -114 -132l-1 10c68 11 105 61 105 122c0 73 -61 123 -144 123c-112 0 -188 -95 -188 -227c0 -22 3 -41 8 -59c27 5 54 8 79 8c61 0 80 -20 80 -43
c0 -25 -24 -48 -79 -48c-41 0 -88 17 -124 48c-71 -41 -125 -119 -125 -242c0 -135 84 -218 205 -218c148 0 250 97 250 216c0 53 -27 90 -66 103l5 8c41 -13 71 -52 71 -111z" />
    <glyph glyph-name="Edotaccent.1" horiz-adv-x="648" 
d="M428 754l32 129h122l-32 -129h-122zM388 334c38 0 58 18 58 37c0 15 -12 33 -63 33c-27 0 -54 -4 -80 -12c16 -36 45 -58 85 -58zM593 127c0 -129 -115 -236 -296 -236c-153 0 -291 88 -291 231c0 139 109 228 228 268c-27 29 -44 67 -44 110c0 113 103 210 254 210
c114 0 187 -57 187 -141c0 -70 -44 -118 -114 -132l-1 10c68 11 105 61 105 122c0 73 -61 123 -144 123c-112 0 -188 -95 -188 -227c0 -22 3 -41 8 -59c27 5 54 8 79 8c61 0 80 -20 80 -43c0 -25 -24 -48 -79 -48c-41 0 -88 17 -124 48c-71 -41 -125 -119 -125 -242
c0 -135 84 -218 205 -218c148 0 250 97 250 216c0 53 -27 90 -66 103l5 8c41 -13 71 -52 71 -111z" />
    <glyph glyph-name="Eogonek.1" horiz-adv-x="648" 
d="M388 334c38 0 58 18 58 37c0 15 -12 33 -63 33c-27 0 -54 -4 -80 -12c16 -36 45 -58 85 -58zM484 -210c-35 -64 -85 -93 -140 -93c-49 0 -88 30 -88 72c0 51 55 90 137 133c-29 -7 -61 -11 -96 -11c-153 0 -291 88 -291 231c0 139 109 228 228 268c-27 29 -44 67 -44 110
c0 113 103 210 254 210c114 0 187 -57 187 -141c0 -70 -44 -118 -114 -132l-1 10c68 11 105 61 105 122c0 73 -61 123 -144 123c-112 0 -188 -95 -188 -227c0 -22 3 -41 8 -59c27 5 54 8 79 8c61 0 80 -20 80 -43c0 -25 -24 -48 -79 -48c-41 0 -88 17 -124 48
c-71 -41 -125 -119 -125 -242c0 -135 84 -218 205 -218c148 0 250 97 250 216c0 53 -27 90 -66 103l5 8c41 -13 71 -52 71 -111c0 -91 -57 -171 -155 -210c-80 -47 -117 -88 -117 -146c0 -34 19 -56 49 -56c44 0 80 29 107 79z" />
    <glyph glyph-name="Ecaron.1" horiz-adv-x="648" 
d="M458 737h-2l-111 195h93l77 -130l143 130h13zM388 334c38 0 58 18 58 37c0 15 -12 33 -63 33c-27 0 -54 -4 -80 -12c16 -36 45 -58 85 -58zM593 127c0 -129 -115 -236 -296 -236c-153 0 -291 88 -291 231c0 139 109 228 228 268c-27 29 -44 67 -44 110
c0 113 103 210 254 210c114 0 187 -57 187 -141c0 -70 -44 -118 -114 -132l-1 10c68 11 105 61 105 122c0 73 -61 123 -144 123c-112 0 -188 -95 -188 -227c0 -22 3 -41 8 -59c27 5 54 8 79 8c61 0 80 -20 80 -43c0 -25 -24 -48 -79 -48c-41 0 -88 17 -124 48
c-71 -41 -125 -119 -125 -242c0 -135 84 -218 205 -218c148 0 250 97 250 216c0 53 -27 90 -66 103l5 8c41 -13 71 -52 71 -111z" />
    <glyph glyph-name="F.1" horiz-adv-x="699" 
d="M293 -10c-120 0 -190 79 -190 162c0 73 41 125 91 150l4 -9c-47 -25 -85 -70 -85 -141c0 -78 64 -146 157 -146c99 0 151 64 182 187l42 164h-138l3 10h138l16 64c40 162 108 229 205 264c-155 -28 -314 26 -436 26c-94 0 -167 -58 -167 -142c0 -55 32 -91 80 -111l-5 -8
c-46 17 -85 59 -85 119c0 90 79 152 177 152c128 0 290 -60 457 -24l4 -8c-49 -48 -67 -113 -103 -255l-19 -77h93l-3 -10h-93l-31 -127c-38 -154 -141 -240 -294 -240z" />
    <glyph glyph-name="G.1" horiz-adv-x="685" 
d="M279 -225c-84 0 -141 47 -141 109c0 40 23 71 60 85l4 -9c-33 -12 -54 -38 -54 -76c0 -59 51 -91 108 -91c110 0 166 79 202 219l23 90c-38 -39 -91 -69 -163 -69c-136 0 -266 85 -266 255c0 229 203 422 433 422c128 0 196 -63 196 -149c0 -61 -33 -114 -96 -133l-2 10
c55 15 88 65 88 123c0 78 -58 132 -158 132c-193 0 -335 -229 -335 -454c0 -129 67 -194 156 -194c64 0 115 32 152 76l49 192h117l-63 -248c-52 -205 -164 -290 -310 -290z" />
    <glyph glyph-name="Gcircumflex.1" horiz-adv-x="685" 
d="M600 741l-76 130l-143 -130h-13l213 194h2l111 -194h-94zM279 -225c-84 0 -141 47 -141 109c0 40 23 71 60 85l4 -9c-33 -12 -54 -38 -54 -76c0 -59 51 -91 108 -91c110 0 166 79 202 219l23 90c-38 -39 -91 -69 -163 -69c-136 0 -266 85 -266 255c0 229 203 422 433 422
c128 0 196 -63 196 -149c0 -61 -33 -114 -96 -133l-2 10c55 15 88 65 88 123c0 78 -58 132 -158 132c-193 0 -335 -229 -335 -454c0 -129 67 -194 156 -194c64 0 115 32 152 76l49 192h117l-63 -248c-52 -205 -164 -290 -310 -290z" />
    <glyph glyph-name="Gbreve.1" horiz-adv-x="685" 
d="M684 928c-27 -107 -104 -182 -193 -182s-132 75 -105 182h6c-13 -74 19 -109 115 -109s145 35 170 109h7zM279 -225c-84 0 -141 47 -141 109c0 40 23 71 60 85l4 -9c-33 -12 -54 -38 -54 -76c0 -59 51 -91 108 -91c110 0 166 79 202 219l23 90c-38 -39 -91 -69 -163 -69
c-136 0 -266 85 -266 255c0 229 203 422 433 422c128 0 196 -63 196 -149c0 -61 -33 -114 -96 -133l-2 10c55 15 88 65 88 123c0 78 -58 132 -158 132c-193 0 -335 -229 -335 -454c0 -129 67 -194 156 -194c64 0 115 32 152 76l49 192h117l-63 -248
c-52 -205 -164 -290 -310 -290z" />
    <glyph glyph-name="Gdotaccent.1" horiz-adv-x="685" 
d="M450 754l32 129h122l-32 -129h-122zM279 -225c-84 0 -141 47 -141 109c0 40 23 71 60 85l4 -9c-33 -12 -54 -38 -54 -76c0 -59 51 -91 108 -91c110 0 166 79 202 219l23 90c-38 -39 -91 -69 -163 -69c-136 0 -266 85 -266 255c0 229 203 422 433 422
c128 0 196 -63 196 -149c0 -61 -33 -114 -96 -133l-2 10c55 15 88 65 88 123c0 78 -58 132 -158 132c-193 0 -335 -229 -335 -454c0 -129 67 -194 156 -194c64 0 115 32 152 76l49 192h117l-63 -248c-52 -205 -164 -290 -310 -290z" />
    <glyph glyph-name="uni0122.1" horiz-adv-x="685" 
d="M279 -225c-84 0 -141 47 -141 109c0 40 23 71 60 85l4 -9c-33 -12 -54 -38 -54 -76c0 -59 51 -91 108 -91c110 0 166 79 202 219l23 90c-38 -39 -91 -69 -163 -69c-136 0 -266 85 -266 255c0 229 203 422 433 422c128 0 196 -63 196 -149c0 -61 -33 -114 -96 -133l-2 10
c55 15 88 65 88 123c0 78 -58 132 -158 132c-193 0 -335 -229 -335 -454c0 -129 67 -194 156 -194c64 0 115 32 152 76l49 192h117l-63 -248c-52 -205 -164 -290 -310 -290zM181 -392l28 114h126l-29 -115c-16 -62 -68 -115 -166 -103l3 10c92 -11 138 34 153 94h-115z" />
    <glyph glyph-name="H.1" horiz-adv-x="1020" 
d="M807 -10c-76 0 -132 51 -132 138c0 24 5 52 13 81l37 147h-305l-34 -133c-36 -142 -111 -233 -239 -233c-78 0 -129 49 -129 112c0 39 22 71 48 89l7 -8c-28 -18 -44 -47 -44 -81c0 -57 43 -93 91 -93c62 0 98 51 126 161l66 255c42 160 101 224 188 265h-88
c-224 0 -324 -102 -324 -209c0 -51 34 -87 79 -106l-5 -8c-44 16 -84 59 -84 114c0 113 107 219 335 219h114c-33 -58 -47 -104 -87 -263l-18 -70h306l34 135c32 124 97 212 219 212c54 0 93 -30 109 -67l-9 -5c-11 28 -33 53 -73 53c-59 0 -86 -50 -116 -171l-89 -358
c-7 -27 -10 -50 -10 -72c0 -49 23 -76 62 -76c47 0 92 45 115 118l9 -3c-27 -94 -100 -143 -172 -143z" />
    <glyph glyph-name="Hcircumflex.1" horiz-adv-x="1020" 
d="M770 741l-76 130l-143 -130h-13l213 194h2l111 -194h-94zM807 -10c-76 0 -132 51 -132 138c0 24 5 52 13 81l37 147h-305l-34 -133c-36 -142 -111 -233 -239 -233c-78 0 -129 49 -129 112c0 39 22 71 48 89l7 -8c-28 -18 -44 -47 -44 -81c0 -57 43 -93 91 -93
c62 0 98 51 126 161l66 255c42 160 101 224 188 265h-88c-224 0 -324 -102 -324 -209c0 -51 34 -87 79 -106l-5 -8c-44 16 -84 59 -84 114c0 113 107 219 335 219h114c-33 -58 -47 -104 -87 -263l-18 -70h306l34 135c32 124 97 212 219 212c54 0 93 -30 109 -67l-9 -5
c-11 28 -33 53 -73 53c-59 0 -86 -50 -116 -171l-89 -358c-7 -27 -10 -50 -10 -72c0 -49 23 -76 62 -76c47 0 92 45 115 118l9 -3c-27 -94 -100 -143 -172 -143z" />
    <glyph glyph-name="I.1" horiz-adv-x="460" 
d="M147 -10c-78 0 -129 49 -129 112c0 39 22 71 48 89l7 -8c-28 -18 -44 -47 -44 -81c0 -57 43 -93 91 -93c62 0 98 51 126 161l66 255c42 160 101 224 188 265h-87c-225 0 -325 -102 -325 -209c0 -51 34 -87 79 -106l-5 -8c-44 16 -84 59 -84 114c0 113 107 219 335 219
h114c-33 -58 -47 -104 -87 -263l-54 -214c-36 -142 -111 -233 -239 -233z" />
    <glyph glyph-name="Igrave.1" horiz-adv-x="460" 
d="M479 745l-124 179h111l17 -179h-4zM147 -10c-78 0 -129 49 -129 112c0 39 22 71 48 89l7 -8c-28 -18 -44 -47 -44 -81c0 -57 43 -93 91 -93c62 0 98 51 126 161l66 255c42 160 101 224 188 265h-87c-225 0 -325 -102 -325 -209c0 -51 34 -87 79 -106l-5 -8
c-44 16 -84 59 -84 114c0 113 107 219 335 219h114c-33 -58 -47 -104 -87 -263l-54 -214c-36 -142 -111 -233 -239 -233z" />
    <glyph glyph-name="Iacute.1" horiz-adv-x="460" 
d="M568 924h115l-213 -179h-4zM147 -10c-78 0 -129 49 -129 112c0 39 22 71 48 89l7 -8c-28 -18 -44 -47 -44 -81c0 -57 43 -93 91 -93c62 0 98 51 126 161l66 255c42 160 101 224 188 265h-87c-225 0 -325 -102 -325 -209c0 -51 34 -87 79 -106l-5 -8
c-44 16 -84 59 -84 114c0 113 107 219 335 219h114c-33 -58 -47 -104 -87 -263l-54 -214c-36 -142 -111 -233 -239 -233z" />
    <glyph glyph-name="Icircumflex.1" horiz-adv-x="460" 
d="M548 741l-76 130l-143 -130h-13l213 194h2l111 -194h-94zM147 -10c-78 0 -129 49 -129 112c0 39 22 71 48 89l7 -8c-28 -18 -44 -47 -44 -81c0 -57 43 -93 91 -93c62 0 98 51 126 161l66 255c42 160 101 224 188 265h-87c-225 0 -325 -102 -325 -209
c0 -51 34 -87 79 -106l-5 -8c-44 16 -84 59 -84 114c0 113 107 219 335 219h114c-33 -58 -47 -104 -87 -263l-54 -214c-36 -142 -111 -233 -239 -233z" />
    <glyph glyph-name="Idieresis.1" horiz-adv-x="460" 
d="M491 754l32 129h97l-32 -129h-97zM327 754l32 129h97l-32 -129h-97zM147 -10c-78 0 -129 49 -129 112c0 39 22 71 48 89l7 -8c-28 -18 -44 -47 -44 -81c0 -57 43 -93 91 -93c62 0 98 51 126 161l66 255c42 160 101 224 188 265h-87c-225 0 -325 -102 -325 -209
c0 -51 34 -87 79 -106l-5 -8c-44 16 -84 59 -84 114c0 113 107 219 335 219h114c-33 -58 -47 -104 -87 -263l-54 -214c-36 -142 -111 -233 -239 -233z" />
    <glyph glyph-name="Itilde.1" horiz-adv-x="460" 
d="M532 761c-59 0 -104 87 -157 87c-34 0 -61 -28 -83 -90h-9c26 88 76 149 139 149c62 0 105 -87 158 -87c33 0 60 29 82 90h9c-26 -88 -76 -149 -139 -149zM147 -10c-78 0 -129 49 -129 112c0 39 22 71 48 89l7 -8c-28 -18 -44 -47 -44 -81c0 -57 43 -93 91 -93
c62 0 98 51 126 161l66 255c42 160 101 224 188 265h-87c-225 0 -325 -102 -325 -209c0 -51 34 -87 79 -106l-5 -8c-44 16 -84 59 -84 114c0 113 107 219 335 219h114c-33 -58 -47 -104 -87 -263l-54 -214c-36 -142 -111 -233 -239 -233z" />
    <glyph glyph-name="Imacron.1" horiz-adv-x="460" 
d="M610 786h-287l3 10h287zM147 -10c-78 0 -129 49 -129 112c0 39 22 71 48 89l7 -8c-28 -18 -44 -47 -44 -81c0 -57 43 -93 91 -93c62 0 98 51 126 161l66 255c42 160 101 224 188 265h-87c-225 0 -325 -102 -325 -209c0 -51 34 -87 79 -106l-5 -8c-44 16 -84 59 -84 114
c0 113 107 219 335 219h114c-33 -58 -47 -104 -87 -263l-54 -214c-36 -142 -111 -233 -239 -233z" />
    <glyph glyph-name="Ibreve.1" horiz-adv-x="460" 
d="M631 928c-27 -107 -104 -182 -193 -182s-132 75 -105 182h6c-13 -74 19 -109 115 -109s145 35 170 109h7zM147 -10c-78 0 -129 49 -129 112c0 39 22 71 48 89l7 -8c-28 -18 -44 -47 -44 -81c0 -57 43 -93 91 -93c62 0 98 51 126 161l66 255c42 160 101 224 188 265h-87
c-225 0 -325 -102 -325 -209c0 -51 34 -87 79 -106l-5 -8c-44 16 -84 59 -84 114c0 113 107 219 335 219h114c-33 -58 -47 -104 -87 -263l-54 -214c-36 -142 -111 -233 -239 -233z" />
    <glyph glyph-name="Iogonek.1" horiz-adv-x="460" 
d="M107 -225c-49 0 -88 30 -88 72c0 56 65 97 160 145c-10 -1 -21 -2 -32 -2c-78 0 -129 49 -129 112c0 39 22 71 48 89l7 -8c-28 -18 -44 -47 -44 -81c0 -57 43 -93 91 -93c62 0 98 51 126 161l66 255c42 160 101 224 188 265h-87c-225 0 -325 -102 -325 -209
c0 -51 34 -87 79 -106l-5 -8c-44 16 -84 59 -84 114c0 113 107 219 335 219h114c-33 -58 -47 -104 -87 -263l-54 -214c-30 -119 -88 -202 -180 -226c-83 -47 -122 -88 -122 -148c0 -34 19 -56 49 -56c44 0 80 29 107 79l7 -4c-35 -64 -85 -93 -140 -93z" />
    <glyph glyph-name="Idotaccent.1" horiz-adv-x="460" 
d="M397 754l32 129h122l-32 -129h-122zM147 -10c-78 0 -129 49 -129 112c0 39 22 71 48 89l7 -8c-28 -18 -44 -47 -44 -81c0 -57 43 -93 91 -93c62 0 98 51 126 161l66 255c42 160 101 224 188 265h-87c-225 0 -325 -102 -325 -209c0 -51 34 -87 79 -106l-5 -8
c-44 16 -84 59 -84 114c0 113 107 219 335 219h114c-33 -58 -47 -104 -87 -263l-54 -214c-36 -142 -111 -233 -239 -233z" />
    <glyph glyph-name="J.1" horiz-adv-x="549" 
d="M297 -14l111 439c40 157 100 224 188 265h-122c-225 0 -325 -97 -325 -209c0 -51 34 -87 79 -106l-5 -8c-44 16 -84 59 -84 114c0 118 108 219 336 219h148c-33 -58 -47 -105 -87 -263l-108 -429c-39 -151 -147 -233 -293 -233c-116 0 -192 77 -192 165
c0 82 51 142 109 166l3 -8c-58 -27 -102 -79 -102 -158c0 -83 65 -147 156 -147c104 0 155 67 188 193z" />
    <glyph glyph-name="Jcircumflex.1" horiz-adv-x="549" 
d="M646 741l-76 130l-143 -130h-13l213 194h2l111 -194h-94zM297 -14l111 439c40 157 100 224 188 265h-122c-225 0 -325 -97 -325 -209c0 -51 34 -87 79 -106l-5 -8c-44 16 -84 59 -84 114c0 118 108 219 336 219h148c-33 -58 -47 -105 -87 -263l-108 -429
c-39 -151 -147 -233 -293 -233c-116 0 -192 77 -192 165c0 82 51 142 109 166l3 -8c-58 -27 -102 -79 -102 -158c0 -83 65 -147 156 -147c104 0 155 67 188 193z" />
    <glyph glyph-name="K.1" horiz-adv-x="930" 
d="M884 154c-9 -98 -71 -164 -170 -164c-87 0 -148 53 -183 167l-62 175c105 179 243 388 388 388c85 0 120 -54 119 -114c0 -67 -49 -110 -95 -126l-2 9c44 18 87 56 87 118c0 54 -31 103 -109 103c-109 0 -212 -122 -303 -258l112 -305c27 -71 54 -117 109 -117
c47 0 89 37 99 126zM147 -10c-78 0 -129 49 -129 112c0 39 22 71 48 89l7 -8c-28 -18 -44 -47 -44 -81c0 -57 43 -93 91 -93c62 0 98 51 126 161l66 255c42 160 101 224 188 265h-88c-224 0 -324 -102 -324 -209c0 -51 34 -87 79 -106l-5 -8c-44 16 -84 59 -84 114
c0 113 107 219 335 219h114c-33 -58 -47 -104 -87 -263l-54 -214c-36 -142 -111 -233 -239 -233z" />
    <glyph glyph-name="uni0136.1" horiz-adv-x="930" 
d="M884 154c-9 -98 -71 -164 -170 -164c-87 0 -148 53 -183 167l-62 175c105 179 243 388 388 388c85 0 120 -54 119 -114c0 -67 -49 -110 -95 -126l-2 9c44 18 87 56 87 118c0 54 -31 103 -109 103c-109 0 -212 -122 -303 -258l112 -305c27 -71 54 -117 109 -117
c47 0 89 37 99 126zM147 -10c-78 0 -129 49 -129 112c0 39 22 71 48 89l7 -8c-28 -18 -44 -47 -44 -81c0 -57 43 -93 91 -93c62 0 98 51 126 161l66 255c42 160 101 224 188 265h-88c-224 0 -324 -102 -324 -209c0 -51 34 -87 79 -106l-5 -8c-44 16 -84 59 -84 114
c0 113 107 219 335 219h114c-33 -58 -47 -104 -87 -263l-54 -214c-36 -142 -111 -233 -239 -233zM310 -166l28 114h126l-29 -115c-16 -62 -68 -115 -166 -103l3 10c92 -11 138 34 153 94h-115z" />
    <glyph glyph-name="L.1" horiz-adv-x="708" 
d="M487 -109c-110 0 -186 111 -267 189c-49 -61 -104 -92 -159 -92s-91 38 -91 82c0 57 48 95 108 95c33 0 69 -15 108 -37c11 33 20 71 27 115c8 66 14 142 26 212c21 156 136 255 279 255c111 0 164 -61 163 -124c0 -72 -51 -117 -103 -130l-2 8c50 15 95 55 95 122
c0 53 -42 103 -111 103c-91 0 -150 -69 -181 -193l-34 -134c-29 -113 -67 -201 -111 -263c82 -50 174 -112 273 -112c80 0 140 37 140 111c0 25 -12 47 -32 59l7 6c24 -12 41 -43 41 -85c0 -101 -75 -187 -176 -187zM58 -1c55 0 95 41 123 115c-32 25 -66 41 -103 41
c-52 0 -97 -31 -97 -85c0 -40 30 -71 77 -71z" />
    <glyph glyph-name="Lacute.1" horiz-adv-x="708" 
d="M622 924h115l-213 -179h-4zM487 -109c-110 0 -186 111 -267 189c-49 -61 -104 -92 -159 -92s-91 38 -91 82c0 57 48 95 108 95c33 0 69 -15 108 -37c11 33 20 71 27 115c8 66 14 142 26 212c21 156 136 255 279 255c111 0 164 -61 163 -124c0 -72 -51 -117 -103 -130
l-2 8c50 15 95 55 95 122c0 53 -42 103 -111 103c-91 0 -150 -69 -181 -193l-34 -134c-29 -113 -67 -201 -111 -263c82 -50 174 -112 273 -112c80 0 140 37 140 111c0 25 -12 47 -32 59l7 6c24 -12 41 -43 41 -85c0 -101 -75 -187 -176 -187zM58 -1c55 0 95 41 123 115
c-32 25 -66 41 -103 41c-52 0 -97 -31 -97 -85c0 -40 30 -71 77 -71z" />
    <glyph glyph-name="uni013B.1" horiz-adv-x="708" 
d="M487 -109c-110 0 -186 111 -267 189c-49 -61 -104 -92 -159 -92s-91 38 -91 82c0 57 48 95 108 95c33 0 69 -15 108 -37c11 33 20 71 27 115c8 66 14 142 26 212c21 156 136 255 279 255c111 0 164 -61 163 -124c0 -72 -51 -117 -103 -130l-2 8c50 15 95 55 95 122
c0 53 -42 103 -111 103c-91 0 -150 -69 -181 -193l-34 -134c-29 -113 -67 -201 -111 -263c82 -50 174 -112 273 -112c80 0 140 37 140 111c0 25 -12 47 -32 59l7 6c24 -12 41 -43 41 -85c0 -101 -75 -187 -176 -187zM58 -1c55 0 95 41 123 115c-32 25 -66 41 -103 41
c-52 0 -97 -31 -97 -85c0 -40 30 -71 77 -71zM148 -189l28 114h126l-29 -115c-16 -62 -68 -115 -166 -103l3 10c92 -11 138 34 153 94h-115z" />
    <glyph glyph-name="Lcaron.1" horiz-adv-x="708" 
d="M910 749l-188 -217h-4l88 217h104zM487 -109c-110 0 -186 111 -267 189c-49 -61 -104 -92 -159 -92s-91 38 -91 82c0 57 48 95 108 95c33 0 69 -15 108 -37c11 33 20 71 27 115c8 66 14 142 26 212c21 156 136 255 279 255c111 0 164 -61 163 -124
c0 -72 -51 -117 -103 -130l-2 8c50 15 95 55 95 122c0 53 -42 103 -111 103c-91 0 -150 -69 -181 -193l-34 -134c-29 -113 -67 -201 -111 -263c82 -50 174 -112 273 -112c80 0 140 37 140 111c0 25 -12 47 -32 59l7 6c24 -12 41 -43 41 -85c0 -101 -75 -187 -176 -187z
M58 -1c55 0 95 41 123 115c-32 25 -66 41 -103 41c-52 0 -97 -31 -97 -85c0 -40 30 -71 77 -71z" />
    <glyph glyph-name="M.1" horiz-adv-x="1271" 
d="M888 186c0 148 83 343 159 483l-466 -679h-4l-62 688c-62 -312 -195 -688 -398 -688c-66 0 -129 44 -129 127c0 73 51 118 103 133l3 -10c-50 -13 -96 -57 -96 -123c0 -74 57 -117 119 -117c192 0 324 361 390 690h-38c-224 0 -330 -105 -330 -212c0 -51 32 -85 79 -103
l-5 -8c-46 15 -84 56 -84 111c0 113 113 222 341 222h163l48 -544l374 544h130c-99 -201 -177 -412 -177 -556c0 -81 33 -129 90 -129c67 0 111 59 128 140l10 -2c-19 -87 -74 -163 -174 -163c-103 0 -174 75 -174 196z" />
    <glyph glyph-name="N.1" horiz-adv-x="1163" 
d="M513 684c-62 -316 -192 -694 -395 -694c-67 0 -130 44 -130 127c0 73 51 118 103 133l3 -10c-50 -13 -96 -57 -96 -123c0 -75 57 -117 120 -117c192 0 321 361 387 690h-38c-224 0 -330 -105 -330 -212c0 -51 34 -84 79 -103l-5 -8c-44 16 -84 56 -84 111
c0 113 113 222 341 222h170l186 -541c78 306 173 579 342 579c55 0 91 -33 91 -86c0 -49 -31 -80 -62 -93l-3 8c30 13 55 41 55 85c0 45 -30 76 -81 76c-163 0 -257 -277 -333 -571l-43 -164h-45z" />
    <glyph glyph-name="Ntilde.1" horiz-adv-x="1163" 
d="M889 761c-59 0 -104 87 -157 87c-34 0 -61 -28 -83 -90h-9c26 88 76 149 139 149c62 0 105 -87 158 -87c33 0 60 29 82 90h9c-26 -88 -76 -149 -139 -149zM513 684c-62 -316 -192 -694 -395 -694c-67 0 -130 44 -130 127c0 73 51 118 103 133l3 -10
c-50 -13 -96 -57 -96 -123c0 -75 57 -117 120 -117c192 0 321 361 387 690h-38c-224 0 -330 -105 -330 -212c0 -51 34 -84 79 -103l-5 -8c-44 16 -84 56 -84 111c0 113 113 222 341 222h170l186 -541c78 306 173 579 342 579c55 0 91 -33 91 -86c0 -49 -31 -80 -62 -93l-3 8
c30 13 55 41 55 85c0 45 -30 76 -81 76c-163 0 -257 -277 -333 -571l-43 -164h-45z" />
    <glyph glyph-name="Nacute.1" horiz-adv-x="1163" 
d="M878 924h115l-213 -179h-4zM513 684c-62 -316 -192 -694 -395 -694c-67 0 -130 44 -130 127c0 73 51 118 103 133l3 -10c-50 -13 -96 -57 -96 -123c0 -75 57 -117 120 -117c192 0 321 361 387 690h-38c-224 0 -330 -105 -330 -212c0 -51 34 -84 79 -103l-5 -8
c-44 16 -84 56 -84 111c0 113 113 222 341 222h170l186 -541c78 306 173 579 342 579c55 0 91 -33 91 -86c0 -49 -31 -80 -62 -93l-3 8c30 13 55 41 55 85c0 45 -30 76 -81 76c-163 0 -257 -277 -333 -571l-43 -164h-45z" />
    <glyph glyph-name="uni0145.1" horiz-adv-x="1163" 
d="M513 684c-62 -316 -192 -694 -395 -694c-67 0 -130 44 -130 127c0 73 51 118 103 133l3 -10c-50 -13 -96 -57 -96 -123c0 -75 57 -117 120 -117c192 0 321 361 387 690h-38c-224 0 -330 -105 -330 -212c0 -51 34 -84 79 -103l-5 -8c-44 16 -84 56 -84 111
c0 113 113 222 341 222h170l186 -541c78 306 173 579 342 579c55 0 91 -33 91 -86c0 -49 -31 -80 -62 -93l-3 8c30 13 55 41 55 85c0 45 -30 76 -81 76c-163 0 -257 -277 -333 -571l-43 -164h-45zM406 -166l28 114h126l-29 -115c-16 -62 -68 -115 -166 -103l3 10
c92 -11 138 34 153 94h-115z" />
    <glyph glyph-name="Ncaron.1" horiz-adv-x="1163" 
d="M784 737h-2l-111 195h93l77 -130l143 130h13zM513 684c-62 -316 -192 -694 -395 -694c-67 0 -130 44 -130 127c0 73 51 118 103 133l3 -10c-50 -13 -96 -57 -96 -123c0 -75 57 -117 120 -117c192 0 321 361 387 690h-38c-224 0 -330 -105 -330 -212c0 -51 34 -84 79 -103
l-5 -8c-44 16 -84 56 -84 111c0 113 113 222 341 222h170l186 -541c78 306 173 579 342 579c55 0 91 -33 91 -86c0 -49 -31 -80 -62 -93l-3 8c30 13 55 41 55 85c0 45 -30 76 -81 76c-163 0 -257 -277 -333 -571l-43 -164h-45z" />
    <glyph glyph-name="O.1" horiz-adv-x="743" 
d="M445 693c-110 0 -221 -88 -221 -218c0 -83 52 -125 106 -125c56 0 90 28 114 81l9 -4c-24 -56 -66 -87 -123 -87c-61 0 -116 49 -116 135c0 136 115 235 257 235c148 0 274 -103 274 -288c0 -226 -189 -432 -417 -432c-148 0 -278 97 -278 288c0 87 32 195 114 291l6 -7
c-78 -91 -110 -197 -110 -284c0 -177 115 -265 234 -265c196 0 328 223 328 454c0 148 -63 226 -177 226z" />
    <glyph glyph-name="Ograve.1" horiz-adv-x="743" 
d="M530 745l-124 179h111l17 -179h-4zM445 693c-110 0 -221 -88 -221 -218c0 -83 52 -125 106 -125c56 0 90 28 114 81l9 -4c-24 -56 -66 -87 -123 -87c-61 0 -116 49 -116 135c0 136 115 235 257 235c148 0 274 -103 274 -288c0 -226 -189 -432 -417 -432
c-148 0 -278 97 -278 288c0 87 32 195 114 291l6 -7c-78 -91 -110 -197 -110 -284c0 -177 115 -265 234 -265c196 0 328 223 328 454c0 148 -63 226 -177 226z" />
    <glyph glyph-name="Oacute.1" horiz-adv-x="743" 
d="M613 924h115l-213 -179h-4zM445 693c-110 0 -221 -88 -221 -218c0 -83 52 -125 106 -125c56 0 90 28 114 81l9 -4c-24 -56 -66 -87 -123 -87c-61 0 -116 49 -116 135c0 136 115 235 257 235c148 0 274 -103 274 -288c0 -226 -189 -432 -417 -432c-148 0 -278 97 -278 288
c0 87 32 195 114 291l6 -7c-78 -91 -110 -197 -110 -284c0 -177 115 -265 234 -265c196 0 328 223 328 454c0 148 -63 226 -177 226z" />
    <glyph glyph-name="Ocircumflex.1" horiz-adv-x="743" 
d="M600 741l-76 130l-143 -130h-13l213 194h2l111 -194h-94zM445 693c-110 0 -221 -88 -221 -218c0 -83 52 -125 106 -125c56 0 90 28 114 81l9 -4c-24 -56 -66 -87 -123 -87c-61 0 -116 49 -116 135c0 136 115 235 257 235c148 0 274 -103 274 -288
c0 -226 -189 -432 -417 -432c-148 0 -278 97 -278 288c0 87 32 195 114 291l6 -7c-78 -91 -110 -197 -110 -284c0 -177 115 -265 234 -265c196 0 328 223 328 454c0 148 -63 226 -177 226z" />
    <glyph glyph-name="Otilde.1" horiz-adv-x="743" 
d="M584 761c-59 0 -104 87 -157 87c-34 0 -61 -28 -83 -90h-9c26 88 76 149 139 149c62 0 105 -87 158 -87c33 0 60 29 82 90h9c-26 -88 -76 -149 -139 -149zM445 693c-110 0 -221 -88 -221 -218c0 -83 52 -125 106 -125c56 0 90 28 114 81l9 -4c-24 -56 -66 -87 -123 -87
c-61 0 -116 49 -116 135c0 136 115 235 257 235c148 0 274 -103 274 -288c0 -226 -189 -432 -417 -432c-148 0 -278 97 -278 288c0 87 32 195 114 291l6 -7c-78 -91 -110 -197 -110 -284c0 -177 115 -265 234 -265c196 0 328 223 328 454c0 148 -63 226 -177 226z" />
    <glyph glyph-name="Odieresis.1" horiz-adv-x="743" 
d="M543 754l32 129h97l-32 -129h-97zM379 754l32 129h97l-32 -129h-97zM445 693c-110 0 -221 -88 -221 -218c0 -83 52 -125 106 -125c56 0 90 28 114 81l9 -4c-24 -56 -66 -87 -123 -87c-61 0 -116 49 -116 135c0 136 115 235 257 235c148 0 274 -103 274 -288
c0 -226 -189 -432 -417 -432c-148 0 -278 97 -278 288c0 87 32 195 114 291l6 -7c-78 -91 -110 -197 -110 -284c0 -177 115 -265 234 -265c196 0 328 223 328 454c0 148 -63 226 -177 226z" />
    <glyph glyph-name="Omacron.1" horiz-adv-x="743" 
d="M661 786h-287l3 10h287zM445 693c-110 0 -221 -88 -221 -218c0 -83 52 -125 106 -125c56 0 90 28 114 81l9 -4c-24 -56 -66 -87 -123 -87c-61 0 -116 49 -116 135c0 136 115 235 257 235c148 0 274 -103 274 -288c0 -226 -189 -432 -417 -432c-148 0 -278 97 -278 288
c0 87 32 195 114 291l6 -7c-78 -91 -110 -197 -110 -284c0 -177 115 -265 234 -265c196 0 328 223 328 454c0 148 -63 226 -177 226z" />
    <glyph glyph-name="Obreve.1" horiz-adv-x="743" 
d="M683 928c-27 -107 -104 -182 -193 -182s-132 75 -105 182h6c-13 -74 19 -109 115 -109s145 35 170 109h7zM445 693c-110 0 -221 -88 -221 -218c0 -83 52 -125 106 -125c56 0 90 28 114 81l9 -4c-24 -56 -66 -87 -123 -87c-61 0 -116 49 -116 135c0 136 115 235 257 235
c148 0 274 -103 274 -288c0 -226 -189 -432 -417 -432c-148 0 -278 97 -278 288c0 87 32 195 114 291l6 -7c-78 -91 -110 -197 -110 -284c0 -177 115 -265 234 -265c196 0 328 223 328 454c0 148 -63 226 -177 226z" />
    <glyph glyph-name="Ohungarumlaut.1" horiz-adv-x="743" 
d="M666 924h106l-205 -179h-4zM502 924h107l-206 -179h-4zM445 693c-110 0 -221 -88 -221 -218c0 -83 52 -125 106 -125c56 0 90 28 114 81l9 -4c-24 -56 -66 -87 -123 -87c-61 0 -116 49 -116 135c0 136 115 235 257 235c148 0 274 -103 274 -288
c0 -226 -189 -432 -417 -432c-148 0 -278 97 -278 288c0 87 32 195 114 291l6 -7c-78 -91 -110 -197 -110 -284c0 -177 115 -265 234 -265c196 0 328 223 328 454c0 148 -63 226 -177 226z" />
    <glyph glyph-name="P.1" horiz-adv-x="867" 
d="M545 707c-288 0 -503 -253 -503 -515c0 -118 62 -182 121 -182c63 0 86 48 113 144l66 243c47 175 117 227 211 264h6c-32 -56 -51 -111 -89 -252l-56 -207c-33 -129 -100 -212 -226 -212c-87 0 -156 75 -156 202c0 267 216 528 529 528c192 0 343 -80 343 -204
c0 -162 -178 -226 -310 -226c-31 0 -67 3 -92 9l2 10c22 -5 44 -7 62 -7c111 0 222 68 222 220c0 119 -92 185 -243 185z" />
    <glyph glyph-name="Q.1" horiz-adv-x="746" 
d="M572 -238c-110 0 -198 108 -288 197c-59 -17 -119 -26 -175 -26c-72 0 -126 32 -126 78c0 49 44 74 99 74c71 0 144 -49 220 -103c105 45 192 129 250 248c42 90 72 199 72 282c0 120 -51 188 -161 188c-157 0 -283 -212 -283 -379c0 -99 45 -145 106 -145
c67 0 128 49 141 123l11 -3c-16 -77 -85 -141 -183 -141c-89 0 -185 62 -185 189c0 190 185 366 390 366c174 0 287 -109 287 -282c0 -205 -206 -384 -428 -458c89 -63 182 -128 283 -128c88 0 131 34 137 110l9 -2c-9 -100 -73 -188 -176 -188zM109 -57c57 0 112 9 163 27
c-60 58 -121 105 -190 105c-48 0 -89 -20 -89 -64c0 -41 50 -68 116 -68z" />
    <glyph glyph-name="R.1" horiz-adv-x="973" 
d="M760 -10c-89 0 -158 50 -198 199l-42 136c9 -1 18 -1 25 -1c105 0 217 57 217 206c0 115 -78 177 -217 177c-288 0 -503 -253 -503 -515c0 -118 62 -182 121 -182c63 0 86 48 113 144l66 243c47 175 117 227 211 264h6c-32 -56 -51 -111 -89 -252l-56 -207
c-33 -129 -100 -212 -226 -212c-87 0 -156 75 -156 202c0 267 216 528 529 528c182 0 319 -76 319 -197c0 -127 -123 -190 -243 -207l53 -135c39 -105 77 -152 132 -152c48 0 89 37 98 123l10 -2c-9 -97 -74 -160 -170 -160z" />
    <glyph glyph-name="Racute.1" horiz-adv-x="973" 
d="M692 924h115l-213 -179h-4zM760 -10c-89 0 -158 50 -198 199l-42 136c9 -1 18 -1 25 -1c105 0 217 57 217 206c0 115 -78 177 -217 177c-288 0 -503 -253 -503 -515c0 -118 62 -182 121 -182c63 0 86 48 113 144l66 243c47 175 117 227 211 264h6
c-32 -56 -51 -111 -89 -252l-56 -207c-33 -129 -100 -212 -226 -212c-87 0 -156 75 -156 202c0 267 216 528 529 528c182 0 319 -76 319 -197c0 -127 -123 -190 -243 -207l53 -135c39 -105 77 -152 132 -152c48 0 89 37 98 123l10 -2c-9 -97 -74 -160 -170 -160z" />
    <glyph glyph-name="uni0156.1" horiz-adv-x="973" 
d="M760 -10c-89 0 -158 50 -198 199l-42 136c9 -1 18 -1 25 -1c105 0 217 57 217 206c0 115 -78 177 -217 177c-288 0 -503 -253 -503 -515c0 -118 62 -182 121 -182c63 0 86 48 113 144l66 243c47 175 117 227 211 264h6c-32 -56 -51 -111 -89 -252l-56 -207
c-33 -129 -100 -212 -226 -212c-87 0 -156 75 -156 202c0 267 216 528 529 528c182 0 319 -76 319 -197c0 -127 -123 -190 -243 -207l53 -135c39 -105 77 -152 132 -152c48 0 89 37 98 123l10 -2c-9 -97 -74 -160 -170 -160zM382 -166l28 114h126l-29 -115
c-16 -62 -68 -115 -166 -103l3 10c92 -11 138 34 153 94h-115z" />
    <glyph glyph-name="Rcaron.1" horiz-adv-x="973" 
d="M597 737h-2l-111 195h93l77 -130l143 130h13zM760 -10c-89 0 -158 50 -198 199l-42 136c9 -1 18 -1 25 -1c105 0 217 57 217 206c0 115 -78 177 -217 177c-288 0 -503 -253 -503 -515c0 -118 62 -182 121 -182c63 0 86 48 113 144l66 243c47 175 117 227 211 264h6
c-32 -56 -51 -111 -89 -252l-56 -207c-33 -129 -100 -212 -226 -212c-87 0 -156 75 -156 202c0 267 216 528 529 528c182 0 319 -76 319 -197c0 -127 -123 -190 -243 -207l53 -135c39 -105 77 -152 132 -152c48 0 89 37 98 123l10 -2c-9 -97 -74 -160 -170 -160z" />
    <glyph glyph-name="S.1" horiz-adv-x="621" 
d="M615 581c0 -71 -50 -104 -88 -118l-2 10c42 15 80 45 80 108c0 70 -55 116 -134 116c-80 0 -129 -56 -129 -129c0 -145 215 -254 215 -443c0 -182 -156 -292 -326 -292c-160 0 -256 100 -256 219c0 113 90 197 187 197l1 -10c-93 0 -178 -80 -178 -187
c0 -112 91 -206 234 -206c140 0 226 94 226 229c0 187 -205 283 -205 434c0 119 92 201 213 201c100 0 162 -51 162 -129z" />
    <glyph glyph-name="Sacute.1" horiz-adv-x="621" 
d="M581 924h115l-213 -179h-4zM615 581c0 -71 -50 -104 -88 -118l-2 10c42 15 80 45 80 108c0 70 -55 116 -134 116c-80 0 -129 -56 -129 -129c0 -145 215 -254 215 -443c0 -182 -156 -292 -326 -292c-160 0 -256 100 -256 219c0 113 90 197 187 197l1 -10
c-93 0 -178 -80 -178 -187c0 -112 91 -206 234 -206c140 0 226 94 226 229c0 187 -205 283 -205 434c0 119 92 201 213 201c100 0 162 -51 162 -129z" />
    <glyph glyph-name="Scircumflex.1" horiz-adv-x="621" 
d="M587 741l-76 130l-143 -130h-13l213 194h2l111 -194h-94zM615 581c0 -71 -50 -104 -88 -118l-2 10c42 15 80 45 80 108c0 70 -55 116 -134 116c-80 0 -129 -56 -129 -129c0 -145 215 -254 215 -443c0 -182 -156 -292 -326 -292c-160 0 -256 100 -256 219
c0 113 90 197 187 197l1 -10c-93 0 -178 -80 -178 -187c0 -112 91 -206 234 -206c140 0 226 94 226 229c0 187 -205 283 -205 434c0 119 92 201 213 201c100 0 162 -51 162 -129z" />
    <glyph glyph-name="uni015E.1" horiz-adv-x="621" 
d="M188 -385c-54 0 -85 26 -95 59l9 5c9 -31 34 -49 67 -49c47 0 79 42 79 92c0 33 -23 47 -75 47l44 64c-152 6 -242 104 -242 219c0 113 90 197 187 197l1 -10c-93 0 -178 -80 -178 -187c0 -112 91 -206 234 -206c140 0 226 94 226 229c0 187 -205 283 -205 434
c0 119 92 201 213 201c100 0 162 -51 162 -129c0 -71 -50 -104 -88 -118l-2 10c42 15 80 45 80 108c0 70 -55 116 -134 116c-80 0 -129 -56 -129 -129c0 -145 215 -254 215 -443c0 -184 -157 -292 -331 -292l-38 -56c68 0 122 -21 122 -69c0 -52 -53 -93 -122 -93z" />
    <glyph glyph-name="Scaron.1" horiz-adv-x="621" 
d="M467 737h-2l-111 195h93l77 -130l143 130h13zM615 581c0 -71 -50 -104 -88 -118l-2 10c42 15 80 45 80 108c0 70 -55 116 -134 116c-80 0 -129 -56 -129 -129c0 -145 215 -254 215 -443c0 -182 -156 -292 -326 -292c-160 0 -256 100 -256 219c0 113 90 197 187 197l1 -10
c-93 0 -178 -80 -178 -187c0 -112 91 -206 234 -206c140 0 226 94 226 229c0 187 -205 283 -205 434c0 119 92 201 213 201c100 0 162 -51 162 -129z" />
    <glyph glyph-name="uni0218.1" horiz-adv-x="621" 
d="M615 581c0 -71 -50 -104 -88 -118l-2 10c42 15 80 45 80 108c0 70 -55 116 -134 116c-80 0 -129 -56 -129 -129c0 -145 215 -254 215 -443c0 -182 -156 -292 -326 -292c-160 0 -256 100 -256 219c0 113 90 197 187 197l1 -10c-93 0 -178 -80 -178 -187
c0 -112 91 -206 234 -206c140 0 226 94 226 229c0 187 -205 283 -205 434c0 119 92 201 213 201c100 0 162 -51 162 -129zM110 -342l28 114h126l-29 -115c-16 -62 -68 -115 -166 -103l3 10c92 -11 138 34 153 94h-115z" />
    <glyph glyph-name="T.1" horiz-adv-x="665" 
d="M587 230c-38 -154 -141 -240 -294 -240c-120 0 -190 79 -190 162c0 73 41 125 91 150l4 -9c-47 -25 -85 -70 -85 -141c0 -78 64 -146 157 -146c99 0 151 64 182 187l61 238c40 162 108 229 205 264c-155 -28 -314 26 -436 26c-94 0 -167 -58 -167 -142
c0 -55 32 -91 80 -111l-5 -8c-46 17 -85 59 -85 119c0 90 79 152 177 152c128 0 290 -60 457 -24l4 -8c-49 -48 -67 -113 -103 -255z" />
    <glyph glyph-name="Tcommaaccent.1" horiz-adv-x="665" 
d="M220 -225c-54 0 -85 26 -95 59l9 5c9 -31 34 -49 67 -49c47 0 79 42 79 92c0 33 -23 47 -75 47l44 65c-93 16 -146 86 -146 158c0 73 41 125 91 150l4 -9c-47 -25 -85 -70 -85 -141c0 -78 64 -146 157 -146c99 0 151 64 182 187l61 238c40 162 108 229 205 264
c-155 -28 -314 26 -436 26c-94 0 -167 -58 -167 -142c0 -55 32 -91 80 -111l-5 -8c-46 17 -85 59 -85 119c0 90 79 152 177 152c128 0 290 -60 457 -24l4 -8c-49 -48 -67 -113 -103 -255l-53 -214c-38 -154 -141 -240 -294 -240c-12 0 -24 1 -35 2l-38 -55
c68 0 122 -21 122 -69c0 -52 -53 -93 -122 -93z" />
    <glyph glyph-name="Tcaron.1" horiz-adv-x="665" 
d="M485 737h-2l-111 195h93l77 -130l143 130h13zM587 230c-38 -154 -141 -240 -294 -240c-120 0 -190 79 -190 162c0 73 41 125 91 150l4 -9c-47 -25 -85 -70 -85 -141c0 -78 64 -146 157 -146c99 0 151 64 182 187l61 238c40 162 108 229 205 264c-155 -28 -314 26 -436 26
c-94 0 -167 -58 -167 -142c0 -55 32 -91 80 -111l-5 -8c-46 17 -85 59 -85 119c0 90 79 152 177 152c128 0 290 -60 457 -24l4 -8c-49 -48 -67 -113 -103 -255z" />
    <glyph glyph-name="uni021A.1" horiz-adv-x="665" 
d="M587 230c-38 -154 -141 -240 -294 -240c-120 0 -190 79 -190 162c0 73 41 125 91 150l4 -9c-47 -25 -85 -70 -85 -141c0 -78 64 -146 157 -146c99 0 151 64 182 187l61 238c40 162 108 229 205 264c-155 -28 -314 26 -436 26c-94 0 -167 -58 -167 -142
c0 -55 32 -91 80 -111l-5 -8c-46 17 -85 59 -85 119c0 90 79 152 177 152c128 0 290 -60 457 -24l4 -8c-49 -48 -67 -113 -103 -255zM194 -166l28 114h126l-29 -115c-16 -62 -68 -115 -166 -103l3 10c92 -11 138 34 153 94h-115z" />
    <glyph glyph-name="U.1" horiz-adv-x="1084" 
d="M875 -10c-76 0 -132 51 -132 138c0 17 2 36 6 56c-53 -111 -134 -194 -242 -194c-123 0 -214 96 -214 230c0 192 140 381 268 470h-149c-224 0 -324 -102 -324 -209c0 -51 34 -87 79 -106l-5 -8c-44 16 -84 59 -84 114c0 113 107 219 335 219h176
c-84 -120 -170 -306 -170 -501c0 -120 54 -174 129 -174c107 0 183 119 226 256l113 419h124l-140 -534c-7 -27 -11 -50 -11 -72c0 -49 23 -76 63 -76c47 0 92 45 115 118l9 -3c-28 -94 -101 -143 -172 -143z" />
    <glyph glyph-name="Ugrave.1" horiz-adv-x="1084" 
d="M763 745l-124 179h111l17 -179h-4zM875 -10c-76 0 -132 51 -132 138c0 17 2 36 6 56c-53 -111 -134 -194 -242 -194c-123 0 -214 96 -214 230c0 192 140 381 268 470h-149c-224 0 -324 -102 -324 -209c0 -51 34 -87 79 -106l-5 -8c-44 16 -84 59 -84 114
c0 113 107 219 335 219h176c-84 -120 -170 -306 -170 -501c0 -120 54 -174 129 -174c107 0 183 119 226 256l113 419h124l-140 -534c-7 -27 -11 -50 -11 -72c0 -49 23 -76 63 -76c47 0 92 45 115 118l9 -3c-28 -94 -101 -143 -172 -143z" />
    <glyph glyph-name="Uacute.1" horiz-adv-x="1084" 
d="M838 924h115l-213 -179h-4zM875 -10c-76 0 -132 51 -132 138c0 17 2 36 6 56c-53 -111 -134 -194 -242 -194c-123 0 -214 96 -214 230c0 192 140 381 268 470h-149c-224 0 -324 -102 -324 -209c0 -51 34 -87 79 -106l-5 -8c-44 16 -84 59 -84 114c0 113 107 219 335 219
h176c-84 -120 -170 -306 -170 -501c0 -120 54 -174 129 -174c107 0 183 119 226 256l113 419h124l-140 -534c-7 -27 -11 -50 -11 -72c0 -49 23 -76 63 -76c47 0 92 45 115 118l9 -3c-28 -94 -101 -143 -172 -143z" />
    <glyph glyph-name="Ucircumflex.1" horiz-adv-x="1084" 
d="M832 741l-76 130l-143 -130h-13l213 194h2l111 -194h-94zM875 -10c-76 0 -132 51 -132 138c0 17 2 36 6 56c-53 -111 -134 -194 -242 -194c-123 0 -214 96 -214 230c0 192 140 381 268 470h-149c-224 0 -324 -102 -324 -209c0 -51 34 -87 79 -106l-5 -8
c-44 16 -84 59 -84 114c0 113 107 219 335 219h176c-84 -120 -170 -306 -170 -501c0 -120 54 -174 129 -174c107 0 183 119 226 256l113 419h124l-140 -534c-7 -27 -11 -50 -11 -72c0 -49 23 -76 63 -76c47 0 92 45 115 118l9 -3c-28 -94 -101 -143 -172 -143z" />
    <glyph glyph-name="Udieresis.1" horiz-adv-x="1084" 
d="M776 754l32 129h97l-32 -129h-97zM612 754l32 129h97l-32 -129h-97zM875 -10c-76 0 -132 51 -132 138c0 17 2 36 6 56c-53 -111 -134 -194 -242 -194c-123 0 -214 96 -214 230c0 192 140 381 268 470h-149c-224 0 -324 -102 -324 -209c0 -51 34 -87 79 -106l-5 -8
c-44 16 -84 59 -84 114c0 113 107 219 335 219h176c-84 -120 -170 -306 -170 -501c0 -120 54 -174 129 -174c107 0 183 119 226 256l113 419h124l-140 -534c-7 -27 -11 -50 -11 -72c0 -49 23 -76 63 -76c47 0 92 45 115 118l9 -3c-28 -94 -101 -143 -172 -143z" />
    <glyph glyph-name="Utilde.1" horiz-adv-x="1084" 
d="M817 761c-59 0 -104 87 -157 87c-34 0 -61 -28 -83 -90h-9c26 88 76 149 139 149c62 0 105 -87 158 -87c33 0 60 29 82 90h9c-26 -88 -76 -149 -139 -149zM875 -10c-76 0 -132 51 -132 138c0 17 2 36 6 56c-53 -111 -134 -194 -242 -194c-123 0 -214 96 -214 230
c0 192 140 381 268 470h-149c-224 0 -324 -102 -324 -209c0 -51 34 -87 79 -106l-5 -8c-44 16 -84 59 -84 114c0 113 107 219 335 219h176c-84 -120 -170 -306 -170 -501c0 -120 54 -174 129 -174c107 0 183 119 226 256l113 419h124l-140 -534c-7 -27 -11 -50 -11 -72
c0 -49 23 -76 63 -76c47 0 92 45 115 118l9 -3c-28 -94 -101 -143 -172 -143z" />
    <glyph glyph-name="Umacron.1" horiz-adv-x="1084" 
d="M894 786h-287l3 10h287zM875 -10c-76 0 -132 51 -132 138c0 17 2 36 6 56c-53 -111 -134 -194 -242 -194c-123 0 -214 96 -214 230c0 192 140 381 268 470h-149c-224 0 -324 -102 -324 -209c0 -51 34 -87 79 -106l-5 -8c-44 16 -84 59 -84 114c0 113 107 219 335 219h176
c-84 -120 -170 -306 -170 -501c0 -120 54 -174 129 -174c107 0 183 119 226 256l113 419h124l-140 -534c-7 -27 -11 -50 -11 -72c0 -49 23 -76 63 -76c47 0 92 45 115 118l9 -3c-28 -94 -101 -143 -172 -143z" />
    <glyph glyph-name="Ubreve.1" horiz-adv-x="1084" 
d="M941 928c-27 -107 -104 -182 -193 -182s-132 75 -105 182h6c-13 -74 19 -109 115 -109s145 35 170 109h7zM875 -10c-76 0 -132 51 -132 138c0 17 2 36 6 56c-53 -111 -134 -194 -242 -194c-123 0 -214 96 -214 230c0 192 140 381 268 470h-149
c-224 0 -324 -102 -324 -209c0 -51 34 -87 79 -106l-5 -8c-44 16 -84 59 -84 114c0 113 107 219 335 219h176c-84 -120 -170 -306 -170 -501c0 -120 54 -174 129 -174c107 0 183 119 226 256l113 419h124l-140 -534c-7 -27 -11 -50 -11 -72c0 -49 23 -76 63 -76
c47 0 92 45 115 118l9 -3c-28 -94 -101 -143 -172 -143z" />
    <glyph glyph-name="Uring.1" horiz-adv-x="1084" 
d="M661 787c0 59 51 101 103 101c47 0 82 -35 82 -80c0 -60 -51 -101 -104 -101c-46 0 -81 35 -81 80zM836 808c0 39 -31 70 -72 70c-47 0 -93 -38 -93 -91c0 -39 31 -70 71 -70c48 0 94 37 94 91zM875 -10c-76 0 -132 51 -132 138c0 17 2 36 6 56
c-53 -111 -134 -194 -242 -194c-123 0 -214 96 -214 230c0 192 140 381 268 470h-149c-224 0 -324 -102 -324 -209c0 -51 34 -87 79 -106l-5 -8c-44 16 -84 59 -84 114c0 113 107 219 335 219h176c-84 -120 -170 -306 -170 -501c0 -120 54 -174 129 -174
c107 0 183 119 226 256l113 419h124l-140 -534c-7 -27 -11 -50 -11 -72c0 -49 23 -76 63 -76c47 0 92 45 115 118l9 -3c-28 -94 -101 -143 -172 -143z" />
    <glyph glyph-name="Uhungarumlaut.1" horiz-adv-x="1084" 
d="M899 924h106l-205 -179h-4zM735 924h107l-206 -179h-4zM875 -10c-76 0 -132 51 -132 138c0 17 2 36 6 56c-53 -111 -134 -194 -242 -194c-123 0 -214 96 -214 230c0 192 140 381 268 470h-149c-224 0 -324 -102 -324 -209c0 -51 34 -87 79 -106l-5 -8
c-44 16 -84 59 -84 114c0 113 107 219 335 219h176c-84 -120 -170 -306 -170 -501c0 -120 54 -174 129 -174c107 0 183 119 226 256l113 419h124l-140 -534c-7 -27 -11 -50 -11 -72c0 -49 23 -76 63 -76c47 0 92 45 115 118l9 -3c-28 -94 -101 -143 -172 -143z" />
    <glyph glyph-name="Uogonek.1" horiz-adv-x="1084" 
d="M828 -225c-49 0 -88 30 -88 72c0 56 65 97 160 145c-8 -1 -17 -2 -25 -2c-76 0 -132 51 -132 138c0 17 2 36 6 56c-53 -111 -134 -194 -242 -194c-123 0 -214 96 -214 230c0 192 140 381 268 470h-149c-224 0 -324 -102 -324 -209c0 -51 34 -87 79 -106l-5 -8
c-44 16 -84 59 -84 114c0 113 107 219 335 219h176c-84 -120 -170 -306 -170 -501c0 -120 54 -174 129 -174c107 0 183 119 226 256l113 419h124l-140 -534c-7 -27 -11 -50 -11 -72c0 -49 23 -76 63 -76c47 0 92 45 115 118l9 -3c-20 -67 -63 -112 -112 -131
c-89 -50 -130 -92 -130 -153c0 -34 19 -56 49 -56c44 0 80 29 107 79l7 -4c-35 -64 -85 -93 -140 -93z" />
    <glyph glyph-name="V.1" horiz-adv-x="924" 
d="M418 199c0 -121 60 -179 145 -179c182 0 366 244 366 501c0 107 -49 177 -132 177c-63 0 -107 -39 -130 -102l-8 5c21 65 73 107 138 107c89 0 142 -73 142 -187c0 -274 -195 -531 -428 -531c-117 0 -216 92 -216 236c0 186 137 374 270 464h-153
c-224 0 -324 -102 -324 -209c0 -51 34 -87 79 -106l-5 -8c-44 16 -84 59 -84 114c0 113 107 219 335 219h175c-79 -111 -170 -302 -170 -501z" />
    <glyph glyph-name="W.1" horiz-adv-x="1307" 
d="M542 21c97 0 170 117 194 208l126 471h123l-127 -473c-34 -126 2 -212 100 -212c163 0 354 246 354 503c0 113 -60 185 -146 185c-56 0 -98 -32 -118 -91l-10 3c20 61 67 98 128 98c91 0 156 -73 156 -196c0 -258 -190 -527 -403 -527c-110 0 -195 81 -186 198
c-31 -90 -114 -198 -235 -198c-114 0 -207 89 -207 232c0 191 145 377 285 468h-164c-224 0 -324 -102 -324 -209c0 -51 34 -87 79 -106l-5 -8c-44 16 -84 59 -84 114c0 113 107 219 335 219h185c-86 -118 -184 -306 -184 -504c0 -120 57 -175 128 -175z" />
    <glyph glyph-name="Wcircumflex.1" horiz-adv-x="1307" 
d="M1022 741l-76 130l-143 -130h-13l213 194h2l111 -194h-94zM542 21c97 0 170 117 194 208l126 471h123l-127 -473c-34 -126 2 -212 100 -212c163 0 354 246 354 503c0 113 -60 185 -146 185c-56 0 -98 -32 -118 -91l-10 3c20 61 67 98 128 98c91 0 156 -73 156 -196
c0 -258 -190 -527 -403 -527c-110 0 -195 81 -186 198c-31 -90 -114 -198 -235 -198c-114 0 -207 89 -207 232c0 191 145 377 285 468h-164c-224 0 -324 -102 -324 -209c0 -51 34 -87 79 -106l-5 -8c-44 16 -84 59 -84 114c0 113 107 219 335 219h185
c-86 -118 -184 -306 -184 -504c0 -120 57 -175 128 -175z" />
    <glyph glyph-name="Wgrave.1" horiz-adv-x="1307" 
d="M953 745l-124 179h111l17 -179h-4zM542 21c97 0 170 117 194 208l126 471h123l-127 -473c-34 -126 2 -212 100 -212c163 0 354 246 354 503c0 113 -60 185 -146 185c-56 0 -98 -32 -118 -91l-10 3c20 61 67 98 128 98c91 0 156 -73 156 -196c0 -258 -190 -527 -403 -527
c-110 0 -195 81 -186 198c-31 -90 -114 -198 -235 -198c-114 0 -207 89 -207 232c0 191 145 377 285 468h-164c-224 0 -324 -102 -324 -209c0 -51 34 -87 79 -106l-5 -8c-44 16 -84 59 -84 114c0 113 107 219 335 219h185c-86 -118 -184 -306 -184 -504
c0 -120 57 -175 128 -175z" />
    <glyph glyph-name="Wacute.1" horiz-adv-x="1307" 
d="M1031 924h115l-213 -179h-4zM542 21c97 0 170 117 194 208l126 471h123l-127 -473c-34 -126 2 -212 100 -212c163 0 354 246 354 503c0 113 -60 185 -146 185c-56 0 -98 -32 -118 -91l-10 3c20 61 67 98 128 98c91 0 156 -73 156 -196c0 -258 -190 -527 -403 -527
c-110 0 -195 81 -186 198c-31 -90 -114 -198 -235 -198c-114 0 -207 89 -207 232c0 191 145 377 285 468h-164c-224 0 -324 -102 -324 -209c0 -51 34 -87 79 -106l-5 -8c-44 16 -84 59 -84 114c0 113 107 219 335 219h185c-86 -118 -184 -306 -184 -504
c0 -120 57 -175 128 -175z" />
    <glyph glyph-name="Wdieresis.1" horiz-adv-x="1307" 
d="M965 754l32 129h97l-32 -129h-97zM801 754l32 129h97l-32 -129h-97zM542 21c97 0 170 117 194 208l126 471h123l-127 -473c-34 -126 2 -212 100 -212c163 0 354 246 354 503c0 113 -60 185 -146 185c-56 0 -98 -32 -118 -91l-10 3c20 61 67 98 128 98
c91 0 156 -73 156 -196c0 -258 -190 -527 -403 -527c-110 0 -195 81 -186 198c-31 -90 -114 -198 -235 -198c-114 0 -207 89 -207 232c0 191 145 377 285 468h-164c-224 0 -324 -102 -324 -209c0 -51 34 -87 79 -106l-5 -8c-44 16 -84 59 -84 114c0 113 107 219 335 219h185
c-86 -118 -184 -306 -184 -504c0 -120 57 -175 128 -175z" />
    <glyph glyph-name="X.1" horiz-adv-x="871" 
d="M357 194c-105 -138 -168 -204 -249 -204c-61 0 -126 41 -126 125c0 73 64 125 121 137l2 -10c-54 -10 -113 -60 -113 -127c0 -79 59 -115 116 -115c76 0 135 61 239 198l110 147l-155 355h131l118 -272l84 111c83 109 136 173 209 173c61 0 103 -41 103 -103
c0 -51 -34 -86 -68 -99l-5 8c36 15 63 48 63 91c0 56 -38 93 -93 93c-65 0 -117 -58 -201 -169l-87 -115l182 -418h-130l-146 335z" />
    <glyph glyph-name="Y.1" horiz-adv-x="845" 
d="M473 254l-67 -254h-125l70 260c29 105 44 206 44 263c0 102 -44 179 -135 179c-85 0 -152 -64 -152 -149c0 -49 28 -84 65 -103l-5 -8c-38 19 -70 58 -70 111c0 93 76 166 188 166c128 0 215 -92 215 -248c0 -30 -3 -67 -9 -113c55 182 152 352 296 352
c86 0 122 -57 122 -123c0 -76 -56 -125 -101 -142l-1 9c44 19 92 63 92 133c0 60 -31 113 -112 113c-166 0 -266 -238 -315 -446z" />
    <glyph glyph-name="Yacute.1" horiz-adv-x="845" 
d="M630 924h115l-213 -179h-4zM473 254l-67 -254h-125l70 260c29 105 44 206 44 263c0 102 -44 179 -135 179c-85 0 -152 -64 -152 -149c0 -49 28 -84 65 -103l-5 -8c-38 19 -70 58 -70 111c0 93 76 166 188 166c128 0 215 -92 215 -248c0 -30 -3 -67 -9 -113
c55 182 152 352 296 352c86 0 122 -57 122 -123c0 -76 -56 -125 -101 -142l-1 9c44 19 92 63 92 133c0 60 -31 113 -112 113c-166 0 -266 -238 -315 -446z" />
    <glyph glyph-name="Ycircumflex.1" horiz-adv-x="845" 
d="M621 741l-76 130l-143 -130h-13l213 194h2l111 -194h-94zM473 254l-67 -254h-125l70 260c29 105 44 206 44 263c0 102 -44 179 -135 179c-85 0 -152 -64 -152 -149c0 -49 28 -84 65 -103l-5 -8c-38 19 -70 58 -70 111c0 93 76 166 188 166c128 0 215 -92 215 -248
c0 -30 -3 -67 -9 -113c55 182 152 352 296 352c86 0 122 -57 122 -123c0 -76 -56 -125 -101 -142l-1 9c44 19 92 63 92 133c0 60 -31 113 -112 113c-166 0 -266 -238 -315 -446z" />
    <glyph glyph-name="Ydieresis.1" horiz-adv-x="845" 
d="M564 754l32 129h97l-32 -129h-97zM400 754l32 129h97l-32 -129h-97zM473 254l-67 -254h-125l70 260c29 105 44 206 44 263c0 102 -44 179 -135 179c-85 0 -152 -64 -152 -149c0 -49 28 -84 65 -103l-5 -8c-38 19 -70 58 -70 111c0 93 76 166 188 166
c128 0 215 -92 215 -248c0 -30 -3 -67 -9 -113c55 182 152 352 296 352c86 0 122 -57 122 -123c0 -76 -56 -125 -101 -142l-1 9c44 19 92 63 92 133c0 60 -31 113 -112 113c-166 0 -266 -238 -315 -446z" />
    <glyph glyph-name="Ygrave.1" horiz-adv-x="845" 
d="M551 745l-124 179h111l17 -179h-4zM473 254l-67 -254h-125l70 260c29 105 44 206 44 263c0 102 -44 179 -135 179c-85 0 -152 -64 -152 -149c0 -49 28 -84 65 -103l-5 -8c-38 19 -70 58 -70 111c0 93 76 166 188 166c128 0 215 -92 215 -248c0 -30 -3 -67 -9 -113
c55 182 152 352 296 352c86 0 122 -57 122 -123c0 -76 -56 -125 -101 -142l-1 9c44 19 92 63 92 133c0 60 -31 113 -112 113c-166 0 -266 -238 -315 -446z" />
    <glyph glyph-name="Z.1" horiz-adv-x="700" 
d="M455 -129c-149 0 -291 230 -426 191l-72 -57l-7 8l694 551c-124 -45 -231 39 -368 39c-58 0 -111 -31 -111 -97c0 -17 3 -30 10 -43l-8 -5c-8 13 -13 34 -13 64c0 96 65 189 177 189c135 0 258 -148 363 -107l77 61l6 -8l-672 -534c143 32 300 -163 426 -163
c56 0 99 41 99 108c0 19 -8 36 -21 51l8 6c13 -14 24 -36 24 -63c0 -106 -82 -191 -186 -191z" />
    <glyph glyph-name="Zacute.1" horiz-adv-x="700" 
d="M596 924h115l-213 -179h-4zM455 -129c-149 0 -291 230 -426 191l-72 -57l-7 8l694 551c-124 -45 -231 39 -368 39c-58 0 -111 -31 -111 -97c0 -17 3 -30 10 -43l-8 -5c-8 13 -13 34 -13 64c0 96 65 189 177 189c135 0 258 -148 363 -107l77 61l6 -8l-672 -534
c143 32 300 -163 426 -163c56 0 99 41 99 108c0 19 -8 36 -21 51l8 6c13 -14 24 -36 24 -63c0 -106 -82 -191 -186 -191z" />
    <glyph glyph-name="Zdotaccent.1" horiz-adv-x="700" 
d="M471 754l32 129h122l-32 -129h-122zM455 -129c-149 0 -291 230 -426 191l-72 -57l-7 8l694 551c-124 -45 -231 39 -368 39c-58 0 -111 -31 -111 -97c0 -17 3 -30 10 -43l-8 -5c-8 13 -13 34 -13 64c0 96 65 189 177 189c135 0 258 -148 363 -107l77 61l6 -8l-672 -534
c143 32 300 -163 426 -163c56 0 99 41 99 108c0 19 -8 36 -21 51l8 6c13 -14 24 -36 24 -63c0 -106 -82 -191 -186 -191z" />
    <glyph glyph-name="Zcaron.1" horiz-adv-x="700" 
d="M502 737h-2l-111 195h93l77 -130l143 130h13zM455 -129c-149 0 -291 230 -426 191l-72 -57l-7 8l694 551c-124 -45 -231 39 -368 39c-58 0 -111 -31 -111 -97c0 -17 3 -30 10 -43l-8 -5c-8 13 -13 34 -13 64c0 96 65 189 177 189c135 0 258 -148 363 -107l77 61l6 -8
l-672 -534c143 32 300 -163 426 -163c56 0 99 41 99 108c0 19 -8 36 -21 51l8 6c13 -14 24 -36 24 -63c0 -106 -82 -191 -186 -191z" />
    <glyph glyph-name="AE.1" horiz-adv-x="1269" 
d="M734 307l95 382c-135 -74 -244 -234 -348 -382h253zM657 0l74 296h-258c-114 -161 -223 -306 -355 -306c-68 0 -134 43 -134 129c0 71 55 119 110 133l3 -10c-53 -12 -102 -58 -102 -123c0 -78 59 -119 123 -119c247 0 419 539 698 690h-226c-224 0 -330 -96 -330 -212
c0 -51 34 -84 79 -103l-5 -8c-44 16 -84 56 -84 111c0 122 113 222 341 222h744l-3 -11h-377l-81 -322h277l-3 -11h-277l-85 -345h394l-3 -11h-520z" />
    <glyph glyph-name="AEacute.1" horiz-adv-x="1269" 
d="M1055 924h115l-213 -179h-4zM734 307l95 382c-135 -74 -244 -234 -348 -382h253zM657 0l74 296h-258c-114 -161 -223 -306 -355 -306c-68 0 -134 43 -134 129c0 71 55 119 110 133l3 -10c-53 -12 -102 -58 -102 -123c0 -78 59 -119 123 -119c247 0 419 539 698 690h-226
c-224 0 -330 -96 -330 -212c0 -51 34 -84 79 -103l-5 -8c-44 16 -84 56 -84 111c0 122 113 222 341 222h744l-3 -11h-377l-81 -322h277l-3 -11h-277l-85 -345h394l-3 -11h-520z" />
    <glyph glyph-name="Eth.1" horiz-adv-x="934" 
d="M526 -10c-63 0 -113 13 -146 35l6 9c29 -20 64 -29 109 -29c187 0 310 209 310 429c0 165 -74 273 -259 273c-288 0 -504 -253 -504 -515c0 -118 62 -182 121 -182c63 0 86 48 113 144l55 202h-93l2 11h94l8 30c47 175 117 227 211 264h6c-32 -56 -51 -111 -89 -252
l-11 -42h140l-2 -11h-141l-42 -154c-33 -129 -100 -212 -226 -212c-87 0 -156 75 -156 202c0 267 217 528 531 528c228 0 368 -128 368 -323c0 -223 -184 -407 -405 -407z" />
    <glyph glyph-name="Oslash.1" horiz-adv-x="743" 
d="M294 12c196 0 328 224 328 455c0 47 -6 87 -17 119l-448 -530c40 -29 88 -44 137 -44zM328 -10c-67 0 -130 19 -179 58l-57 -68l-8 7l57 68c-55 47 -91 121 -91 223c0 87 32 195 114 291l6 -7c-78 -91 -110 -197 -110 -284c0 -100 36 -172 88 -215l452 535
c-28 65 -80 97 -155 97c-110 0 -221 -90 -221 -220c0 -64 31 -103 69 -117l-5 -8c-42 15 -74 59 -74 125c0 134 114 235 259 235c65 0 126 -20 173 -58l57 68l9 -7l-58 -68c56 -49 91 -125 91 -224c0 -227 -186 -431 -417 -431z" />
    <glyph glyph-name="Oslashacute.1" horiz-adv-x="743" 
d="M602 924h115l-213 -179h-4zM294 12c196 0 328 224 328 455c0 47 -6 87 -17 119l-448 -530c40 -29 88 -44 137 -44zM328 -10c-67 0 -130 19 -179 58l-57 -68l-8 7l57 68c-55 47 -91 121 -91 223c0 87 32 195 114 291l6 -7c-78 -91 -110 -197 -110 -284
c0 -100 36 -172 88 -215l452 535c-28 65 -80 97 -155 97c-110 0 -221 -90 -221 -220c0 -64 31 -103 69 -117l-5 -8c-42 15 -74 59 -74 125c0 134 114 235 259 235c65 0 126 -20 173 -58l57 68l9 -7l-58 -68c56 -49 91 -125 91 -224c0 -227 -186 -431 -417 -431z" />
    <glyph glyph-name="Thorn.1" horiz-adv-x="863" 
d="M385 223c-3 -10 -5 -20 -8 -30h122c138 0 248 82 248 246c0 86 -50 128 -154 128h-119c-10 -33 -21 -75 -35 -130zM146 -10c-78 0 -128 49 -128 112c0 39 21 71 48 89l6 -8c-27 -18 -44 -47 -44 -81c0 -57 44 -93 92 -93c61 0 97 51 126 161l66 255
c41 160 96 224 183 265h-83c-225 0 -325 -102 -325 -209c0 -51 34 -87 79 -106l-5 -8c-44 16 -84 59 -84 114c0 113 107 219 335 219h115c-20 -36 -33 -67 -50 -122h159c135 0 239 -51 239 -158c0 -173 -167 -238 -338 -238h-164c-40 -118 -112 -192 -227 -192z" />
    <glyph glyph-name="Dcroat.1" horiz-adv-x="934" 
d="M526 -10c-63 0 -113 13 -146 35l6 9c29 -20 64 -29 109 -29c187 0 310 209 310 429c0 165 -74 273 -259 273c-288 0 -504 -253 -504 -515c0 -118 62 -182 121 -182c63 0 86 48 113 144l55 202h-93l2 11h94l8 30c47 175 117 227 211 264h6c-32 -56 -51 -111 -89 -252
l-11 -42h140l-2 -11h-141l-42 -154c-33 -129 -100 -212 -226 -212c-87 0 -156 75 -156 202c0 267 217 528 531 528c228 0 368 -128 368 -323c0 -223 -184 -407 -405 -407z" />
    <glyph glyph-name="Hbar.1" horiz-adv-x="1020" 
d="M445 458l-39 -154h306l39 154h-306zM807 -10c-76 0 -132 51 -132 138c0 24 5 52 13 81l21 85h-305l-18 -71c-36 -142 -111 -233 -239 -233c-78 0 -129 49 -129 112c0 39 22 71 48 89l7 -8c-28 -18 -44 -47 -44 -81c0 -57 43 -93 91 -93c62 0 98 51 126 161l75 288h-108
l2 11h110c40 128 92 184 171 221h-84c-224 0 -324 -102 -324 -209c0 -51 34 -87 79 -106l-5 -8c-44 16 -84 59 -84 114c0 113 107 219 335 219h114c-31 -54 -45 -97 -79 -231h306l8 33c32 124 97 212 219 212c54 0 93 -30 109 -67l-9 -5c-11 28 -33 53 -73 53
c-59 0 -86 -50 -116 -171l-14 -55h114l-2 -11h-114l-73 -292c-7 -27 -10 -50 -10 -72c0 -49 23 -76 62 -76c47 0 92 45 115 118l9 -3c-27 -94 -100 -143 -172 -143z" />
    <glyph glyph-name="Ldot.1" horiz-adv-x="708" 
d="M616 260l32 127h118l-31 -127h-119zM487 -109c-110 0 -186 111 -267 189c-49 -61 -104 -92 -159 -92s-91 38 -91 82c0 57 48 95 108 95c33 0 69 -15 108 -37c11 33 20 71 27 115c8 66 14 142 26 212c21 156 136 255 279 255c111 0 164 -61 163 -124
c0 -72 -51 -117 -103 -130l-2 8c50 15 95 55 95 122c0 53 -42 103 -111 103c-91 0 -150 -69 -181 -193l-34 -134c-29 -113 -67 -201 -111 -263c82 -50 174 -112 273 -112c80 0 140 37 140 111c0 25 -12 47 -32 59l7 6c24 -12 41 -43 41 -85c0 -101 -75 -187 -176 -187z
M58 -1c55 0 95 41 123 115c-32 25 -66 41 -103 41c-52 0 -97 -31 -97 -85c0 -40 30 -71 77 -71z" />
    <glyph glyph-name="Lslash.1" horiz-adv-x="717" 
d="M496 -109c-109 0 -185 111 -267 189c-48 -61 -103 -92 -158 -92c-56 0 -92 38 -92 82c0 57 48 95 108 95c33 0 69 -15 108 -37c15 45 25 98 33 164l-88 -22l4 14l85 22c5 49 11 100 19 149c21 156 137 255 279 255c111 0 164 -61 163 -124c0 -72 -51 -117 -103 -130l-2 8
c51 15 95 55 95 122c0 53 -42 103 -111 103c-91 0 -150 -69 -181 -193l-41 -160l139 35l-4 -14l-139 -35c-27 -94 -61 -168 -100 -223c82 -50 174 -112 273 -112c80 0 140 37 140 111c0 25 -12 47 -32 59l7 6c24 -12 41 -43 41 -85c0 -101 -75 -187 -176 -187zM68 -1
c55 0 94 41 122 115c-32 25 -66 41 -103 41c-52 0 -97 -31 -97 -85c0 -40 30 -71 78 -71z" />
    <glyph glyph-name="Eng.1" horiz-adv-x="1163" 
d="M610 -225c-49 0 -93 35 -93 87c0 18 6 44 24 60l8 -3c-17 -21 -22 -41 -22 -57c0 -48 42 -77 83 -77c90 0 140 85 173 216l-270 683c-62 -316 -192 -694 -395 -694c-67 0 -130 44 -130 127c0 73 51 118 103 133l3 -10c-50 -13 -96 -57 -96 -123c0 -75 57 -117 120 -117
c192 0 321 361 387 690h-38c-224 0 -330 -105 -330 -212c0 -51 34 -84 79 -103l-5 -8c-44 16 -84 56 -84 111c0 113 113 222 341 222h170l194 -513c69 279 165 551 334 551c55 0 91 -33 91 -86c0 -49 -31 -80 -62 -93l-3 8c30 13 55 41 55 85c0 45 -30 76 -81 76
c-163 0 -255 -271 -325 -543l-52 -200c-32 -122 -87 -210 -179 -210z" />
    <glyph glyph-name="OE.1" horiz-adv-x="1131" 
d="M504 689c-179 0 -284 -97 -284 -227c0 -83 54 -124 106 -124c58 0 90 29 116 82l9 -4c-26 -56 -66 -88 -125 -88c-61 0 -116 48 -116 134c0 137 110 238 293 238h693l-3 -11h-377l-81 -322h283l-3 -11h-283l-85 -345h393l-3 -11h-686c-173 0 -299 91 -299 286
c0 82 29 184 100 275l7 -6c-68 -88 -97 -187 -97 -269c0 -186 118 -275 289 -275h170l169 678h-186z" />
    <glyph glyph-name="Tbar.1" horiz-adv-x="675" 
d="M293 -10c-120 0 -190 79 -190 162c0 73 41 125 91 150l4 -9c-47 -25 -85 -70 -85 -141c0 -78 64 -146 157 -146c99 0 151 64 182 187l42 163h-170l2 11h171l16 64c40 162 104 229 201 264c-155 -28 -310 26 -432 26c-94 0 -167 -58 -167 -142c0 -55 32 -91 80 -111l-5 -8
c-46 17 -85 59 -85 119c0 90 79 152 177 152c128 0 290 -60 457 -24l4 -8c-49 -48 -67 -113 -103 -255l-19 -77h68l-2 -11h-69l-31 -126c-38 -154 -141 -240 -294 -240z" />
    <glyph glyph-name="zero.op" horiz-adv-x="607" 
d="M37 225c0 201 162 411 359 411c126 0 209 -103 209 -235c0 -201 -163 -411 -360 -411c-126 0 -208 103 -208 235zM492 498c0 79 -29 128 -95 128c-112 0 -168 -122 -214 -296c-23 -86 -34 -153 -34 -202c0 -79 30 -128 95 -128c113 0 168 122 214 296
c23 86 34 153 34 202z" />
    <glyph glyph-name="one.op" horiz-adv-x="360" 
d="M220 0h-122l135 539c-24 -28 -86 -92 -165 -136l-2 9c86 52 166 132 232 220h80z" />
    <glyph glyph-name="two.op" horiz-adv-x="515" 
d="M68 101h382l-28 -101h-484l2 7l249 191c162 122 234 207 234 311c0 62 -32 109 -114 109c-116 0 -211 -80 -211 -184c0 -38 20 -65 50 -75l-6 -8c-31 10 -54 41 -54 83c0 114 110 202 252 202c120 0 201 -59 201 -145c0 -145 -169 -217 -473 -390z" />
    <glyph glyph-name="three.op" horiz-adv-x="534" 
d="M203 -10c-118 0 -205 60 -205 141c0 73 55 116 114 132l3 -10c-56 -14 -107 -56 -107 -122c0 -72 71 -125 170 -125c134 0 201 107 201 216c0 78 -48 109 -137 109h-20l2 9h22c129 0 192 82 192 180c0 65 -37 100 -112 100c-98 0 -186 -61 -186 -147c0 -34 18 -54 52 -65
l-6 -9c-37 12 -56 37 -56 74c0 93 99 163 225 163c112 0 196 -48 196 -127c0 -107 -144 -171 -251 -172v-2c92 -5 195 -50 195 -142c0 -124 -135 -203 -292 -203z" />
    <glyph glyph-name="four.op" horiz-adv-x="588" 
d="M562 196l-2 -11h-136l-46 -185h-122l46 185h-308l1 7l433 433h106l-108 -429h136zM304 196l98 388l-389 -388h291z" />
    <glyph glyph-name="five.op" horiz-adv-x="516" 
d="M540 626l-40 -101h-318l-75 -199c43 54 108 89 188 89c111 0 190 -67 190 -167c0 -153 -140 -258 -307 -258c-101 0 -181 52 -181 135c0 63 44 105 93 123l3 -9c-49 -19 -86 -54 -86 -114c0 -79 76 -120 147 -120c130 0 211 114 211 252c0 84 -35 138 -109 138
c-61 0 -115 -35 -156 -88h-9l121 319h328z" />
    </font>
</defs>
</svg>
